<svg width="273" height="281" viewBox="0 0 273 281" fill="none" xmlns="http://www.w3.org/2000/svg">
<path d="M133.794 3.33798C133.548 5.90277 133.337 6.78113 132.81 7.23788C131.616 8.25677 131.335 9.69727 131.967 11.5243C132.424 12.9296 132.459 14.0539 132.143 19.9214C131.756 27.8617 131.054 35.1345 129.859 43.9883C129.367 47.5018 128.981 50.6287 128.981 50.9449C128.981 51.2611 128.664 51.6125 128.278 51.7179C127.505 51.9287 127.329 53.1935 127.962 53.8259C128.454 54.3178 127.329 58.5339 125.362 63.4176C124.027 66.7553 123.781 67.1067 122.938 67.2121C121.989 67.3175 121.954 67.4229 121.954 69.285C121.954 71.3579 120.97 73.5363 116.648 80.8793C114.962 83.6901 114.892 83.7252 112.749 84.463C110.922 85.0954 110.465 85.1306 110.184 84.7441C110.008 84.4982 108.181 82.3549 106.178 80.001C102.946 76.1713 102.454 75.7497 101.962 76.1713C96.0598 81.1955 94.549 82.3901 94.2679 82.3901C94.0923 82.3901 93.7058 82.0387 93.4247 81.6171L92.8977 80.8442L91.0356 82.4955C89.3491 83.936 89.0681 84.0765 88.5762 83.6198C88.0843 83.163 87.9438 83.163 87.4519 83.6901C86.9249 84.1819 86.7843 84.1468 85.6952 82.9171C84.1844 81.1604 83.5168 80.2118 83.4114 79.6496C83.306 78.8415 82.9898 78.7361 82.1115 79.228C81.3385 79.6145 81.1628 79.5793 80.1791 78.4902C79.5818 77.8226 79.0899 77.0848 79.0899 76.8037C79.0899 76.4875 78.8089 76.4173 78.1764 76.5578C77.4738 76.7335 76.9116 76.5578 75.8927 75.8902C74.3468 74.8011 72.309 74.2389 70.8334 74.52C69.3929 74.766 67.3199 73.8173 66.547 72.5525C66.0902 71.7795 65.6686 71.4985 64.966 71.4985C64.4389 71.4985 63.9822 71.3931 63.9822 71.2174C63.9471 70.7958 61.4877 68.2661 61.2769 68.4769C61.1714 68.5472 61.6985 69.3553 62.4363 70.2688C63.2444 71.2174 63.7714 72.166 63.7011 72.5525C63.6308 72.939 64.0525 73.7471 64.6146 74.3443C65.8443 75.6443 66.2308 77.4713 65.7038 79.3685C65.247 80.9847 65.493 82.4604 66.4416 84.2522C66.9686 85.236 67.074 85.6927 66.7578 86.1846C66.4416 86.6765 66.6524 87.0629 67.8118 88.3278C69.1469 89.7683 69.2172 89.944 68.6902 90.5061C68.0578 91.2088 68.2686 92.2277 69.0064 92.2277C69.2875 92.2277 70.2712 93.1412 71.1847 94.2303C72.6955 96.0925 72.7658 96.2681 72.2036 96.6897C71.6766 97.0762 71.6415 97.287 71.9577 97.814C72.309 98.4113 72.1333 98.6573 70.482 99.9924C68.8307 101.292 68.6551 101.573 69.0415 102.065C69.2875 102.346 69.6037 102.768 69.7091 102.979C69.8496 103.225 68.3037 104.806 65.9146 106.844C62.366 109.83 61.9444 110.322 62.3309 110.814C67.3551 116.681 69.6037 119.422 69.6037 119.668C69.6037 120.581 67.074 120.124 63.3498 118.473C60.8201 117.384 60.7498 117.384 60.258 118.051C59.3093 119.316 59.6607 120.124 61.4525 121.038C62.366 121.495 64.0876 122.197 65.3173 122.584C67.3551 123.286 67.4956 123.392 67.0389 123.989C66.5821 124.586 66.4767 124.586 63.666 123.708C62.0849 123.216 60.6093 122.795 60.3985 122.795C60.2228 122.795 59.5904 122.408 58.9931 121.916C58.431 121.424 57.7283 121.038 57.4472 121.038C56.8499 121.038 56.1472 122.373 55.2689 125.394C54.4257 128.135 54.5662 128.592 56.3229 128.943C56.9202 129.084 58.9229 129.962 60.785 130.911C63.9822 132.527 64.0876 132.597 62.5768 132.421C61.6985 132.281 60.2931 131.894 59.4499 131.543C58.6066 131.156 57.5878 130.875 57.1661 130.875C56.7445 130.875 56.2175 130.7 56.0067 130.489C55.2338 129.716 54.6013 130.454 54.1797 132.562C53.6176 135.127 53.7581 135.9 54.7067 135.97C55.1284 136.005 55.9364 136.427 56.4986 136.883C57.0607 137.375 58.5012 138.043 59.6958 138.394C61.5931 138.991 61.8741 139.167 61.8741 139.905C61.8741 140.713 61.7687 140.748 60.3985 140.572C59.5553 140.467 53.8284 140.045 47.6448 139.659C41.4611 139.237 35.5234 138.71 34.4694 138.429C33.4154 138.183 30.6398 137.867 28.3209 137.727C26.002 137.621 23.6832 137.445 23.121 137.34C22.4183 137.2 22.1724 137.27 22.1724 137.691C22.1724 138.008 21.8913 138.254 21.5049 138.254C21.1184 138.254 19.6076 138.816 18.0968 139.483C15.9536 140.467 14.9699 140.713 13.2132 140.713C11.8078 140.713 9.10245 141.205 5.62416 142.118C2.63774 142.856 0.143211 143.524 0.0378084 143.524C-0.735146 143.629 10.5781 147.916 12.5105 148.232C14.3375 148.548 15.5672 149.04 17.2887 150.129C18.5536 150.937 19.8887 151.605 20.24 151.605C20.5562 151.605 20.9076 151.886 21.013 152.237C21.1535 152.799 21.8211 152.94 27.0209 153.256C30.2533 153.467 33.4505 153.572 34.1181 153.467C35.2072 153.326 52.7392 154.415 58.1148 154.978L60.1174 155.188V158.631V162.075L55.5148 163.866C52.9852 164.85 50.8068 165.588 50.6663 165.518C50.5258 165.412 49.6123 163.269 48.6636 160.775C47.715 158.21 46.7664 156.172 46.5205 156.172C45.888 156.172 45.9583 156.91 46.7664 158.983L47.4691 160.775L46.3448 161.267L45.1854 161.723L44.9745 160.002C44.6583 157.718 44.4475 157.226 43.7448 157.226C43.3584 157.226 43.253 157.402 43.4286 157.823C43.5692 158.175 43.78 159.545 43.8503 160.915C44.0611 164.007 43.253 166.502 41.0395 169.628C39.6341 171.561 39.2125 171.912 37.245 172.65C36.0153 173.107 34.3289 173.845 33.4856 174.336C32.0803 175.145 32.01 175.25 32.6073 175.672C32.9586 175.918 33.1694 176.199 33.064 176.304C32.9586 176.374 32.2559 176.866 31.483 177.393L30.0776 178.377L31.9397 178.131C33.4505 177.92 33.7667 177.99 33.7667 178.412C33.7667 178.728 33.5559 179.044 33.3451 179.115C32.1857 179.571 35.3478 179.29 36.7883 178.799C37.6666 178.517 38.4396 178.307 38.4747 178.377C38.545 178.447 45.7826 197.455 46.3097 198.895C46.4151 199.141 45.9232 199.493 45.2556 199.703C43.7448 200.23 41.4611 201.847 42.3043 201.847C43.3232 201.847 42.9719 202.795 41.6719 203.603C41.0044 204.025 40.4422 204.447 40.4422 204.517C40.4422 204.622 41.2503 204.587 42.1989 204.447C43.9908 204.201 44.3421 204.447 43.534 205.325C42.8665 205.992 45.607 205.501 48.8745 204.341C51.1582 203.498 51.7555 203.428 53.4419 203.674C57.4121 204.271 61.3823 206.801 63.139 209.787C63.6308 210.63 64.193 211.333 64.3687 211.333C64.966 211.333 64.6849 210.173 63.6308 208.663C62.6471 207.187 62.6471 207.117 63.2795 206.765C64.5092 206.098 64.966 206.379 65.5984 208.206C66.1956 209.822 66.8983 210.63 67.3551 210.209C67.4253 210.103 66.6875 207.89 65.7038 205.22C64.6849 202.584 63.9471 200.371 64.0173 200.301C64.2984 200.09 71.255 197.631 71.6415 197.631C71.8523 197.631 72.6955 198.579 73.4684 199.739C74.2765 200.933 75.6116 202.725 76.49 203.814C78.1764 205.852 78.1764 206.238 76.6657 207.609C75.9278 208.276 75.8927 208.276 74.909 207.328C74.3468 206.765 73.7144 206.449 73.5387 206.555C73.363 206.66 72.6252 206.519 71.9225 206.238C69.2875 205.149 69.1469 205.536 70.5172 209.752C71.5361 212.914 73.1522 216.252 73.9603 216.919C74.4522 217.306 74.4171 217.481 73.7495 218.36L73.0117 219.379L72.0982 218.711C71.6063 218.325 70.5523 217.762 69.8145 217.481L68.4442 216.919L68.6902 218.606C68.7956 219.519 69.2875 220.854 69.7793 221.522L70.6577 222.716L69.7091 223.7C68.901 224.543 68.6902 224.614 68.2334 224.227C67.4956 223.595 65.7038 222.857 65.493 223.068C65.1416 223.419 65.774 225.668 66.4416 226.546C67.1091 227.354 67.1091 227.424 66.5119 227.987C65.9146 228.514 65.774 228.478 64.4741 227.846L63.1038 227.108L62.9984 228.022C62.9282 228.514 63.2092 229.462 63.5606 230.13C64.2633 231.254 64.2633 231.324 63.6308 231.886C63.0687 232.413 62.9282 232.413 61.839 231.746C61.1714 231.324 60.539 231.008 60.3985 231.008C59.9066 231.008 60.1174 232.238 60.8552 233.608C61.5228 234.873 61.5228 234.978 60.9606 235.611C60.4336 236.173 60.258 236.208 59.8012 235.821C59.485 235.54 58.958 235.224 58.6418 235.119C57.7986 234.838 57.7986 236.138 58.5715 237.297C59.0985 238.035 59.0985 238.14 58.6066 238.667C58.1148 239.159 57.904 239.159 57.131 238.738C55.9364 238.105 55.6202 238.562 56.3581 239.862C56.9553 240.881 56.9553 240.986 56.3932 241.583C55.8662 242.181 55.7256 242.216 55.1986 241.724C54.5311 241.127 53.4419 241.021 53.4419 241.548C53.4419 241.759 53.6878 242.427 54.0041 242.989C54.4257 243.797 54.4608 244.183 54.1446 244.535C53.7933 244.956 53.5824 244.956 52.8798 244.465C51.7906 243.762 51.5798 243.973 52.2122 245.062C53.1608 246.713 53.1608 246.854 52.5987 247.486C52.2825 247.837 52.0365 248.224 52.0365 248.329C52.0365 248.751 52.8446 248.575 53.4419 248.048C54.0041 247.556 54.1446 247.556 55.1284 248.118C56.4283 248.856 56.8851 248.54 56.1472 247.381C55.3392 246.186 56.077 245.554 57.4823 246.256C58.3958 246.748 59.4147 246.678 59.4147 246.151C59.4147 246.01 59.1688 245.554 58.8526 245.097C58.3256 244.359 58.3256 244.254 58.8526 243.727C59.3093 243.235 59.5553 243.235 60.1174 243.586C61.6282 244.535 62.4363 243.797 61.2769 242.532C60.7498 241.935 60.7498 241.865 61.3471 241.197C61.8039 240.705 62.1201 240.6 62.4363 240.846C62.6471 241.056 63.3498 241.373 63.9471 241.548C65.247 241.9 65.3876 241.408 64.3335 240.073C63.666 239.194 63.666 239.159 64.2984 238.597C64.9308 238.035 65.0714 238.035 66.0551 238.527C68.3037 239.686 69.2172 238.984 67.8118 237.192C67.1091 236.313 67.1091 236.208 67.6362 235.611C68.1983 234.978 68.2686 234.978 69.5334 235.611C70.2361 235.997 71.1144 236.278 71.4658 236.278C72.0279 236.278 72.0982 236.103 71.8874 235.294C71.782 234.767 71.3955 234.065 71.1144 233.713C70.5874 233.186 70.5874 233.046 71.1847 232.413C71.782 231.746 71.8874 231.746 72.4495 232.273C72.8009 232.589 73.8198 232.94 74.6981 233.046L76.3143 233.222L75.7522 231.886C75.4711 231.149 75.0144 230.305 74.8035 230.059C74.4873 229.673 74.5927 229.357 75.3306 228.654C76.1738 227.776 76.3143 227.776 76.8765 228.268C78.071 229.286 81.5493 230.059 81.5493 229.286C81.5493 228.549 80.671 226.546 80.0386 225.808C79.3007 225.035 79.3007 225 80.0034 224.333C80.671 223.7 80.7061 223.7 83.4817 225.035C86.3979 226.476 92.2653 228.162 92.6869 227.705C92.8274 227.565 92.6166 226.827 92.1599 226.089C91.7383 225.351 91.3869 224.192 91.3869 223.595C91.3869 222.927 91.1059 222.119 90.6842 221.697L89.9816 220.96L91.141 219.871L92.2653 218.746L95.5679 220.854C97.3949 222.014 98.9759 222.997 99.0462 223.068C99.257 223.279 98.0624 225.387 97.7462 225.387C97.6057 225.387 96.6922 226.757 95.7436 228.443C94.795 230.13 93.6707 231.816 93.249 232.168C92.8274 232.554 92.1599 233.608 91.7383 234.557C91.1761 235.927 90.8599 236.278 90.1924 236.278C89.7356 236.278 88.9978 236.559 88.541 236.946C88.0843 237.297 87.3113 237.719 86.8546 237.859C86.3979 238 85.5546 238.597 85.0276 239.194L84.0439 240.248L84.7465 241.267C85.3087 242.04 85.5898 242.181 86.1168 241.9C86.5735 241.654 86.7843 241.689 86.9249 242.005C87.2059 242.778 86.9249 247.732 86.5033 248.435C85.5898 250.051 85.5546 250.086 84.6763 249.629C83.8331 249.172 83.8331 249.172 84.5006 249.945C85.1682 250.683 85.1682 250.683 84.3249 250.718H83.4817L84.3601 251.07C85.2384 251.421 85.2384 251.456 84.5357 251.983C83.8682 252.51 83.8682 252.51 84.852 252.299C85.8006 252.054 85.8357 252.089 85.5898 253.037C85.379 253.986 85.379 253.986 86.0816 253.353C86.6438 252.826 86.8195 252.791 86.96 253.178C87.4167 254.618 87.4519 254.689 87.487 253.916C87.5222 253.037 87.8735 252.932 88.541 253.564C88.9275 253.951 88.9978 253.916 88.8221 253.389C88.6816 253.072 88.7167 252.791 88.8924 252.791C89.0329 252.791 89.1032 252.335 88.9978 251.808C88.9275 251.175 89.0681 250.648 89.4194 250.367C89.9113 249.945 89.9816 250.016 89.9816 250.718C89.9464 251.175 89.7005 252.194 89.4194 252.967C89.1383 253.74 88.6816 255.005 88.4356 255.778C87.487 258.624 86.4681 260.451 85.7303 260.626C85.2736 260.767 85.0628 261.048 85.133 261.469C85.1682 261.821 84.9574 262.488 84.606 262.98C84.2898 263.437 84.0087 263.964 84.0087 264.14C84.0087 264.737 85.9411 264.21 86.2925 263.507C86.4681 263.121 86.8897 262.805 87.1708 262.805C87.4519 262.805 87.733 262.488 87.8032 262.102C88.1897 259.678 90.9302 253.845 92.1599 252.862C92.8626 252.264 93.1436 251.737 93.1436 250.894C93.1436 250.262 93.3193 249.208 93.5652 248.575C94.1625 246.783 96.8679 242.075 99.2921 238.562C100.522 236.805 101.927 234.557 102.454 233.503C103.403 231.605 106.46 226.792 106.741 226.792C106.811 226.792 107.268 227.073 107.795 227.389C108.287 227.705 109.095 227.987 109.622 228.022C110.676 228.022 110.676 227.6 109.657 237.157C109.235 241.232 109.13 243.2 109.376 243.34C109.657 243.516 109.622 244.746 109.341 247.381C109.13 249.489 108.884 252.545 108.778 254.197C108.673 255.848 108.462 258.343 108.322 259.783C108.111 261.715 108.146 262.383 108.462 262.524C108.708 262.594 108.989 263.296 109.13 264.069C109.411 265.686 109.973 266.177 110.254 265.088C110.465 264.35 110.57 264.315 113.205 264.561C115.876 264.807 115.981 264.772 115.981 264.069C115.981 263.648 116.192 263.332 116.473 263.332C116.965 263.332 117.105 262.418 117.597 256.867L117.843 254.126L119.424 254.337C120.302 254.443 121.497 254.548 122.094 254.548C124.167 254.548 124.237 254.689 123.71 259.502C123.394 262.699 123.359 263.859 123.675 263.964C123.886 264.034 124.062 264.456 124.062 264.913C124.062 265.686 124.237 265.756 126.697 265.967C128.91 266.177 129.332 266.318 129.332 266.88C129.332 267.794 130.035 268.075 130.281 267.232C130.386 266.81 130.597 266.494 130.737 266.494C130.913 266.494 131.089 266.142 131.159 265.686C131.229 265.264 131.475 264.948 131.686 264.983C132.143 265.088 132.353 263.929 132.67 260.17C132.81 258.729 133.091 256.902 133.267 256.129C133.653 254.653 134.005 251.948 135.34 239.686L136.148 232.413H138.888C141.172 232.413 141.629 232.519 141.629 232.976C141.629 233.994 142.999 235.786 144.51 236.84C145.353 237.367 146.056 237.824 146.091 237.859C146.126 237.859 146.653 241.97 147.25 246.994C148.023 253.248 148.234 256.164 147.988 256.234C147.426 256.41 147.531 257.007 148.129 257.007C148.867 257.007 148.796 257.605 148.023 257.886C147.356 258.061 146.548 259.432 146.548 260.345C146.548 260.591 146.934 261.259 147.356 261.821C148.48 263.121 148.621 263.753 149.534 271.588L150.342 278.264L150.307 270.464C150.272 263.683 150.342 262.594 150.834 262.032C151.853 260.942 151.923 259.713 151.115 258.659C150.694 258.132 150.131 257.71 149.85 257.71C149.148 257.71 149.253 256.656 149.991 256.656C150.518 256.621 150.518 256.586 150.026 256.199C149.569 255.848 149.429 254.372 149.218 246.643L149.007 237.508L150.026 236.84C151.185 236.032 152.872 233.608 152.872 232.695C152.872 231.395 153.68 230.305 154.945 229.954C156.034 229.638 156.28 229.708 156.807 230.305C157.123 230.692 157.545 231.008 157.756 231.008C157.966 231.008 158.142 231.149 158.142 231.359C158.142 231.535 158.529 231.711 159.02 231.711C159.688 231.711 160.074 232.062 160.637 233.186C161.058 233.994 161.445 234.978 161.515 235.365C161.726 236.735 163.096 240.319 164.818 243.902L166.539 247.521L165.063 248.364C164.255 248.821 163.131 249.418 162.534 249.664C161.691 250.051 161.445 250.402 161.374 251.386C161.269 252.37 160.988 252.791 159.864 253.494C159.126 253.951 158.493 254.513 158.493 254.759C158.493 255.321 159.899 254.97 160.777 254.162C161.866 253.178 165.801 251.843 168.331 251.597L170.65 251.386L171.423 252.967C172.02 254.197 172.371 254.548 173.039 254.548C174.093 254.548 174.479 253.599 173.952 252.299C173.285 250.508 173.496 250.086 175.744 248.751C178.415 247.205 181.858 245.764 182.982 245.764C183.931 245.764 185.617 244.781 185.371 244.359C185.301 244.219 184.422 244.254 183.439 244.429C181.893 244.71 181.506 244.64 180.417 243.973C179.223 243.27 179.117 243.235 177.888 243.762C177.185 244.078 175.955 244.394 175.217 244.429L173.847 244.535L173.144 242.427C172.758 241.267 172.231 240.143 171.985 239.967C171.739 239.757 170.58 237.157 169.42 234.17C167.417 228.935 167.347 228.724 168.015 228.268C168.401 228.022 168.682 227.6 168.647 227.389C168.366 225.035 168.612 225.141 172.723 229.251L176.728 233.257L178.133 232.132C179.82 230.762 180.558 230.938 182.982 233.257C185.371 235.576 187.655 236.7 190.395 236.911C192.574 237.086 192.855 237.192 194.928 238.984C198.828 242.286 199.811 241.021 196.228 237.332C194.541 235.576 194.33 235.224 194.33 233.889C194.33 232.378 194.33 232.378 195.103 232.905C195.525 233.222 196.157 233.467 196.438 233.467C196.755 233.467 197.528 234.03 198.195 234.697C198.863 235.365 199.6 235.927 199.846 235.927C200.092 235.927 201.182 236.489 202.271 237.192C205.468 239.229 206.979 239.757 210.352 240.002C215.095 240.319 215.657 240.565 218.854 243.446C220.47 244.886 222.227 246.151 222.754 246.291C223.316 246.397 224.054 246.818 224.405 247.205C224.721 247.556 225.178 247.873 225.354 247.873C225.565 247.873 225.389 247.521 224.967 247.064C224.546 246.608 224.194 246.046 224.194 245.8C224.194 244.992 223.035 243.129 221.243 241.021C220.224 239.862 219.205 238.632 218.924 238.281C218.608 237.859 218.362 236.138 218.222 233.257C217.976 228.9 217.976 228.83 216.36 225.633C215.446 223.841 214.708 222.154 214.708 221.873C214.708 221.592 214.146 220.819 213.479 220.152C212.776 219.484 212.249 218.606 212.249 218.149C212.249 217.727 212.108 217.235 211.897 217.13C211.16 216.673 211.616 216.252 212.846 216.252C213.935 216.252 214.357 216.533 216.078 218.36C217.343 219.73 218.327 220.468 218.854 220.468C220.189 220.468 219.732 219.238 217.308 216.462C216.114 215.057 215.833 214.53 216.008 213.792C216.36 212.036 215.446 209.014 213.83 206.555C212.987 205.29 211.968 203.99 211.581 203.744C211.195 203.463 210.808 202.76 210.668 202.163C210.457 201.249 210.598 200.898 211.581 199.879L212.741 198.685L211.511 197.349C210.879 196.647 208.946 194.609 207.26 192.852C205.538 191.096 204.168 189.514 204.168 189.339C204.168 189.163 204.344 188.777 204.519 188.496C204.8 188.039 204.976 188.039 205.819 188.601C208.103 190.112 216.887 194.152 219.978 195.136C226.057 197.104 227.884 197.42 233.329 197.42C240.813 197.455 241.867 196.787 239.724 193.379C235.859 187.336 223.316 180.239 211.546 177.428C210.106 177.077 208.876 176.761 208.806 176.726C208.771 176.69 208.806 176.374 208.946 176.058C209.087 175.672 209.579 175.496 210.457 175.496C211.581 175.496 212.6 175.32 215.692 174.618C216.114 174.512 216.465 174.196 216.465 173.915C216.465 173.388 220.189 172.088 220.576 172.474C220.822 172.685 221.735 171.807 221.735 171.35C221.735 170.858 225.143 169.769 225.776 170.015C226.057 170.12 226.303 170.085 226.303 169.91C226.303 169.488 231.081 167.239 231.678 167.345C232.697 167.591 233.329 159.826 232.627 155.013C232.275 152.588 232.065 151.956 231.538 151.78C230.729 151.499 230.027 149.215 230.554 148.583C231.221 147.775 227.989 142.435 226.092 141.17C225.565 140.854 224.089 140.432 222.824 140.291C221.559 140.116 219.943 139.94 219.276 139.835C213.795 139.132 212.6 139.027 211.265 139.202C209.614 139.413 209.087 139.062 209.087 137.727C209.087 137.164 209.649 136.813 211.827 136.04C213.373 135.513 214.568 135.232 214.638 135.443C214.814 135.97 215.657 135.864 215.868 135.267C216.078 134.74 219.662 133.546 220.822 133.616C221.208 133.616 221.735 133.37 221.981 132.983C222.403 132.386 224.581 131.648 226.513 131.438C226.935 131.402 227.708 131.016 228.235 130.594C228.762 130.173 229.394 129.821 229.605 129.786C231.221 129.681 233.505 129.048 233.856 128.627C234.419 127.994 236 127.397 237.897 127.151C238.916 127.011 239.794 126.694 239.9 126.448C240.11 125.886 244.432 124.516 245.099 124.762C245.345 124.867 245.732 124.657 245.943 124.27C246.189 123.813 246.961 123.392 247.98 123.146C251.81 122.232 251.775 122.267 251.634 121.53C251.248 119.668 251.353 119.527 254.023 118.508C255.464 117.946 256.904 117.454 257.256 117.419C257.572 117.349 258.099 117.103 258.38 116.892C258.696 116.611 259.294 116.541 259.821 116.681C260.313 116.787 260.734 116.751 260.734 116.611C260.734 116.435 259.68 113.097 258.38 109.198C256.132 102.452 255.429 101.152 254.902 102.592C254.761 102.873 254.34 103.119 253.918 103.119C253.496 103.119 253.005 103.26 252.829 103.4C252.372 103.787 247.489 105.579 246.856 105.579C246.61 105.579 246.259 105.227 246.118 104.771C245.697 103.4 245.24 103.049 244.607 103.611C243.624 104.454 240.567 105.684 239.583 105.649C239.021 105.614 238.6 105.719 238.6 105.895C238.6 106.071 238.143 106.317 237.546 106.457C236.983 106.598 236.491 106.808 236.491 106.949C236.491 107.335 234.032 108.038 233.435 107.792C233.154 107.687 232.802 107.757 232.662 107.933C232.311 108.53 228.446 110.216 227.778 110.076C227.462 110.006 226.408 110.392 225.424 110.989C224.476 111.552 223.07 112.043 222.332 112.079C221.63 112.149 220.822 112.324 220.576 112.535C219.697 113.238 216.043 114.714 215.692 114.503C215.376 114.292 213.022 115.276 212.6 115.803C212.249 116.26 209.86 116.822 209.333 116.611C208.911 116.47 208.735 116.576 208.735 117.032C208.735 117.524 208.033 118.016 206.452 118.719C204.238 119.703 203.465 120.37 205.363 119.668C205.854 119.457 206.276 119.422 206.276 119.597C206.276 119.913 203.395 121.038 202.657 121.038C202.482 121.038 202.517 120.792 202.763 120.511C203.009 120.23 203.36 120.089 203.571 120.23C203.781 120.335 203.817 120.265 203.676 120.054C203.536 119.843 204.871 117.7 206.627 115.311C208.349 112.887 209.789 110.814 209.789 110.638C209.789 110.462 209.403 110.041 208.911 109.619L208.033 108.916L210.808 105.262C212.706 102.733 213.97 101.398 214.919 100.906C217.73 99.5005 219.592 96.9005 219.627 94.3709C219.627 92.8952 218.714 89.0656 217.835 87.0629C217.238 85.6225 217.238 85.5873 217.905 85.3765C219.03 85.0252 219.732 83.5847 219.522 82.2144C219.381 81.3009 219.451 80.9847 219.803 80.9847C220.435 80.9847 221.524 79.3685 221.208 78.8767C221.068 78.6659 221.349 78.2091 221.77 77.8578C222.262 77.4713 222.473 77.0145 222.332 76.6632C222.016 75.8551 220.435 75.8902 220.189 76.6632C220.084 77.0145 219.522 77.5767 218.924 77.8929C218.151 78.3145 217.87 78.7713 217.87 79.4388C217.87 80.0361 217.73 80.282 217.414 80.1766C216.465 79.8253 214.779 80.8793 214.392 82.109L214.006 83.2684L210.316 83.163C206.03 83.0225 203.781 83.5847 202.271 85.1657C201.287 86.1846 199.952 89.2413 199.952 90.5061C199.952 91.0331 196.755 95.706 194.436 98.5167C194.365 98.6221 194.155 98.5167 193.944 98.3059C193.487 97.8492 196.087 94.1601 197.984 92.5439C198.968 91.7007 199.038 91.525 198.687 90.2602C198.441 89.171 198.476 88.644 199.003 87.5548C199.355 86.7819 199.565 86.1143 199.495 86.0089C199.39 85.9387 198.792 86.29 198.195 86.8521C197.492 87.4846 196.544 87.9062 195.63 88.0116C194.436 88.1521 194.049 88.3981 193.628 89.2413C192.222 92.0169 188.393 96.5843 189.166 94.5466C189.657 93.2817 205.468 72.6228 206.417 72.0255C208.173 70.866 208.525 69.7418 207.857 67.3878C207.435 66.0175 207.4 65.3148 207.646 65.0689C207.857 64.8581 208.033 64.3311 208.033 63.8743C208.033 63.4176 208.173 63.0662 208.349 63.0662C208.525 63.0662 208.735 62.7852 208.876 62.4338C208.981 62.1176 209.192 61.6257 209.298 61.3798C209.403 61.1339 209.262 60.9582 208.946 60.9582C208.63 60.9582 208.384 61.0987 208.384 61.3095C208.384 61.4852 208.138 61.6609 207.857 61.6609C207.576 61.6609 207.33 61.9068 207.33 62.1879C207.33 62.469 207.119 62.7149 206.838 62.7149C206.557 62.7149 206.065 63.0662 205.784 63.4527C205.398 64.05 205.046 64.1554 204.238 64.0149C203.149 63.8041 200.76 64.2257 200.233 64.7527C200.057 64.9284 199.636 65.7716 199.319 66.6499C198.546 68.758 182.701 89.8737 182.244 89.4169C181.858 89.0305 184.422 85.4819 185.968 84.2171C187.022 83.3387 187.233 82.1793 186.566 80.9145C186.355 80.528 186.32 80.1064 186.495 79.9658C186.917 79.6496 187.725 77.7524 187.479 77.5416C187.374 77.4362 186.812 77.8226 186.214 78.3848C185.617 78.9469 184.879 79.3685 184.528 79.2983C183.439 79.1226 181.998 79.8956 181.577 80.9145C181.014 82.1793 178.098 86.2197 177.677 86.2549C177.15 86.2549 177.747 85.2711 180.312 81.8631C182.104 79.474 183.263 78.2794 184.282 77.7524C186.039 76.874 187.549 75.5389 188.252 74.1687C189.271 72.2363 188.639 67.3878 186.812 62.996C186.636 62.6095 186.776 62.3636 187.268 62.1879C188.252 61.9068 189.13 60.1501 188.885 59.0961C188.709 58.4637 188.885 58.1123 189.552 57.6556C190.185 57.2691 190.466 56.7772 190.466 56.0745C190.466 55.4772 190.676 54.9854 191.028 54.8448C191.344 54.7394 191.52 54.3178 191.449 53.8611C191.309 52.7368 189.622 52.7016 189.482 53.8259C189.412 54.3529 189.13 54.634 188.709 54.634C187.901 54.634 186.917 55.934 187.198 56.6015C187.339 56.9529 187.093 57.0934 186.355 57.0934C185.02 57.0934 183.895 57.9366 183.614 59.1312L183.404 60.115L180.101 59.9744C176.236 59.7988 173.952 60.2555 172.231 61.5555C170.931 62.5392 169.385 65.5256 169.385 67.0364C169.385 67.704 168.472 69.2147 166.504 71.8147L163.623 75.6794L162.78 74.9768C162.288 74.6254 161.831 74.3092 161.691 74.3092C161.585 74.3092 159.969 76.2767 158.142 78.701C153.821 84.3927 153.364 84.4279 150.483 79.3334C146.126 71.5687 145.845 70.9715 145.845 69.0742C145.845 67.5283 145.74 67.2823 145.142 67.2823C144.229 67.2823 143.702 66.404 142.226 62.3636C140.153 56.8123 139.521 54.1773 140.083 53.6503C140.786 52.9827 140.68 52.1395 139.872 51.9287C139.486 51.8233 139.17 51.5773 139.17 51.3314C139.17 51.1206 138.853 48.8017 138.467 46.2018C136.289 31.1643 135.059 13.7729 136.043 11.6297C136.675 10.2594 136.148 7.76489 135.129 7.20276C134.321 6.78113 134.286 6.53519 134.18 3.37311L134.075 0.000213623L133.794 3.33798ZM136.71 60.1501C136.921 61.2744 137.413 63.3473 137.764 64.7175L138.397 67.2823H134.04C131.651 67.2823 129.683 67.2121 129.683 67.1418C129.683 67.0364 130.07 65.35 130.562 63.3473C131.054 61.3447 131.44 59.3771 131.44 58.9204C131.44 58.1826 131.581 58.1474 133.864 58.1474H136.324L136.71 60.1501ZM136.429 74.6957C137.448 74.9065 138.888 75.3984 139.626 75.7849C141.207 76.5578 143.491 78.7713 144.229 80.2118L144.756 81.2307L138.186 81.055C132.389 80.9145 125.678 81.3009 123.64 81.8982C123.113 82.0739 123.078 81.9333 123.394 81.055C124.273 78.5253 127.751 75.6794 131.054 74.8011C133.126 74.2389 134.145 74.2038 136.429 74.6957ZM80.144 80.528C80.144 80.7739 80.0034 80.9847 79.8278 80.9847C79.3359 80.9847 77.2981 78.3145 77.5792 78.0334C77.8954 77.7524 80.144 79.9307 80.144 80.528ZM78.4926 82.1441C78.3872 82.3198 77.7548 81.8982 77.0521 81.2307C76.2792 80.4577 75.9278 79.8604 76.1035 79.5442C76.3143 79.228 76.7008 79.474 77.544 80.4577C78.1764 81.2307 78.598 81.9685 78.4926 82.1441ZM102.63 80.1766C103.333 81.0901 103.333 81.1604 102.77 81.582C101.892 82.2144 101.681 82.1793 101.014 81.1604C100.557 80.4577 100.522 80.1766 100.873 79.755C101.47 79.0172 101.752 79.0875 102.63 80.1766ZM76.0332 81.8279C76.9819 83.0225 77.2278 83.7955 76.7359 83.7955C76.3495 83.7955 74.5225 81.4766 74.5225 81.0199C74.5225 80.3172 75.0495 80.6334 76.0332 81.8279ZM84.3249 82.9522C85.8006 84.6738 85.9762 85.0252 85.4492 85.3414C85.0628 85.5873 82.252 82.4252 82.252 81.7577C82.252 80.9496 82.8844 81.3361 84.3249 82.9522ZM166.574 82.2496C166.574 82.7414 166.082 83.8657 165.45 84.709C164.466 86.0792 164.185 86.2549 163.412 86.0792C162.92 85.9387 162.428 85.7278 162.288 85.6225C162.147 85.4819 162.745 84.463 163.588 83.3387C165.345 81.1253 166.574 80.6685 166.574 82.2496ZM99.5732 84.2171C98.9759 84.8846 98.9408 84.8846 98.1327 83.9711C97.3597 83.0576 97.3597 82.9874 97.957 82.3198C98.5543 81.6523 98.5894 81.6523 99.3975 82.5658C100.17 83.4792 100.17 83.5495 99.5732 84.2171ZM74.5225 83.2684C75.3657 84.1468 75.6116 84.6035 75.3306 84.8846C75.0846 85.1306 74.6279 84.8495 73.8549 83.9009C72.0631 81.7225 72.555 81.2307 74.5225 83.2684ZM105.265 83.3036C105.792 84.1468 105.827 84.2873 105.3 84.7792C104.808 85.2711 104.668 85.2711 103.86 84.4982C103.052 83.7252 103.016 83.6198 103.579 83.0225C104.316 82.1793 104.562 82.2144 105.265 83.3036ZM83.6574 86.7467C83.2709 87.1332 82.6385 86.6413 81.1628 84.8144C80.5304 84.0063 80.2142 83.2684 80.3548 83.0225C80.5304 82.7414 81.1628 83.2333 82.3223 84.4982C83.4114 85.7278 83.9033 86.5008 83.6574 86.7467ZM72.9766 84.6738C73.5036 85.3765 73.8198 86.0089 73.6793 86.1495C73.3982 86.4657 71.3604 84.4982 71.3604 83.9009C71.3604 83.0928 71.9928 83.409 72.9766 84.6738ZM80.4953 86.29C81.5845 87.5548 81.9007 88.1521 81.6196 88.4332C81.2331 88.8197 80.7061 88.2926 78.6683 85.6927C78.1062 84.99 78.1413 84.4982 78.7737 84.4982C78.9143 84.4982 79.6872 85.3062 80.4953 86.29ZM96.6571 88.3981C97.3246 89.2764 97.3246 89.3467 96.7273 89.9088C96.1301 90.4358 95.9544 90.2953 94.1274 88.0467C92.2653 85.7981 92.1599 85.6225 92.722 85.0603C93.2842 84.4982 93.3896 84.5684 94.6544 85.9738C95.3571 86.817 96.2706 87.9062 96.6571 88.3981ZM71.4658 86.0441C72.4847 87.3792 72.5901 87.6602 72.0631 87.6602C71.6766 87.6602 69.6388 85.5522 69.6037 85.0954C69.6037 84.463 70.5874 84.9549 71.4658 86.0441ZM102.384 87.4143C101.822 87.9764 101.787 87.9764 100.979 87.2386C100.03 86.3251 99.9597 85.9387 100.768 85.3765C101.26 85.0252 101.47 85.0954 102.138 85.8684C102.876 86.7116 102.876 86.817 102.384 87.4143ZM172.547 86.5711C172.547 87.1684 172.196 88.0467 171.739 88.5737C171.001 89.4169 170.826 89.4521 170.053 89.0656C169.596 88.8197 169.139 88.5737 169.069 88.5034C168.823 88.2926 170.58 86.1846 171.282 85.9035C172.442 85.4116 172.547 85.4819 172.547 86.5711ZM70.6577 88.6089C70.6577 89.4169 70.0253 89.1007 69.1118 87.9062C67.7767 86.1846 67.9875 85.5873 69.428 86.9576C70.0956 87.6251 70.6577 88.3629 70.6577 88.6089ZM78.7737 88.0818C80.0737 89.6629 80.2494 90.225 79.2656 90.1548C78.9494 90.1196 76.2792 86.9576 76.2792 86.5711C76.2792 85.763 77.3683 86.3954 78.7737 88.0818ZM92.8977 89.2061C94.795 91.3493 94.8652 91.4547 94.2328 92.0169C93.6355 92.579 93.495 92.4736 91.5626 90.2953C89.9113 88.3981 89.6302 87.9062 89.9816 87.4846C90.2275 87.2035 90.5437 86.9576 90.6842 86.9576C90.8248 86.9576 91.8437 87.9764 92.8977 89.2061ZM78.0359 91.4196C78.071 92.4034 77.3683 92.0872 75.963 90.4358C74.9792 89.2764 74.5225 88.5034 74.663 88.117C74.8387 87.6602 75.2252 87.871 76.4549 89.2764C77.2981 90.225 78.0008 91.1737 78.0359 91.4196ZM89.8059 90.7169C92.1247 93.4574 92.195 93.5979 91.7031 94.1952C91.4923 94.4763 91.141 94.6519 91.0005 94.6168C90.8248 94.5466 89.841 93.4925 88.787 92.2628C87.0654 90.1899 86.9249 89.944 87.4519 89.5224C88.2951 88.8899 88.2951 88.8899 89.8059 90.7169ZM74.8387 91.2791C76.1386 92.7898 76.4197 93.6331 75.6116 93.6331C75.0846 93.6331 72.3793 90.1196 72.5901 89.7332C72.9414 89.2061 73.2225 89.4169 74.8387 91.2791ZM178.52 90.9277C178.52 91.3493 178.274 92.0872 177.958 92.5088C177.466 93.2466 177.36 93.2466 176.377 92.7196C175.463 92.2628 175.358 92.0872 175.744 91.5953C177.009 89.944 178.52 89.5575 178.52 90.9277ZM72.3441 92.298C73.9955 94.2303 74.2765 94.7222 73.9252 95.0736C73.5387 95.46 70.6577 92.298 70.6577 91.5601C70.6577 90.8575 71.3955 91.1737 72.3441 92.298ZM87.6978 93.4574C89.3491 95.3546 89.6302 95.8465 89.2789 96.2681C89.0329 96.5492 88.7167 96.7952 88.5762 96.7952C88.4005 96.7952 87.3816 95.7411 86.2573 94.4763C84.3249 92.2628 84.2547 92.1223 84.8871 91.6655C85.2384 91.3845 85.5898 91.1737 85.6249 91.1737C85.66 91.1737 86.5735 92.1926 87.6978 93.4574ZM140.926 92.2277C156.42 93.5628 169.982 99.8167 180.944 110.603C191.766 121.249 198.23 134.6 199.987 149.848C200.549 154.732 200.198 163.304 199.284 168.293C194.963 191.447 178.415 210.525 156.175 217.973C149.604 220.152 145.283 220.889 137.659 221.1C129.929 221.276 126.17 220.889 119.67 219.238C104.106 215.233 91.1059 205.992 82.0763 192.536C62.9633 164.042 69.5334 125.64 97.0084 104.911C107.724 96.8654 121.146 92.2628 134.953 91.9115C136.007 91.9115 138.713 92.052 140.926 92.2277ZM183.79 94.5114C183.79 94.8276 184.106 95.0384 184.528 95.0384C185.195 95.0384 185.266 95.179 185.055 96.1627C184.668 98.1654 184.141 98.3762 182.455 97.0762C180.769 95.7762 180.663 95.3195 181.752 94.5466C182.736 93.8439 183.79 93.8439 183.79 94.5114ZM83.0952 97.3573C84.6763 99.2194 84.9925 99.7816 84.6763 100.168C84.0087 100.976 83.552 100.73 81.5845 98.341C79.8278 96.1627 79.7575 96.0222 80.3548 95.5654C80.7412 95.2844 81.0574 95.0384 81.0574 95.0384C81.0926 95.0384 82.0061 96.0925 83.0952 97.3573ZM86.2573 96.3384C87.487 97.6735 87.487 97.6735 86.8195 98.3762C86.1168 99.0437 86.1168 99.0437 85.0628 97.8492C84.079 96.6546 83.7628 95.7411 84.2547 95.2844C84.6763 94.8628 84.9925 95.0384 86.2573 96.3384ZM81.0926 100.238C82.5331 101.89 82.5682 101.995 81.9358 102.557C81.3385 103.084 81.198 103.014 79.5467 101.117C77.2278 98.3762 77.1575 98.2357 77.8954 97.6735C78.4926 97.2519 78.6332 97.2519 79.0899 97.8492C79.371 98.2005 80.2845 99.2545 81.0926 100.238ZM190.114 99.9221C190.114 100.484 189.798 101.292 189.447 101.749C188.779 102.557 188.779 102.592 188.041 101.925C187.058 101.046 187.128 100.519 188.217 99.641C189.517 98.6221 190.114 98.6924 190.114 99.9221ZM77.9656 101.749C78.9845 102.944 79.7926 103.998 79.7926 104.173C79.7926 104.314 79.5467 104.665 79.2305 104.911C78.7737 105.298 78.598 105.262 78.1062 104.63C77.7548 104.208 76.8413 103.119 76.0332 102.171C74.909 100.836 74.663 100.309 74.9441 100.027C75.6819 99.2897 76.1386 99.5708 77.9656 101.749ZM75.5062 104.033C77.0521 105.895 77.3332 106.387 76.9819 106.808C76.7359 107.089 76.4197 107.335 76.2792 107.335C76.1386 107.335 75.1198 106.281 74.0306 105.017C72.4495 103.154 72.1333 102.592 72.4495 102.206C73.1171 101.398 73.5738 101.644 75.5062 104.033ZM196.087 104.103C196.087 104.665 195.595 105.79 194.998 106.598C193.979 108.038 193.909 108.073 193.241 107.476C192.89 107.16 192.574 106.633 192.574 106.317C192.609 105.227 194.436 103.541 196.017 103.154C196.052 103.119 196.087 103.576 196.087 104.103ZM243.167 106.106C243.167 106.246 240.813 107.335 240.497 107.335C240.005 107.335 240.497 106.562 241.164 106.281C242.008 105.93 243.167 105.825 243.167 106.106ZM251.986 106.281C252.829 106.738 252.864 108.108 252.056 108.811C251.248 109.443 248.437 110.533 248.051 110.322C247.805 110.146 247.243 108.284 247.207 107.546C247.207 107.371 248.016 106.949 248.964 106.598C251.107 105.86 251.142 105.86 251.986 106.281ZM70.3766 107.23C71.1496 107.933 71.1847 108.495 70.4469 109.127C69.955 109.549 69.7442 109.443 69.0415 108.565C68.3037 107.617 68.3037 107.511 68.8307 107.089C69.6037 106.527 69.6037 106.527 70.3766 107.23ZM244.572 107.335C244.572 107.511 244.326 107.687 244.045 107.687C243.764 107.687 243.518 107.827 243.518 108.003C243.518 108.179 243.132 108.425 242.675 108.53C242.218 108.635 241.586 108.846 241.27 108.952C240.918 109.092 240.708 108.987 240.708 108.635C240.708 108.144 241.726 107.652 243.694 107.23C244.08 107.125 244.432 107.054 244.502 107.019C244.537 107.019 244.572 107.125 244.572 107.335ZM202.06 108.495C202.06 109.268 199.003 113.976 198.511 114.011C198.371 114.011 198.019 113.624 197.703 113.133C197.106 112.254 197.141 112.184 198.371 110.462C200.373 107.757 202.06 106.879 202.06 108.495ZM237.194 108.249C237.194 108.425 234.981 109.443 234.559 109.443C233.997 109.443 234.524 108.741 235.367 108.46C236.456 108.038 237.194 107.968 237.194 108.249ZM245.275 109.233C245.275 109.689 243.87 110.498 242.218 111.025C241.551 111.2 241.41 111.095 241.41 110.533C241.41 109.97 241.797 109.689 243.097 109.303C245.205 108.635 245.275 108.635 245.275 109.233ZM67.4605 110.041C68.1632 110.919 68.1632 110.989 67.601 111.622C67.0389 112.254 67.0037 112.254 66.1956 111.481C65.2822 110.638 65.1768 110.146 65.8092 109.514C66.4065 108.916 66.6524 108.987 67.4605 110.041ZM238.037 109.97C237.194 110.603 235.121 111.341 234.84 111.095C234.454 110.673 235.192 110.146 236.773 109.654C238.635 109.127 239.056 109.198 238.037 109.97ZM73.2928 110.708C73.8549 111.552 73.8549 111.692 73.3279 112.184C72.8009 112.711 72.6955 112.676 71.8171 111.833C71.0442 111.025 70.9739 110.814 71.3604 110.357C71.9928 109.549 72.5901 109.654 73.2928 110.708ZM231.221 110.462C231.221 110.814 229.324 111.552 228.481 111.552C227.743 111.552 228.27 111.095 229.57 110.603C230.975 110.076 231.221 110.076 231.221 110.462ZM245.978 111.516C245.978 111.833 243.062 113.308 242.464 113.308C242.289 113.308 242.113 112.992 242.113 112.606C242.113 112.079 242.535 111.797 243.799 111.446C245.416 110.954 245.978 110.954 245.978 111.516ZM239.302 111.516C239.302 111.868 236.527 113.308 235.859 113.308C235.016 113.308 235.437 112.043 236.421 111.657C237.616 111.165 239.302 111.095 239.302 111.516ZM231.362 112.465C229.921 113.343 228.762 113.554 228.762 112.957C228.762 112.5 230.8 111.657 231.889 111.657C232.627 111.657 232.592 111.727 231.362 112.465ZM70.2361 113.308L71.0442 114.327L70.2712 114.714C69.6739 115.065 69.3929 114.995 68.6902 114.327C67.9172 113.589 67.8821 113.484 68.4442 112.887C69.1821 112.079 69.2875 112.079 70.2361 113.308ZM224.019 113.343C223.246 113.695 222.473 113.87 222.297 113.73C221.84 113.484 224.616 112.289 225.073 112.535C225.249 112.641 224.792 113.027 224.019 113.343ZM246.68 113.66C246.68 113.976 243.87 115.416 243.237 115.416C242.991 115.416 242.816 115.1 242.816 114.714C242.816 114.187 243.237 113.906 244.502 113.554C246.153 113.062 246.68 113.062 246.68 113.66ZM233.329 113.66C233.329 114.151 231.502 115.135 230.554 115.206C229.219 115.276 229.113 114.608 230.343 114.011C231.502 113.449 233.329 113.203 233.329 113.66ZM240.005 113.624C240.005 113.976 237.229 115.416 236.562 115.416C235.613 115.416 236.175 114.116 237.3 113.73C238.74 113.273 240.005 113.238 240.005 113.624ZM226.654 113.941C226.654 114.151 225.143 114.924 223.246 115.662C223 115.768 222.789 115.592 222.789 115.311C222.789 114.819 223.878 114.222 225.424 113.906C226.548 113.66 226.654 113.66 226.654 113.941ZM254.34 115.135C254.445 115.978 254.269 116.119 252.442 116.787C251.353 117.208 250.405 117.489 250.299 117.419C250.229 117.314 250.124 116.822 250.088 116.26C250.018 115.416 250.194 115.206 251.599 114.643C253.602 113.87 254.199 113.976 254.34 115.135ZM218.924 114.995C218.924 115.346 216.5 116.26 216.219 116.014C216.008 115.803 217.87 114.749 218.503 114.714C218.714 114.714 218.924 114.854 218.924 114.995ZM227.357 116.049C227.357 116.189 226.548 116.681 225.565 117.138C224.124 117.77 223.703 117.841 223.457 117.489C223.035 116.787 223.738 116.189 225.354 115.838C226.83 115.522 227.357 115.592 227.357 116.049ZM234.032 115.768C234.032 116.26 232.205 117.243 231.256 117.314C229.956 117.384 229.886 116.751 231.151 116.119C232.346 115.557 234.032 115.346 234.032 115.768ZM240.708 115.697C240.708 116.084 238.108 117.524 237.405 117.524C236.351 117.524 236.773 116.224 238.002 115.838C239.408 115.381 240.708 115.311 240.708 115.697ZM247.383 115.733C247.383 116.084 244.607 117.524 243.94 117.524C243.097 117.524 243.518 116.26 244.502 115.873C245.697 115.381 247.383 115.311 247.383 115.733ZM220.259 116.4C219.908 116.47 219.627 116.646 219.627 116.822C219.627 116.962 219.241 117.208 218.784 117.314C218.327 117.419 217.695 117.63 217.378 117.735C217.027 117.876 216.816 117.77 216.816 117.384C216.816 116.787 219.873 115.697 220.505 116.049C220.716 116.189 220.576 116.33 220.259 116.4ZM212.952 117.138C212.952 117.524 210.527 118.368 210.246 118.087C210.141 117.981 210.562 117.665 211.23 117.384C212.635 116.751 212.952 116.716 212.952 117.138ZM221.384 118.262C221.384 118.438 221.138 118.578 220.857 118.578C220.576 118.578 220.33 118.719 220.33 118.859C220.33 119.351 217.835 120.089 217.449 119.703C216.887 119.141 217.414 118.614 219.205 118.087C220.857 117.595 221.384 117.63 221.384 118.262ZM228.059 118.157C228.059 118.368 224.897 119.984 224.44 119.984C224.335 119.984 224.194 119.738 224.054 119.457C223.843 118.895 224.827 118.227 226.478 117.876C227.567 117.63 228.059 117.735 228.059 118.157ZM234.735 118.016C234.735 118.614 231.467 119.949 230.975 119.562C230.378 119.105 230.694 118.649 231.959 118.122C233.365 117.559 234.735 117.489 234.735 118.016ZM241.41 117.876C241.41 118.297 239.724 119.281 238.6 119.527C237.124 119.808 237.159 118.719 238.67 118.087C239.864 117.559 241.41 117.454 241.41 117.876ZM248.086 117.805C248.086 118.192 245.486 119.632 244.783 119.632C243.729 119.632 244.151 118.332 245.38 117.946C246.786 117.489 248.086 117.419 248.086 117.805ZM209.087 118.543C209.087 118.719 208.771 118.93 208.384 119.035C207.611 119.246 207.4 118.754 208.138 118.473C208.806 118.192 209.087 118.192 209.087 118.543ZM213.83 118.895C212.319 119.878 210.843 120.195 210.843 119.562C210.843 119 212.53 118.332 214.006 118.262C214.884 118.227 214.884 118.262 213.83 118.895ZM222.086 120.37C222.086 120.546 221.84 120.686 221.559 120.686C221.278 120.686 221.032 120.827 221.032 120.968C221.032 121.459 218.538 122.197 218.151 121.811C217.589 121.249 218.116 120.722 219.908 120.195C221.559 119.703 222.086 119.738 222.086 120.37ZM228.762 120.37C228.762 120.546 228.516 120.686 228.235 120.686C227.954 120.686 227.708 120.827 227.708 121.003C227.708 121.178 227.321 121.424 226.865 121.53C226.408 121.635 225.776 121.811 225.494 121.951C225.213 122.057 224.897 121.881 224.792 121.6C224.546 121.003 225.494 120.37 227.181 119.984C228.305 119.738 228.762 119.843 228.762 120.37ZM235.402 120.441C235.332 120.511 234.559 120.897 233.716 121.319C232.556 121.881 232.029 121.986 231.678 121.67C230.975 121.108 231.713 120.405 233.435 120.054C234.7 119.808 235.929 120.054 235.402 120.441ZM242.113 120.124C242.113 120.546 239.654 121.74 238.775 121.74C237.827 121.74 238.213 120.686 239.337 120.265C240.743 119.668 242.113 119.597 242.113 120.124ZM247.875 120.37C246.505 121.213 244.924 121.6 244.924 121.073C244.924 120.546 246.856 119.703 248.016 119.703H248.859L247.875 120.37ZM215.235 120.335C215.481 120.757 212.319 122.197 211.722 121.951C210.879 121.635 211.125 121.073 212.354 120.581C213.619 120.019 214.989 119.913 215.235 120.335ZM210.141 121.776C210.141 121.951 209.789 122.092 209.403 122.092C208.771 122.092 208.735 122.022 209.087 121.565C209.508 121.038 210.141 121.143 210.141 121.776ZM247.559 122.303C246.399 122.795 244.994 122.935 245.416 122.513C245.872 122.092 247.875 121.459 248.261 121.67C248.437 121.776 248.121 122.092 247.559 122.303ZM228.938 122.935C228.586 123.181 227.743 123.603 227.075 123.849C226.092 124.2 225.811 124.2 225.565 123.813C225.143 123.146 225.459 122.865 227.286 122.303C229.113 121.776 230.027 122.127 228.938 122.935ZM236.14 122.408C236.14 122.724 234.454 123.603 233.119 123.989C232.029 124.305 231.713 123.286 232.732 122.724C234.313 121.881 236.14 121.705 236.14 122.408ZM242.675 122.057C242.394 122.478 240.181 123.497 239.478 123.497C238.354 123.497 239.197 122.619 240.743 122.197C242.71 121.67 242.886 121.67 242.675 122.057ZM207.33 122.408C207.33 122.795 204.203 123.989 203.922 123.708C203.746 123.532 205.538 122.654 207.26 122.127C207.295 122.092 207.33 122.232 207.33 122.408ZM215.938 122.443C216.184 122.865 213.057 124.305 212.389 124.059C211.546 123.743 211.968 123.076 213.268 122.619C214.779 122.127 215.692 122.057 215.938 122.443ZM222.789 122.408C222.789 122.9 219.697 124.305 219.1 124.059C218.257 123.743 218.503 123.146 219.732 122.619C220.997 122.057 222.789 121.916 222.789 122.408ZM236.843 124.13C236.843 124.516 233.365 126.027 232.978 125.781C232.381 125.394 232.943 124.938 234.664 124.411C236.632 123.813 236.843 123.778 236.843 124.13ZM242.289 124.165C242.078 124.305 241.41 124.621 240.813 124.832C239.478 125.289 239.162 124.727 240.462 124.2C241.481 123.778 242.71 123.743 242.289 124.165ZM216.641 124.586C216.957 125.043 213.83 126.448 213.127 126.167C212.249 125.851 212.67 125.184 213.97 124.727C215.516 124.235 216.395 124.165 216.641 124.586ZM223.492 124.516C223.492 125.008 220.4 126.413 219.803 126.167C218.959 125.851 219.205 125.289 220.435 124.762C221.735 124.2 223.492 124.059 223.492 124.516ZM230.167 124.516C230.167 124.867 227.392 126.308 226.759 126.308C226.548 126.308 226.267 126.062 226.162 125.746C226.021 125.394 226.303 125.078 227.111 124.727C228.375 124.165 230.167 124.059 230.167 124.516ZM211.195 124.903C211.195 125.078 210.843 125.254 210.422 125.254C209.754 125.254 209.719 125.184 210.141 124.903C210.808 124.446 211.195 124.446 211.195 124.903ZM61.9795 126.624C65.5281 128.17 65.5632 128.205 65.1416 128.873C64.8957 129.294 64.2984 129.154 61.5228 128.135C59.6958 127.467 58.1499 126.87 58.0796 126.835C57.9391 126.73 58.6769 125.254 58.8175 125.254C58.8877 125.254 60.2931 125.851 61.9795 126.624ZM208.384 125.781C208.384 126.062 205.819 127.046 205.433 126.905C205.222 126.8 205.608 126.519 206.276 126.203C207.541 125.64 208.384 125.465 208.384 125.781ZM236.316 126.273C236.07 126.694 233.681 127.503 233.435 127.257C233.189 127.011 235.121 125.992 235.894 125.957C236.246 125.957 236.456 126.097 236.316 126.273ZM217.168 126.835C217.203 127.362 214.989 128.451 214.216 128.346C213.057 128.17 213.233 127.467 214.568 126.94C216.043 126.343 217.168 126.308 217.168 126.835ZM224.194 126.659C224.194 126.87 223.492 127.362 222.649 127.784C221.138 128.521 219.803 128.451 220.049 127.643C220.33 126.87 224.194 125.957 224.194 126.659ZM230.448 126.554C230.097 126.624 229.816 126.835 229.816 126.975C229.816 127.467 227.321 128.17 226.935 127.784C226.443 127.292 228.516 126.343 229.992 126.378C230.589 126.378 230.765 126.448 230.448 126.554ZM212.249 128.03C212.249 128.205 211.933 128.416 211.546 128.521C210.773 128.732 210.562 128.24 211.3 127.959C211.968 127.678 212.249 127.678 212.249 128.03ZM230.167 128.381C230.167 128.802 228.2 129.575 227.638 129.365C227.392 129.259 227.708 128.978 228.411 128.662C229.851 127.994 230.167 127.959 230.167 128.381ZM218.046 129.119C217.976 129.259 217.132 129.751 216.254 130.173C214.919 130.77 214.533 130.84 214.322 130.454C213.83 129.716 213.935 129.54 215.165 129.154C217.414 128.451 218.468 128.451 218.046 129.119ZM224.897 128.662C224.897 128.908 221.946 130.173 221.313 130.173C220.295 130.173 220.611 129.575 221.876 129.084C223.07 128.592 224.897 128.346 224.897 128.662ZM209.438 129.048C209.438 129.4 206.944 130.243 206.662 129.997C206.522 129.821 208.63 128.802 209.192 128.767C209.333 128.767 209.438 128.908 209.438 129.048ZM224.194 130.559C224.194 130.875 222.438 131.683 221.911 131.613C221.173 131.473 222.297 130.735 224.124 130.208C224.159 130.173 224.194 130.348 224.194 130.559ZM218.046 131.332C216.816 132.07 215.095 132.597 214.884 132.316C214.603 131.859 215.516 131.262 217.027 130.946C218.608 130.594 219.03 130.77 218.046 131.332ZM213.303 131.402C213.303 131.719 212.987 131.929 212.565 131.929C211.933 131.929 211.897 131.859 212.249 131.402C212.495 131.121 212.811 130.875 212.987 130.875C213.162 130.875 213.303 131.121 213.303 131.402ZM209.825 132.808C209.192 133.089 208.384 133.335 208.068 133.3C207.295 133.265 209.438 132.316 210.316 132.316C210.808 132.316 210.633 132.456 209.825 132.808ZM218.222 132.948C218.222 133.124 217.835 133.37 217.378 133.475C216.922 133.581 216.289 133.792 215.973 133.897C215.657 134.002 215.411 133.967 215.411 133.756C215.411 133.546 215.833 133.229 216.395 133.054C217.624 132.597 218.222 132.562 218.222 132.948ZM59.6958 134.564C62.7525 135.794 63.2092 136.11 62.7174 136.567C62.366 136.954 55.55 133.932 55.55 133.405C55.55 133.124 55.7608 132.983 56.0067 133.089C56.2175 133.194 57.904 133.827 59.6958 134.564ZM214.357 134.389C214.357 134.564 214.006 134.74 213.584 134.74C212.916 134.74 212.881 134.67 213.303 134.389C213.97 133.932 214.357 133.932 214.357 134.389ZM211.546 135.267C211.546 135.408 209.192 136.497 208.876 136.497C208.806 136.497 208.735 136.356 208.735 136.181C208.735 136.005 209.157 135.689 209.719 135.513C210.773 135.092 211.546 135.021 211.546 135.267ZM30.9911 140.818C32.6776 141.908 33.8721 144.367 33.591 146.159C32.7478 151.675 25.5804 153.01 23.0508 148.056C22.2075 146.475 22.3832 143.91 23.367 142.435C25.0183 140.01 28.6371 139.237 30.9911 140.818ZM224.194 147.74C224.194 148.337 223.949 148.443 222.789 148.443C221.63 148.443 221.384 148.337 221.384 147.74C221.384 147.143 221.63 147.037 222.789 147.037C223.949 147.037 224.194 147.143 224.194 147.74ZM213.9 147.951C214.181 148.688 213.373 149.18 212.073 149.075C211.265 149.005 210.984 148.759 210.914 148.161C210.808 147.459 210.949 147.389 212.249 147.389C213.233 147.389 213.76 147.564 213.9 147.951ZM219.627 148.618C220.295 149.391 219.732 149.848 218.046 149.848C216.57 149.848 215.797 149.215 216.324 148.407C216.641 147.88 219.135 148.056 219.627 148.618ZM224.476 149.742C224.405 150.199 223.984 150.41 223.035 150.48C221.911 150.586 221.735 150.48 221.735 149.883C221.735 149.251 221.946 149.145 223.176 149.145C224.335 149.145 224.581 149.251 224.476 149.742ZM213.83 150.726C213.83 151.288 213.549 151.464 212.53 151.534C211.3 151.64 211.195 151.569 211.195 150.726C211.195 149.883 211.3 149.813 212.53 149.918C213.549 149.988 213.83 150.164 213.83 150.726ZM219.803 151.429C219.803 152.026 219.522 152.132 218.151 152.237C216.711 152.342 216.465 152.272 216.465 151.675C216.465 150.691 216.816 150.515 218.397 150.621C219.522 150.691 219.803 150.867 219.803 151.429ZM225.073 151.956C225.073 152.307 224.616 152.518 223.597 152.588C222.262 152.694 222.086 152.624 222.086 151.956C222.086 151.288 222.262 151.218 223.597 151.324C224.616 151.394 225.073 151.605 225.073 151.956ZM214.533 153.01C214.919 153.642 213.97 154.415 212.776 154.415C211.722 154.415 211.195 153.959 211.195 152.975C211.195 152.518 214.251 152.588 214.533 153.01ZM220.224 153.572C220.505 154.31 220.049 154.626 218.468 154.872C217.062 155.083 216.535 154.626 216.957 153.537C217.238 152.799 219.908 152.799 220.224 153.572ZM225.424 154.415C225.424 154.767 224.967 154.978 223.949 155.048C222.613 155.153 222.438 155.083 222.438 154.415C222.438 153.748 222.613 153.678 223.949 153.783C224.967 153.853 225.424 154.064 225.424 154.415ZM214.603 156.032C214.884 156.769 214.146 157.226 212.706 157.226C211.687 157.226 211.546 157.121 211.546 156.348C211.546 155.54 211.687 155.469 212.952 155.469C213.935 155.469 214.462 155.645 214.603 156.032ZM220.435 156.313C220.751 157.086 219.943 157.577 218.327 157.577C216.957 157.577 216.816 157.507 216.816 156.699C216.816 155.891 216.922 155.821 218.538 155.821C219.662 155.821 220.33 155.996 220.435 156.313ZM225.424 156.875C225.424 157.226 225.003 157.437 224.124 157.507C222.965 157.613 222.789 157.507 222.789 156.875C222.789 156.242 222.965 156.137 224.124 156.242C225.003 156.313 225.424 156.523 225.424 156.875ZM214.568 158.702C214.919 159.229 213.724 160.037 212.6 160.037C211.441 160.037 211.23 159.826 211.441 158.948C211.581 158.421 211.933 158.28 212.987 158.28C213.724 158.28 214.427 158.456 214.568 158.702ZM220.33 159.299C220.33 160.037 219.662 160.388 218.187 160.388C217.343 160.388 217.168 160.248 217.168 159.51C217.168 158.702 217.308 158.631 218.749 158.631C220.049 158.631 220.33 158.737 220.33 159.299ZM225.811 159.053C226.162 159.615 224.897 160.423 223.843 160.318C223.246 160.248 222.93 159.967 222.859 159.404C222.754 158.702 222.895 158.631 224.159 158.631C224.932 158.631 225.67 158.807 225.811 159.053ZM214.533 161.442C214.954 162.11 213.97 162.848 212.741 162.848C212.073 162.848 211.546 162.707 211.546 162.531C211.546 162.356 211.441 161.969 211.335 161.653C211.16 161.196 211.406 161.091 212.706 161.091C213.584 161.091 214.427 161.267 214.533 161.442ZM220.259 161.548C220.857 162.25 220.295 162.707 218.678 162.988C217.273 163.199 217.168 163.164 217.168 162.391C217.168 161.934 217.273 161.442 217.414 161.337C217.8 160.915 219.873 161.056 220.259 161.548ZM225.6 162.145C225.6 162.707 225.354 162.848 224.37 162.848C223.386 162.848 223.14 162.707 223.14 162.145C223.14 161.583 223.386 161.442 224.37 161.442C225.354 161.442 225.6 161.583 225.6 162.145ZM214.708 164.569C214.708 165.307 214.041 165.658 212.565 165.658C211.722 165.658 211.546 165.518 211.546 164.78C211.546 163.972 211.687 163.902 213.127 163.902C214.427 163.902 214.708 164.007 214.708 164.569ZM220.295 164.358C220.857 165.061 220.049 165.658 218.503 165.658C217.308 165.658 217.168 165.553 217.168 164.78C217.168 164.007 217.308 163.902 218.538 163.902C219.276 163.902 220.049 164.112 220.295 164.358ZM225.776 164.604C225.776 164.956 225.319 165.166 224.3 165.237C222.965 165.342 222.789 165.272 222.789 164.604C222.789 163.937 222.965 163.866 224.3 163.972C225.319 164.042 225.776 164.253 225.776 164.604ZM49.7879 166.888C49.9285 167.38 49.9636 167.872 49.8933 167.942C49.7177 168.083 41.4963 171.28 41.2854 171.28C41.18 171.28 41.6017 170.577 42.1638 169.769C43.0773 168.434 43.6043 168.083 46.134 167.134C47.7502 166.537 49.1555 166.045 49.2961 166.045C49.4366 166.01 49.6474 166.396 49.7879 166.888ZM214.884 167.239C214.884 167.837 214.603 167.942 213.233 168.047C211.616 168.153 211.546 168.118 211.546 167.239C211.546 166.361 211.616 166.326 213.233 166.431C214.603 166.537 214.884 166.642 214.884 167.239ZM220.154 167.239C220.154 167.802 219.873 167.977 218.678 168.047C217.378 168.153 217.168 168.047 217.168 167.485C217.168 166.537 217.519 166.326 218.924 166.431C219.873 166.502 220.154 166.677 220.154 167.239ZM225.6 166.853C225.6 167.415 224.862 167.766 223.632 167.766C223.035 167.766 222.789 167.556 222.789 167.064C222.789 166.466 223.035 166.361 224.194 166.361C225.178 166.361 225.6 166.502 225.6 166.853ZM224.862 168.434C225.6 168.891 225.038 169.418 223.667 169.593C222.684 169.699 222.438 169.628 222.438 169.137C222.438 168.293 223.949 167.872 224.862 168.434ZM219.768 168.68C220.084 168.785 220.33 169.101 220.33 169.347C220.33 169.91 219.557 170.226 218.187 170.226C216.781 170.226 216.711 168.926 218.151 168.715C218.678 168.645 219.135 168.539 219.17 168.504C219.205 168.504 219.451 168.574 219.768 168.68ZM214.814 169.066C215.27 169.523 214.251 170.226 213.092 170.226C212.143 170.226 211.897 170.085 211.897 169.523C211.897 168.926 212.143 168.82 213.233 168.82C213.97 168.82 214.708 168.926 214.814 169.066ZM219.803 170.928C220.049 171.315 218.573 171.982 217.484 171.982C216.746 171.982 216.57 171.104 217.273 170.823C218.046 170.507 219.592 170.577 219.803 170.928ZM214.884 171.28C215.06 171.561 214.673 171.701 212.53 172.158C212.108 172.228 211.897 172.053 211.897 171.596C211.897 171.069 212.143 170.928 213.268 170.928C214.041 170.928 214.779 171.069 214.884 171.28ZM62.5065 175.742C63.139 178.236 64.5092 182.347 65.5281 184.912L67.4253 189.585L66.3011 190.042C64.6497 190.744 62.5417 191.377 62.4363 191.236C62.4011 191.201 61.1363 189.339 59.6607 187.196L56.9553 183.225L56.2878 178.412C55.9364 175.742 55.7256 173.458 55.8662 173.318C56.1121 173.037 60.4688 171.35 61.0309 171.315C61.2066 171.28 61.9093 173.282 62.5065 175.742ZM214.884 172.65C215.13 173.107 214.814 173.282 213.197 173.564C212.143 173.774 211.897 173.704 211.897 173.282C211.897 173.001 212.108 172.65 212.354 172.58C213.092 172.264 214.673 172.334 214.884 172.65ZM55.4446 183.823C57.6229 189.55 59.3093 194.328 59.1688 194.468C58.8877 194.714 52.2473 197.209 49.9987 197.947C49.1204 198.228 48.8042 198.193 48.6988 197.876C48.5934 197.631 46.8015 192.958 44.6935 187.442L40.8638 177.428L41.8125 176.936C43.2178 176.163 51.123 173.072 51.2987 173.247C51.369 173.318 53.2311 178.061 55.4446 183.823ZM214.954 181.363C216.149 182.242 217.062 183.12 216.957 183.261C216.851 183.436 216.078 183.577 215.235 183.577C213.9 183.577 213.373 183.331 211.581 181.925C210.422 181.012 209.579 180.134 209.649 179.993C209.754 179.817 210.492 179.712 211.3 179.712C212.495 179.712 213.197 180.028 214.954 181.363ZM217.73 180.415C218.854 180.836 220.259 181.539 220.822 181.996L221.84 182.804L220.224 183.05C218.538 183.296 218.222 183.155 214.568 179.993C213.935 179.466 215.587 179.712 217.73 180.415ZM212.284 183.436C212.565 183.788 212.46 183.928 211.827 184.069C209.262 184.596 208.911 184.561 207.892 183.752C206.873 182.944 206.873 182.874 207.295 181.469L207.717 180.028L209.789 181.504C210.949 182.312 212.073 183.19 212.284 183.436ZM207.646 184.525C207.717 184.596 207.471 184.631 207.049 184.631C206.557 184.631 206.276 184.42 206.276 184.069C206.276 183.577 206.381 183.542 206.908 183.963C207.225 184.209 207.576 184.49 207.646 184.525ZM225.951 186.247C226.935 187.16 227.708 188.004 227.708 188.144C227.708 188.285 226.97 188.531 226.092 188.671C224.476 188.917 224.44 188.882 222.543 187.02C220.751 185.263 220.681 185.158 221.454 184.912C223.422 184.385 224.194 184.596 225.951 186.247ZM229.605 186.036C230.589 186.598 231.783 187.406 232.275 187.793L233.154 188.531L231.046 188.285C229.113 188.074 228.797 187.933 227.181 186.317L225.424 184.561L226.619 184.771C227.251 184.877 228.621 185.439 229.605 186.036ZM221.384 186.915C222.403 187.969 223.211 188.882 223.105 188.952C223.035 189.023 222.227 189.198 221.349 189.304C219.768 189.514 219.732 189.479 217.87 187.617C215.903 185.615 215.903 185.509 218.046 185.228C218.643 185.158 219.17 185.052 219.276 185.017C219.381 185.017 220.33 185.861 221.384 186.915ZM216.781 187.582C218.819 189.655 218.749 189.901 216.078 189.901C214.884 189.901 214.322 189.62 212.741 188.25C211.722 187.336 210.949 186.528 211.019 186.423C211.195 186.282 213.057 185.896 214.533 185.72C214.743 185.72 215.762 186.528 216.781 187.582ZM211.476 188.144L213.338 189.901H211.862C210.738 189.901 209.684 189.514 207.752 188.39L205.117 186.915L206.662 186.704C209.403 186.317 209.579 186.388 211.476 188.144ZM231.116 192.114C231.748 192.958 232.135 193.766 232.029 193.906C231.924 194.012 231.221 194.117 230.519 194.117C229.394 194.117 229.008 193.871 227.743 192.396L226.303 190.639L227.954 190.533C228.902 190.463 229.711 190.463 229.816 190.498C229.921 190.533 230.519 191.236 231.116 192.114ZM235.437 191.131L236.246 192.009H235.473C234.805 192.009 234.77 192.114 235.086 192.712C235.402 193.309 235.332 193.414 234.489 193.625C233.716 193.836 233.4 193.695 232.521 192.677C230.589 190.393 230.624 190.252 232.732 190.252C234.278 190.252 234.77 190.393 235.437 191.131ZM226.97 192.606L228.411 194.293L226.548 194.574L224.721 194.855L223.246 193.204C221.559 191.306 221.7 190.955 224.089 190.955C225.389 190.955 225.705 191.131 226.97 192.606ZM222.086 193.063C222.965 194.117 223.351 194.82 223.07 194.82C222.016 194.82 218.011 193.274 217.238 192.571L216.395 191.833L217.765 191.623C220.435 191.201 220.576 191.236 222.086 193.063ZM62.5065 200.055L62.8579 201.074L59.6958 202.303C56.8499 203.393 56.3932 203.463 55.1635 203.111C54.4257 202.901 53.7581 202.62 53.6527 202.514C53.477 202.374 61.066 199.212 61.9444 199.071C62.0498 199.036 62.3309 199.493 62.5065 200.055ZM209.789 205.395C209.789 206.484 209.052 206.519 207.998 205.501C207.049 204.587 207.014 204.482 207.576 203.884C208.138 203.252 208.173 203.252 208.981 204.025C209.438 204.447 209.789 205.044 209.789 205.395ZM198.406 209.295C198.722 210.279 197.914 211.333 196.86 211.333C196.228 211.333 195.384 210.806 194.084 209.506C193.066 208.487 192.222 207.538 192.222 207.363C192.222 207.187 192.644 206.519 193.206 205.887L194.155 204.763L196.192 206.695C197.282 207.784 198.301 208.944 198.406 209.295ZM206.171 206.836C207.752 208.311 206.768 209.822 205.081 208.487C204.098 207.714 203.957 207.117 204.59 206.484C205.152 205.922 205.222 205.922 206.171 206.836ZM195.033 215.268C195.033 216.076 194.893 216.252 194.19 216.252C193.557 216.252 192.574 215.514 190.852 213.722L188.393 211.157L189.341 210.173L190.29 209.19L192.644 211.754C194.33 213.581 194.998 214.6 195.033 215.268ZM202.165 216.392L201.568 219.062L202.727 220.257C203.817 221.381 203.852 221.452 203.43 223.033C203.044 224.614 202.973 224.649 201.463 224.895C200.022 225.106 199.811 225.035 198.722 223.981L197.528 222.822L194.787 223.384C193.136 223.7 191.906 223.806 191.73 223.595C191.203 223.103 191.52 222.997 194.787 222.541L197.879 222.119L199.073 223.279C200.163 224.333 200.373 224.403 201.427 224.122C202.306 223.841 202.622 223.56 202.798 222.681C202.973 221.733 202.833 221.416 201.884 220.468L200.76 219.379L201.252 216.849C201.99 212.703 202.06 212.492 202.446 213.125C202.622 213.511 202.552 214.671 202.165 216.392ZM188.252 214.917C190.29 216.919 190.712 218.36 189.447 219.062C188.322 219.625 188.041 219.519 185.863 217.411L183.755 215.408L184.914 214.249C185.512 213.617 186.109 213.09 186.214 213.09C186.32 213.09 187.233 213.898 188.252 214.917ZM212.916 221.733C213.479 222.47 213.549 222.787 213.233 223.489C212.916 224.157 212.741 224.227 212.354 223.911C211.546 223.243 211.125 222.26 211.37 221.522C211.652 220.573 212.073 220.643 212.916 221.733ZM211.16 224.93C211.862 225.808 211.897 225.878 211.3 226.581C210.949 227.003 210.633 227.389 210.562 227.495C210.492 227.6 210.071 227.214 209.614 226.651C208.841 225.703 208.841 225.562 209.333 224.789C210.035 223.77 210.281 223.77 211.16 224.93ZM187.303 226.862C187.303 227.951 186.285 228.022 185.266 227.038C184.387 226.124 184.387 226.089 185.02 225.387L185.652 224.684L186.495 225.457C186.952 225.878 187.303 226.511 187.303 226.862ZM208.033 228.373C208.841 229.216 208.841 229.251 208.208 229.954L207.576 230.657L206.557 229.708C205.644 228.83 205.608 228.724 206.171 228.127C206.908 227.319 207.049 227.319 208.033 228.373ZM183.79 228.689C184.598 229.603 184.563 230.657 183.685 230.657C183.439 230.657 182.841 230.27 182.385 229.778C181.717 229.076 181.647 228.83 182.033 228.373C182.631 227.67 182.841 227.705 183.79 228.689ZM113.592 229.076C113.908 229.216 114.013 229.708 113.943 230.657C113.803 231.886 113.697 232.062 112.924 232.062C112.116 232.062 112.046 231.957 112.257 230.973C112.362 230.376 112.467 229.638 112.467 229.392C112.467 228.865 112.819 228.795 113.592 229.076ZM116.262 231.113C116.367 232.308 116.297 232.413 115.489 232.413C114.505 232.413 114.47 232.343 114.786 230.692C115.103 229.076 116.121 229.357 116.262 231.113ZM204.906 231.219L205.749 232.097L204.871 232.765C203.992 233.432 203.992 233.432 203.009 232.484L202.025 231.57L202.833 230.938C203.887 230.13 203.887 230.13 204.906 231.219ZM122.235 231.324C122.973 231.781 122.586 232.94 121.673 233.046C121.005 233.151 120.9 233.011 120.9 232.097C120.9 231.008 121.356 230.727 122.235 231.324ZM124.835 231.711C125.573 231.711 124.94 233.292 124.167 233.397C123.465 233.503 123.359 233.362 123.359 232.413C123.359 231.535 123.465 231.324 123.921 231.5C124.237 231.605 124.624 231.711 124.835 231.711ZM130.843 232.273C131.159 232.378 131.264 232.765 131.159 233.327C131.054 233.924 130.843 234.135 130.491 234.03C130.21 233.924 129.894 233.819 129.824 233.819C129.754 233.819 129.683 233.432 129.683 232.94C129.683 232.062 129.929 231.922 130.843 232.273ZM133.618 233.292C133.513 233.854 133.232 234.17 132.81 234.17C132.318 234.17 132.143 233.924 132.143 233.292C132.143 232.589 132.318 232.413 132.986 232.413C133.653 232.413 133.759 232.554 133.618 233.292ZM201.357 233.327C202.095 234.065 202.13 234.276 201.709 234.521C200.9 235.049 200.479 234.943 199.636 234.03C198.863 233.222 198.863 233.151 199.495 232.8C200.373 232.273 200.444 232.308 201.357 233.327ZM88.7167 239.3C88.3302 240.002 87.487 240.846 86.7492 241.232C85.4492 241.9 85.4492 241.9 85.0628 241.197C84.606 240.319 84.8871 239.792 85.7654 239.792C86.1168 239.792 86.5384 239.616 86.6789 239.405C86.9951 238.913 89.0329 237.684 89.2437 237.859C89.314 237.965 89.1032 238.597 88.7167 239.3ZM112.749 242.848C112.678 244.113 112.503 244.57 112.011 244.64C111.238 244.781 110.922 243.973 111.203 242.427C111.378 241.513 111.624 241.197 112.151 241.197C112.784 241.197 112.854 241.408 112.749 242.848ZM123.886 242.075C125.748 243.937 124.413 247.31 121.848 247.31C120.021 247.31 118.792 246.081 118.792 244.289C118.792 242.462 120.021 241.197 121.778 241.197C122.656 241.197 123.324 241.478 123.886 242.075ZM115.278 242.848C115.278 244.465 114.821 245.237 114.084 244.956C113.065 244.57 113.522 241.548 114.611 241.548C115.138 241.548 115.278 241.794 115.278 242.848ZM129.859 244.71C129.859 245.94 129.718 246.291 129.227 246.397C128.454 246.537 128.137 245.729 128.418 244.148C128.594 243.235 128.84 242.954 129.262 243.024C129.718 243.094 129.859 243.516 129.859 244.71ZM132.494 244.605C132.494 246.221 132.037 246.994 131.299 246.713C130.281 246.327 130.737 243.305 131.826 243.305C132.353 243.305 132.494 243.551 132.494 244.605ZM112.608 255.672C112.222 259.326 111.94 260.626 111.484 260.802C110.992 260.942 110.957 259.572 111.308 255.848C111.484 253.88 111.624 253.494 112.151 253.494C112.749 253.494 112.784 253.705 112.608 255.672ZM115.067 256.305C114.716 259.818 114.435 260.978 113.908 261.153C113.522 261.294 113.486 260.697 113.697 257.851C113.978 254.021 114.013 253.845 114.786 253.845C115.243 253.845 115.278 254.232 115.067 256.305ZM127.716 258.132C127.435 261.434 127.048 262.769 126.486 262.418C126.205 262.278 126.17 261.329 126.346 259.502C126.662 255.989 126.837 255.251 127.47 255.251C127.891 255.251 127.927 255.743 127.716 258.132ZM130.14 258.272C130.035 261.751 129.824 262.629 129.121 262.629C128.629 262.629 128.594 262.313 128.77 260.591C129.332 255.707 129.402 255.216 129.824 255.356C130.07 255.462 130.175 256.445 130.14 258.272Z" fill="white" fill-opacity="0.4"/>
<path d="M131.616 112.466C125.819 113.133 120.479 114.714 115.49 117.279C100.031 125.184 90.5796 141.627 91.5282 158.983C92.6525 179.221 107.022 195.945 126.873 200.126C134.181 201.636 143.386 201.004 150.484 198.474C165.521 193.099 176.659 179.888 179.364 164.254C182.069 148.513 175.956 132.106 163.659 122.268C154.524 114.96 142.438 111.271 131.616 112.466Z" fill="white" fill-opacity="0.4"/>
<path d="M24.8078 141.803C24.6673 142.014 25.1943 142.927 26.0024 143.876L27.4429 145.562L26.1078 146.616C25.2646 147.319 24.9132 147.811 25.1592 148.021C25.4051 148.267 26.0727 147.881 27.1618 146.932L28.8131 145.457L26.9159 143.454C25.8267 142.295 24.9132 141.592 24.8078 141.803Z" fill="white" fill-opacity="0.4"/>
<path d="M120.901 243.482C120.198 244.36 120.62 245.238 121.779 245.238C122.517 245.238 122.868 245.063 122.939 244.606C123.079 243.868 122.447 242.955 121.779 242.955C121.533 242.955 121.147 243.2 120.901 243.482Z" fill="white" fill-opacity="0.4"/>
<path d="M88.1545 9.38099C87.5924 9.55666 87.1708 9.908 87.1708 10.1188C87.1708 10.3647 88.2248 12.1215 89.4896 14.0187L91.7733 17.5321L90.2626 17.9889C88.0491 18.6564 87.5221 18.551 85.5546 17.2511C83.6573 15.9862 82.252 15.8808 82.252 17.0051C82.252 17.3213 82.8492 18.5159 83.5519 19.6753C84.7816 21.678 84.8519 21.9591 84.887 24.7698C84.887 27.7562 84.887 27.7562 85.8356 27.8616C86.714 27.967 86.9248 27.7562 87.9437 25.6833C89.0329 23.4347 89.068 23.3996 91.0707 22.9077L93.0733 22.4158L92.8625 26.913C92.6868 31.1994 92.722 31.4453 93.3544 31.4453C95.076 31.4102 95.6732 30.6372 97.8867 25.5076L100.03 20.4483L103.157 19.6051C104.878 19.1483 106.565 18.5159 106.916 18.1997C108.216 17.0051 107.268 14.2295 105.581 14.2295C105.089 14.2295 103.403 14.5457 101.857 14.9673C100.311 15.3538 98.8002 15.5998 98.5191 15.4944C98.238 15.3889 96.1651 13.8782 93.8814 12.1215C91.5977 10.3999 89.595 8.95937 89.4193 8.99451C89.2437 8.99451 88.6815 9.17018 88.1545 9.38099Z" fill="white" fill-opacity="0.4"/>
<path d="M79.6167 22.0657C78.2113 22.5927 77.4735 23.0494 77.4032 23.5062C77.1573 24.6656 77.8249 24.771 80.2491 23.998C82.3923 23.2954 82.6383 23.1197 82.5328 22.3467C82.3923 21.1873 82.0761 21.1522 79.6167 22.0657Z" fill="white" fill-opacity="0.4"/>
<path d="M71.0767 25.3662C69.2849 26.1392 68.8984 26.4554 68.9687 27.0175C69.1092 28.0716 69.8821 28.0716 72.201 27.0527C73.8523 26.3148 74.2037 26.0338 74.0983 25.4014C73.9577 24.3473 73.5712 24.3473 71.0767 25.3662Z" fill="white" fill-opacity="0.4"/>
<path d="M62.8571 29.3725C60.8545 30.3914 60.5383 30.813 61.1355 31.7265C61.3464 32.113 61.8734 31.9725 63.6652 31.0941C66.4057 29.7239 66.1949 29.8995 65.9138 29.0212C65.6327 28.0726 65.2814 28.1077 62.8571 29.3725Z" fill="white" fill-opacity="0.4"/>
<path d="M55.272 33.5889C53.2343 34.7484 52.7424 35.4511 53.4802 36.1889C53.9018 36.6105 54.2883 36.5051 56.1855 35.3105C58.153 34.0457 58.3639 33.8349 58.0125 33.2025C57.5206 32.289 57.4855 32.3241 55.272 33.5889Z" fill="white" fill-opacity="0.4"/>
<path d="M47.1867 38.8592C45.6057 40.0537 45.3949 40.3699 45.7111 40.9672C45.9219 41.3186 46.203 41.6348 46.3787 41.6348C46.8003 41.6348 50.6299 38.824 50.6299 38.5078C50.6299 38.1213 49.8569 37.4187 49.4353 37.4187C49.2245 37.4187 48.2056 38.0511 47.1867 38.8592Z" fill="white" fill-opacity="0.4"/>
<path d="M40.1957 44.163C38.2282 45.6738 37.9823 46.2008 38.8606 46.9035C39.2822 47.2548 39.7038 47.0792 41.2146 45.8143C42.2335 44.9711 43.147 44.2684 43.1821 44.2333C43.4984 44.0225 42.8308 42.6874 42.4443 42.6874C42.1984 42.6874 41.1795 43.3549 40.1957 44.163Z" fill="white" fill-opacity="0.4"/>
<path d="M33.4141 50.0662C31.7628 51.5418 31.552 51.858 31.8682 52.4202C32.4304 53.3337 32.7115 53.2282 34.8195 51.4013C36.7168 49.7148 36.7168 49.7148 36.0492 49.0473C35.3465 48.3446 35.3465 48.3797 33.4141 50.0662Z" fill="white" fill-opacity="0.4"/>
<path d="M101.082 50.8041C100.485 51.296 100.169 51.8581 100.169 52.5608C100.169 53.2986 99.9929 53.5797 99.5362 53.5797C97.8848 53.5797 96.4092 55.6877 97.0065 57.2688C97.6389 58.9552 98.7983 59.2012 106.493 59.2012C114.187 59.2012 115.347 58.9552 115.979 57.2688C116.576 55.6877 115.101 53.5797 113.449 53.5797C113.098 53.5797 112.817 53.3689 112.817 53.1229C112.817 52.3851 111.306 51.1554 110.112 50.9095C109.479 50.8041 108.531 50.8392 108.004 51.05C107.195 51.3311 106.844 51.2608 106.177 50.7338C105.017 49.7852 102.312 49.8203 101.082 50.8041Z" fill="white" fill-opacity="0.4"/>
<path d="M154.556 51.8234C154.204 52.0342 153.923 52.4909 153.923 52.8071C153.923 53.1585 153.572 53.5801 153.15 53.7558C152.694 53.9666 152.272 54.4936 152.237 54.9503C152.026 56.426 152.94 56.7422 157.507 56.7422C161.196 56.7422 161.723 56.6719 162.355 56.0395C162.953 55.4422 162.988 55.1963 162.707 54.599C162.496 54.2125 162.039 53.7909 161.723 53.6504C161.407 53.545 160.88 53.1585 160.599 52.8071C160.283 52.4207 159.474 52.0693 158.666 51.9991C157.893 51.9288 156.804 51.7531 156.207 51.6477C155.645 51.5423 154.872 51.6477 154.556 51.8234Z" fill="white" fill-opacity="0.4"/>
<path d="M28.6721 54.9156C28.4613 55.0561 27.6181 55.9345 26.7397 56.848C25.2992 58.3939 25.229 58.5344 25.756 59.0614C26.5289 59.8344 27.0559 59.5885 28.7775 57.5155C30.1478 55.8994 30.218 55.7588 29.6207 55.2318C29.2694 54.9156 28.8478 54.7751 28.6721 54.9156Z" fill="white" fill-opacity="0.4"/>
<path d="M21.1162 63.5928C19.8865 65.209 19.7109 65.6306 20.0622 66.0522C20.7649 66.8954 21.2216 66.6846 22.8027 64.6117C24.0324 63.0307 24.2432 62.5739 23.8918 62.1523C23.1891 61.3091 22.6621 61.5902 21.1162 63.5928Z" fill="white" fill-opacity="0.4"/>
<path d="M16.0564 70.6912C14.6861 72.9047 14.5807 73.7127 15.6699 73.8884C16.1969 73.9587 16.6888 73.4317 17.6726 71.8858C18.8671 69.9182 18.9023 69.7777 18.3401 69.2507C17.9888 68.9345 17.6374 68.6885 17.4969 68.6885C17.3915 68.6885 16.7239 69.602 16.0564 70.6912Z" fill="white" fill-opacity="0.4"/>
<path d="M12.408 76.8745C12.2323 77.0853 11.6351 78.1393 11.108 79.1934C10.1946 80.9852 10.1946 81.1258 10.7567 81.5825C11.108 81.8284 11.4945 81.9338 11.6702 81.8284C11.9864 81.6528 14.0945 77.8231 14.0945 77.4367C14.0945 76.8394 12.7945 76.4178 12.408 76.8745Z" fill="white" fill-opacity="0.4"/>
<path d="M8.15318 85.1663C7.94237 85.5176 7.48563 86.6068 7.09915 87.5905L6.36133 89.4175L7.09915 89.804C8.01264 90.2959 8.18831 90.0851 9.27747 87.4851C10.1207 85.5528 10.1207 85.3419 9.62882 84.9203C8.82073 84.3582 8.53965 84.3933 8.15318 85.1663Z" fill="white" fill-opacity="0.4"/>
<path d="M40.7256 89.9435C40.1986 90.2597 39.6013 90.7867 39.4257 91.138C39.1797 91.5597 38.7933 91.7353 38.0906 91.6299C36.0879 91.3489 33.7339 93.7028 33.2772 96.3731C33.1366 97.3919 32.8556 97.7784 32.0123 98.1298C30.5367 98.7973 29.4827 100.449 29.2719 102.416C29.0962 104.313 29.834 106.105 30.9934 106.457C31.5907 106.667 31.6961 106.878 31.5205 107.757C31.4151 108.354 30.8529 109.373 30.2556 110.04C29.6935 110.673 29.2016 111.621 29.2016 112.078C29.2016 112.675 28.8854 113.097 28.2178 113.448C26.2152 114.502 25.5828 117.77 27.1287 119.035C27.6557 119.456 27.9368 119.983 27.8665 120.545C27.7611 121.389 28.3232 122.794 28.9908 123.216C29.7637 123.743 30.9583 123.462 31.9421 122.513C33.5231 121.037 45.8201 94.9677 45.8552 93.0353C45.9255 90.1191 43.2904 88.5381 40.7256 89.9435Z" fill="white" fill-opacity="0.4"/>
<path d="M249.596 142.296C248.436 143.104 248.19 144.474 247.558 152.485C247.242 156.525 246.715 163.165 246.363 167.241C246.047 171.281 245.871 175.146 246.012 175.814C246.89 179.854 251.036 180.416 252.687 176.727C253.074 175.849 253.636 175.146 253.917 175.146C254.233 175.146 255.006 174.619 255.639 173.987C256.974 172.652 257.501 170.333 256.903 168.752C256.587 167.908 256.658 167.663 257.395 166.925C258.485 165.836 259.117 163.622 258.836 162.006C258.52 160.319 256.974 158.633 255.639 158.492C254.795 158.387 254.549 158.176 254.374 157.298C254.233 156.595 254.339 155.963 254.62 155.576C254.866 155.225 255.112 154.206 255.112 153.293C255.112 152.274 255.393 151.185 255.814 150.482C257.114 148.339 256.376 145.458 254.409 145.036C253.706 144.931 253.355 144.614 253.355 144.228C253.355 143.279 251.985 141.769 251.106 141.769C250.685 141.769 250.017 142.014 249.596 142.296Z" fill="white" fill-opacity="0.4"/>
<path d="M270.962 192.606C270.294 195.311 270.154 196.225 270.505 196.225C270.716 196.225 271.102 196.33 271.418 196.436C271.946 196.646 272.332 195.663 272.894 192.606C273.105 191.376 273.07 191.306 272.191 191.306C271.454 191.306 271.243 191.517 270.962 192.606Z" fill="white" fill-opacity="0.4"/>
<path d="M268.5 201.741C267.973 203.533 267.903 204.165 268.219 204.376C269.097 204.973 269.694 204.411 270.292 202.373C270.994 200.054 270.924 199.387 269.905 199.387C269.378 199.387 269.097 199.914 268.5 201.741Z" fill="white" fill-opacity="0.4"/>
<path d="M31.6898 206.273C30.8466 207.046 30.4953 207.678 30.3547 208.873C30.2142 209.892 29.7926 210.875 29.1602 211.613C27.7899 213.159 27.7197 215.9 28.9845 217.727C29.7223 218.816 29.7575 219.062 29.3358 219.8C28.6683 220.994 28.7386 223.243 29.4764 224.683C30.2845 226.334 32.2169 227.599 33.552 227.353C34.3952 227.178 34.7465 227.353 35.8357 228.548C37.5924 230.515 39.2086 230.797 40.7545 229.391C42.6517 227.705 42.5815 226.721 39.9464 217.235C38.6816 212.632 37.4167 208.451 37.1357 207.924C36.3978 206.484 35.4141 205.711 34.0438 205.465C33.0249 205.324 32.6033 205.465 31.6898 206.273Z" fill="white" fill-opacity="0.4"/>
<path d="M265.724 209.4C264.775 211.86 264.775 212.246 265.689 212.492C266.286 212.668 266.532 212.387 267.129 211.051C268.113 208.768 268.113 207.679 267.199 207.538C266.602 207.468 266.321 207.784 265.724 209.4Z" fill="white" fill-opacity="0.4"/>
<path d="M262.176 217.201C260.981 219.344 260.981 220.117 262.141 220.117C263.054 220.117 265.127 216.217 264.495 215.585C263.757 214.847 263.265 215.198 262.176 217.201Z" fill="white" fill-opacity="0.4"/>
<path d="M257.955 224.545C257.323 225.599 256.901 226.723 257.006 227.004C257.393 228.058 258.447 227.461 259.606 225.529C260.555 223.983 260.695 223.491 260.379 223.104C259.641 222.226 259.185 222.507 257.955 224.545Z" fill="white" fill-opacity="0.4"/>
<path d="M253.43 231.183C251.954 233.221 251.743 233.818 252.34 234.205C253.148 234.696 253.254 234.626 254.835 232.553C256.24 230.656 256.275 230.551 255.643 230.094C255.292 229.813 254.905 229.602 254.8 229.602C254.694 229.637 254.062 230.34 253.43 231.183Z" fill="white" fill-opacity="0.4"/>
<path d="M248.085 238.071C246.925 239.476 246.644 240.003 246.925 240.425C247.522 241.409 247.944 241.233 249.49 239.406C250.649 238.001 250.93 237.474 250.649 237.052C250.052 236.068 249.63 236.244 248.085 238.071Z" fill="white" fill-opacity="0.4"/>
<path d="M242.285 244.359C240.564 246.081 240.353 247.17 241.688 247.17C242.391 247.17 245.272 244.394 245.272 243.727C245.272 243.516 244.991 243.165 244.639 242.989C244.112 242.708 243.691 242.954 242.285 244.359Z" fill="white" fill-opacity="0.4"/>
<path d="M236.106 250.298C234.349 251.914 234.244 252.09 234.771 252.617C235.473 253.355 236.141 253.039 238.003 251.141C239.268 249.806 239.303 249.736 238.671 249.174C238.073 248.612 237.933 248.682 236.106 250.298Z" fill="white" fill-opacity="0.4"/>
<path d="M229.57 255.672C227.989 256.866 227.778 257.182 228.094 257.744C228.586 258.658 228.867 258.588 230.87 257.112C232.697 255.742 232.767 255.672 232.415 254.758C232.099 253.915 231.572 254.091 229.57 255.672Z" fill="white" fill-opacity="0.4"/>
<path d="M223.14 260.381C222.473 260.873 221.7 261.4 221.419 261.54C220.892 261.856 221.173 263.332 221.77 263.332C221.946 263.332 222.965 262.735 224.054 262.032C225.283 261.224 225.916 260.592 225.775 260.24C225.67 259.994 225.6 259.678 225.6 259.608C225.6 259.186 224.229 259.608 223.14 260.381Z" fill="white" fill-opacity="0.4"/>
<path d="M201.286 260.697C200.197 261.294 200.302 261.048 199.037 266.951L198.054 271.483L194.962 273.029C192.573 274.223 191.835 274.786 191.659 275.488C191.378 276.577 192.432 278.194 193.557 278.369C193.943 278.439 195.559 277.877 197.14 277.175L200.021 275.84L204.729 278.194C209.437 280.548 209.472 280.548 210.702 280.021C211.405 279.739 211.897 279.353 211.826 279.142C211.791 278.966 210.491 277.456 208.98 275.804L206.24 272.818L207.926 272.08C209.578 271.342 209.648 271.342 211.194 271.94C212.072 272.291 213.232 272.572 213.829 272.607C215.48 272.677 215.34 271.659 213.372 269.305C211.826 267.478 211.58 266.951 211.37 265.124C211.229 263.964 210.948 262.77 210.702 262.418C209.929 261.399 208.945 262.313 208.278 264.702C207.716 266.705 207.575 266.88 205.959 267.724L204.202 268.602L204.027 267.618C203.921 267.091 203.675 265.194 203.429 263.402C203.183 261.505 202.867 260.17 202.621 260.17C202.41 260.205 201.813 260.416 201.286 260.697Z" fill="white" fill-opacity="0.4"/>
<path d="M164.224 265.406C158.568 267.022 157.795 267.479 157.795 269.165C157.795 270.254 157.935 270.465 159.06 270.922C159.762 271.203 160.395 271.379 160.5 271.273C160.606 271.203 160.957 271.414 161.343 271.8C162.152 272.608 164.365 272.714 165.349 271.976C165.806 271.625 166.227 271.625 166.93 271.871C168.792 272.573 171.146 271.238 171.146 269.446C171.146 268.884 171.532 268.181 172.024 267.69C173.781 266.073 172.762 264.001 170.232 264.071C169.495 264.106 166.789 264.703 164.224 265.406Z" fill="white" fill-opacity="0.4"/>
<path d="M215.481 265.123C214.146 265.861 213.654 266.353 213.795 266.704C213.9 267.02 214.005 267.336 214.005 267.407C214.005 267.793 215.235 267.442 216.816 266.563C218.116 265.861 218.573 265.439 218.503 264.912C218.362 263.858 217.554 263.928 215.481 265.123Z" fill="white" fill-opacity="0.4"/>
</svg>
