<svg width="289" height="335" viewBox="0 0 289 335" fill="none" xmlns="http://www.w3.org/2000/svg">
<circle cx="154.266" cy="173.268" r="75.5" fill="#0F0F0F" fill-opacity="0.18"/>
<circle cx="154.266" cy="173.268" r="75" stroke="black" stroke-opacity="0.08"/>
<line x1="151.266" y1="61.7676" x2="151.266" y2="285.768" stroke="black" stroke-opacity="0.25"/>
<line x1="262.766" y1="174.268" x2="38.7656" y2="174.268" stroke="black" stroke-opacity="0.25"/>
<path d="M150.281 139.768L171.137 173.284L150.281 206.801L127.193 173.284L150.281 139.768Z" fill="#FFBD4E" fill-opacity="0.89"/>
<circle cx="150.266" cy="173.268" r="5.5" fill="#FFFCF9"/>
<path d="M142.27 319.792C142.27 319.792 142.142 327.152 150.334 327.152C156.702 327.152 157.95 322.64 157.95 320.528C157.95 316.592 155.55 314.736 150.75 312.656C146.206 310.672 145.662 309.584 145.662 308.048C145.662 306.704 146.526 304.88 149.822 304.88C153.118 304.88 154.014 307.248 154.014 308.592H157.054C157.054 306.576 155.678 302.096 149.95 302.096C143.262 302.064 142.622 306.576 142.622 308.24C142.622 311.184 144.51 313.2 149.406 315.408C153.95 317.456 154.878 318.288 154.91 320.56C154.91 322.544 153.182 324.336 150.11 324.336C147.038 324.336 145.31 322.32 145.31 319.792H142.27Z" fill="#25616B"/>
<path d="M26.1096 162.448L19.3896 180.272L16.6696 173.008L20.8296 162.448H17.5336L15.1336 168.88L12.7016 162.448H9.40563L13.5656 173.008L10.8456 180.272L4.12563 162.448H0.829625L10.8456 187.728L15.1336 176.88L19.3896 187.728L29.4056 162.448H26.1096Z" fill="#25616B"/>
<path d="M286.678 162.448H274.518V186.768H286.678V183.952H277.558V174.48H285.142V171.664H277.558V165.264H286.678V162.448Z" fill="#25616B"/>
<path d="M157.088 3.648H154.048V20.64L138.752 2.752V28H141.792V10.976L157.088 28.864V3.648Z" fill="#25616B"/>
</svg>
