<svg width="1600" height="135" viewBox="0 0 1600 135" fill="none" xmlns="http://www.w3.org/2000/svg">
<g filter="url(#filter0_b_790_285)">
<path d="M841.156 53.2876L838.986 56.975L834.418 62.8615V68.2242V73.0567L833.803 75.3617L832.942 78.7971V80.4018L831.713 83.4879L829.622 88.302L829.008 90.2771L827.286 91.2646L825.687 93.2397H822.49H819.047L817.203 95.585L812.53 98.1773L808.349 100.893L806.751 104.226V108.176V111.756L805.275 113.36L803.308 117.557L801.832 120.15L800.48 119.286L799.496 121.631L797.897 122.372L796.791 124.347V127.309L795.93 130.148L793.594 132L791.995 129.284L790.519 127.309L786.093 123.359L782.773 121.631L780.682 120.15L777.072 118.298L781.297 115.089L783.633 111.756L788.552 110.151V108.176V104.843L787.199 103.362V100.276L786.093 98.1773C785.273 98.0538 783.633 97.6835 783.633 97.1898V94.5975L782.773 92.3756H779.698L777.072 91.2646L775.659 88.302L777.072 84.9691L777.731 82.2534L777.072 77.7554L775.659 75.3617V73.0567C774.746 73.0863 772.744 73.1276 772.038 73.0567C771.155 72.9681 770.36 72.7021 769.83 72.3475C769.406 72.0638 768.888 71.2245 768.682 70.8404V68.89V66.0531L767.269 64.014L765.679 62.8615H764.266L761.529 62.1523L759.674 60.2906C758.555 60.3201 756.23 60.3615 755.877 60.2906C755.523 60.2196 754.257 59.1972 753.669 58.6948L753.139 56.7444V54.7054V52.2231L751.638 51.5138H749.43L747.399 52.8436L743.866 55.326H740.333L737.649 53.6415V49.1388L736.224 48.7017L735.115 48.9004L733.176 50.1323L731.909 50.6886L729.85 50.4105L728.425 49.1388L727 47.589V46.1583L727.356 44.3303L729.019 42.1446L730.484 39.9987L730.8 37.6541L735.353 36.5811L739.786 35.7068L743.706 35.3095L742.983 33.5101L739.31 31.3312L738.308 28.9846L739.31 23.6212L737.306 22.2804V19.4311V18.4254L739.31 17.2522L738.308 16.079L736.137 14.5705L738.308 13.2297H744.318L745.988 14.5705L748.826 17.2522L752.333 16.079L756.34 13.2297L758.176 11.5535L756.34 10.7155L755.505 9.03943L756.34 6.69297L754.169 5.51968H756.34H760.18L765.189 4.34649L767.192 2H769.196L770.698 5.51968V8.20139V12.3916L775.54 13.2297L777.377 11.5535L782.72 12.3916L786.226 11.5535L791.736 12.3916L794.574 10.7155L796.745 6.69297H798.414L799.249 9.03943L801.252 13.2297L802.087 18.4254L803.924 19.4311V23.6212L807.096 22.2804L812.272 23.6212L816.134 25.6646L816.947 27.1855V28.9846L820.453 27.4761L824.126 28.9846H831.64L836.314 32.3367L841.156 35.5213L844.996 37.0298L847 40.3819V45.075L844.996 49.7679L841.156 53.2876Z" fill="white" fill-opacity="0.7"/>
<path d="M841.156 53.2876L838.986 56.975L834.418 62.8615V68.2242V73.0567L833.803 75.3617L832.942 78.7971V80.4018L831.713 83.4879L829.622 88.302L829.008 90.2771L827.286 91.2646L825.687 93.2397H822.49H819.047L817.203 95.585L812.53 98.1773L808.349 100.893L806.751 104.226V108.176V111.756L805.275 113.36L803.308 117.557L801.832 120.15L800.48 119.286L799.496 121.631L797.897 122.372L796.791 124.347V127.309L795.93 130.148L793.594 132L791.995 129.284L790.519 127.309L786.093 123.359L782.773 121.631L780.682 120.15L777.072 118.298L781.297 115.089L783.633 111.756L788.552 110.151V108.176V104.843L787.199 103.362V100.276L786.093 98.1773C785.273 98.0538 783.633 97.6835 783.633 97.1898V94.5975L782.773 92.3756H779.698L777.072 91.2646L775.659 88.302L777.072 84.9691L777.731 82.2534L777.072 77.7554L775.659 75.3617V73.0567C774.746 73.0863 772.744 73.1276 772.038 73.0567C771.155 72.9681 770.36 72.7021 769.83 72.3475C769.406 72.0638 768.888 71.2245 768.682 70.8404V68.89V66.0531L767.269 64.014L765.679 62.8615H764.266L761.529 62.1523L759.674 60.2906C758.555 60.3201 756.23 60.3615 755.877 60.2906C755.523 60.2196 754.257 59.1972 753.669 58.6948L753.139 56.7444V54.7054V52.2231L751.638 51.5138H749.43L747.399 52.8436L743.866 55.326H740.333L737.649 53.6415V49.1388L736.224 48.7017L735.115 48.9004L733.176 50.1323L731.909 50.6886L729.85 50.4105L728.425 49.1388L727 47.589V46.1583L727.356 44.3303L729.019 42.1446L730.484 39.9987L730.8 37.6541L735.353 36.5811L739.786 35.7068L743.706 35.3095L742.983 33.5101L739.31 31.3312L738.308 28.9846L739.31 23.6212L737.306 22.2804V19.4311V18.4254L739.31 17.2522L738.308 16.079L736.137 14.5705L738.308 13.2297H744.318L745.988 14.5705L748.826 17.2522L752.333 16.079L756.34 13.2297L758.176 11.5535L756.34 10.7155L755.505 9.03943L756.34 6.69297L754.169 5.51968H756.34H760.18L765.189 4.34649L767.192 2H769.196L770.698 5.51968V8.20139V12.3916L775.54 13.2297L777.377 11.5535L782.72 12.3916L786.226 11.5535L791.736 12.3916L794.574 10.7155L796.745 6.69297H798.414L799.249 9.03943L801.252 13.2297L802.087 18.4254L803.924 19.4311V23.6212L807.096 22.2804L812.272 23.6212L816.134 25.6646L816.947 27.1855V28.9846L820.453 27.4761L824.126 28.9846H831.64L836.314 32.3367L841.156 35.5213L844.996 37.0298L847 40.3819V45.075L844.996 49.7679L841.156 53.2876Z" stroke="white" stroke-opacity="0.8" stroke-width="3"/>
</g>
<g filter="url(#filter1_b_790_285)">
<path d="M1013.06 19.277L1005 18L1006.14 23.789L1008.79 30.1182L1009.72 35.2106L1013.06 37.9576L1014.79 40.8492L1015.3 43.5239L1013.73 44.9696L1011.8 45.548L1011.37 46.56L1013.06 48.6844L1019.56 53.0245L1021.47 56.0385V61.9459L1024.45 64.5982L1028.51 68.9384L1030.54 71.3496L1032.21 69.5598L1031.39 67.4917L1028.51 61.9459L1026.24 56.0385V53.0245L1024.45 50.7339L1020.96 44.3443L1015.74 35.7187L1014.79 30.1182L1015.74 25.8217H1018.25L1020.96 28.5354L1022.19 34.0967L1026.24 42.2947L1030.54 49.1666L1034.72 53.0245L1033.52 54.4713V56.6299L1038.18 60.1417L1038.65 61.9459L1041.5 64.5982L1047.37 73.2785L1048.92 79.5883L1047.37 83.285V85.9208L1048.92 89.3826L1053.1 91.8311L1060.73 96.6671L1072.19 102.845L1080.03 106.232L1085.91 107.03L1089.7 105.435H1093.45L1098.18 108.325L1101.34 112.111L1105.84 115H1108.27V110.317L1110.61 105.435H1113.45L1117.02 102.845L1113.45 100.852L1114.37 97.8635L1118 98.5609L1122.06 95.9705L1125.99 93.7731L1126.65 88.1161L1129.75 82.9656L1131 80.0105L1129.75 78.6595L1126.65 78.1529L1123.31 78.6595L1122.06 79.5883H1119.38L1116.21 80.0105L1114.37 81.4458L1113.45 84.3166L1111.86 88.1161L1110.61 90.9868L1108.27 92.8443H1105.84L1102.08 93.7731L1096.23 95.0396L1094.39 93.7731L1091.13 91.8311L1088.87 89.3826L1086.53 85.9208L1084.53 82.3746L1083.11 76.4643L1083.85 69.5598V65.5691L1085.91 60.1417L1087.01 56.6299V52.0007L1089.54 46.2541H1085.91L1079.11 47.5311L1077.21 43.2212L1074.53 39.2305L1071.05 35.7187H1066.78H1062.04H1057.94L1056.51 32.3665L1050.67 28.5354L1047.19 25.8217H1041.5L1037.08 27.0988L1031.39 28.5354L1025.38 25.8217L1020.96 22.1503L1013.06 19.277Z" fill="white" fill-opacity="0.4"/>
<path d="M1013.06 19.277L1005 18L1006.14 23.789L1008.79 30.1182L1009.72 35.2106L1013.06 37.9576L1014.79 40.8492L1015.3 43.5239L1013.73 44.9696L1011.8 45.548L1011.37 46.56L1013.06 48.6844L1019.56 53.0245L1021.47 56.0385V61.9459L1024.45 64.5982L1028.51 68.9384L1030.54 71.3496L1032.21 69.5598L1031.39 67.4917L1028.51 61.9459L1026.24 56.0385V53.0245L1024.45 50.7339L1020.96 44.3443L1015.74 35.7187L1014.79 30.1182L1015.74 25.8217H1018.25L1020.96 28.5354L1022.19 34.0967L1026.24 42.2947L1030.54 49.1666L1034.72 53.0245L1033.52 54.4713V56.6299L1038.18 60.1417L1038.65 61.9459L1041.5 64.5982L1047.37 73.2785L1048.92 79.5883L1047.37 83.285V85.9208L1048.92 89.3826L1053.1 91.8311L1060.73 96.6671L1072.19 102.845L1080.03 106.232L1085.91 107.03L1089.7 105.435H1093.45L1098.18 108.325L1101.34 112.111L1105.84 115H1108.27V110.317L1110.61 105.435H1113.45L1117.02 102.845L1113.45 100.852L1114.37 97.8635L1118 98.5609L1122.06 95.9705L1125.99 93.7731L1126.65 88.1161L1129.75 82.9656L1131 80.0105L1129.75 78.6595L1126.65 78.1529L1123.31 78.6595L1122.06 79.5883H1119.38L1116.21 80.0105L1114.37 81.4458L1113.45 84.3166L1111.86 88.1161L1110.61 90.9868L1108.27 92.8443H1105.84L1102.08 93.7731L1096.23 95.0396L1094.39 93.7731L1091.13 91.8311L1088.87 89.3826L1086.53 85.9208L1084.53 82.3746L1083.11 76.4643L1083.85 69.5598V65.5691L1085.91 60.1417L1087.01 56.6299V52.0007L1089.54 46.2541H1085.91L1079.11 47.5311L1077.21 43.2212L1074.53 39.2305L1071.05 35.7187H1066.78H1062.04H1057.94L1056.51 32.3665L1050.67 28.5354L1047.19 25.8217H1041.5L1037.08 27.0988L1031.39 28.5354L1025.38 25.8217L1020.96 22.1503L1013.06 19.277Z" stroke="white" stroke-opacity="0.5" stroke-width="2"/>
</g>
<g filter="url(#filter2_b_790_285)">
<path d="M508.499 112.889L509.457 110.505L511.168 111.369L512.876 113.569L514.961 116.916L515.621 119.209L516.33 120.855L515.61 123.458L513.659 125.375L510.504 125.367L509.421 123.87L508.474 122.054L507.813 120.047L507.823 116.324L508.499 112.889Z" fill="white" fill-opacity="0.5"/>
<path d="M505.076 111.352L507.844 108.496L508.517 105.977L508.523 103.791L509.483 100.812L510.171 98.0317L510.178 95.5474L509.504 93.2601L508.563 88.9845L509.522 86.7016L511.661 86.3579L513.578 84.1289L515.719 83.3398L516.955 81.1569L518.148 79.8683L524.969 73.0302L526.769 71.0476L530.224 68.8708L531.759 66.7882L532.362 63.8087L533.691 62.3217L536.231 62.3286L539.104 62.3364L541.485 61.2497L541.492 58.6661C541.494 57.9705 539.713 57.1707 539.715 56.2764C539.717 55.5609 540.248 54.7872 540.513 54.4898C539.886 54.19 538.514 53.5901 538.038 53.5888C537.562 53.5875 536.984 52.7247 536.754 52.2935L539.135 50.9087L540.527 49.2232L538.052 48.3222L537.366 45.558L540.533 46.9377L541.524 46.9404L543.308 46.9452L543.304 48.3364L544.39 49.8299L546.174 49.8347L549.444 49.8436L552.612 50.9453L551.913 52.8314L549.434 53.6197L548.835 55.0093L549.426 56.3027L549.424 57.197L550.908 57.996L551.408 56.3081L551.907 55.0176L553.491 55.6181L553.487 57.208L554.569 59.9934L555.755 61.2884L556.551 59.9987L555.764 58.0092L556.559 57.2164L557.057 56.3234L555.776 53.6369L559.046 53.6457L559.048 52.8508L560.143 50.9657L560.146 49.8726L560.15 48.382L561.145 46.9935L561.148 45.6224L561.648 44.1105L562.542 43.2212L563.241 41.3736L566.614 39.9143L568.497 39.9194L567.211 38.9609L569.296 37.3763L567.913 36.0019L564.94 35.9939L565.639 34.0378L564.453 33.0403L563.263 33.037L561.675 34.0271L559.099 34.0201L557.114 34.9937L554.631 37.3365L553.536 38.9238L551.948 39.8746L549.468 40.8009L551.449 41.3417L551.444 43.1911L549.459 44.0775L546.189 44.0686L542.721 44.0592L539.751 43.1594L539.756 41.31L539.76 39.8416L538.67 39.8386L537.379 40.7681L536.778 43.1514L538.064 44.0466L536.772 45.5564L533.736 45.5481L530.291 44.0255L526.842 44.0162L525.053 42.3422L522.707 42.3359L519.399 41.2548L514.021 39.7718L512.511 37.2224L512.514 35.8518L512.517 34.8729L515.141 33.901L516.248 32.9097L514.048 30.08L510.603 28.3284L510.605 27.6366L509.501 27.6336L508.546 26.6387L506.747 25.5506L506.751 24.2844L508.552 24.2892L510.616 23.4137L510.618 22.6555L510.622 21.4558L509.522 19.7886L508.573 16.8387L510.64 14.7988L509.542 12.5442L508.596 8.13622L503.422 8.1222L499.319 9.09005L493.753 9.7603L490.631 9.06651L486.924 8.0775L483.307 9.73199L484.019 12.475L484.013 14.7267L482.602 17.8555L484 19.7194L486.888 21.3915L488.737 23.3544L487.563 24.2324L486.874 26.58L485.888 30.0037L483.961 33.8165L481.957 35.769L478.357 35.3677L476.601 34.7756L475.618 37.1224L472.296 38.1903L470.926 39.6551L470.336 41.1219L471.5 43.8662L471.492 46.7053L474.51 49.9441L473.433 51.018L471.481 51.0128L469.428 51.9862L467.478 51.0019L464.65 49.9173L463.278 51.9695L460.642 51.9624L458.198 53.1305L460.633 55.095L462.776 56.863L466.97 58.147L466.968 59.2239L464.625 59.2175L462.77 59.2125L464.619 61.3712L466.465 64.4111L469.39 65.9854L472.221 65.9931L475.544 64.4357L476.529 61.4035L478.273 66.0095L478.261 70.6106L479.665 73.4534L479.657 76.6298C480.383 78.0955 481.834 81.1798 481.832 81.7908L481.825 84.4638L483.817 87.2377L487.034 94.4062L488.449 99.3743L490.536 102.053L492.908 104.923L494.797 110.466L496.591 115.721L498.778 116.872L501.635 116.307L503.261 113.543L505.072 112.88L505.076 111.352Z" fill="white" fill-opacity="0.5"/>
<path d="M508.499 112.889L509.457 110.505L511.168 111.369L512.876 113.569L514.961 116.916L515.621 119.209L516.33 120.855L515.61 123.458L513.659 125.375L510.504 125.367L509.421 123.87L508.474 122.054L507.813 120.047L507.823 116.324L508.499 112.889Z" stroke="white" stroke-opacity="0.6" stroke-width="2"/>
<path d="M505.076 111.352L507.844 108.496L508.517 105.977L508.523 103.791L509.483 100.812L510.171 98.0317L510.178 95.5474L509.504 93.2601L508.563 88.9845L509.522 86.7016L511.661 86.3579L513.578 84.1289L515.719 83.3398L516.955 81.1569L518.148 79.8683L524.969 73.0302L526.769 71.0476L530.224 68.8708L531.759 66.7882L532.362 63.8087L533.691 62.3217L536.231 62.3286L539.104 62.3364L541.485 61.2497L541.492 58.6661C541.494 57.9705 539.713 57.1707 539.715 56.2764C539.717 55.5609 540.248 54.7872 540.513 54.4898C539.886 54.19 538.514 53.5901 538.038 53.5888C537.562 53.5875 536.984 52.7247 536.754 52.2935L539.135 50.9087L540.527 49.2232L538.052 48.3222L537.366 45.558L540.533 46.9377L541.524 46.9404L543.308 46.9452L543.304 48.3364L544.39 49.8299L546.174 49.8347L549.444 49.8436L552.612 50.9453L551.913 52.8314L549.434 53.6197L548.835 55.0093L549.426 56.3027L549.424 57.197L550.908 57.996L551.408 56.3081L551.907 55.0176L553.491 55.6181L553.487 57.208L554.569 59.9934L555.755 61.2884L556.551 59.9987L555.764 58.0092L556.559 57.2164L557.057 56.3234L555.776 53.6369L559.046 53.6457L559.048 52.8508L560.143 50.9657L560.146 49.8726L560.15 48.382L561.145 46.9935L561.148 45.6224L561.648 44.1105L562.542 43.2212L563.241 41.3736L566.614 39.9143L568.497 39.9194L567.211 38.9609L569.296 37.3763L567.913 36.0019L564.94 35.9939L565.639 34.0378L564.453 33.0403L563.263 33.037L561.675 34.0271L559.099 34.0201L557.114 34.9937L554.631 37.3365L553.536 38.9238L551.948 39.8746L549.468 40.8009L551.449 41.3417L551.444 43.1911L549.459 44.0775L546.189 44.0686L542.721 44.0592L539.751 43.1594L539.756 41.31L539.76 39.8416L538.67 39.8386L537.379 40.7681L536.778 43.1514L538.064 44.0466L536.772 45.5564L533.736 45.5481L530.291 44.0255L526.842 44.0162L525.053 42.3422L522.707 42.3359L519.399 41.2548L514.021 39.7718L512.511 37.2224L512.514 35.8518L512.517 34.8729L515.141 33.901L516.248 32.9097L514.048 30.08L510.603 28.3284L510.605 27.6366L509.501 27.6336L508.546 26.6387L506.747 25.5506L506.751 24.2844L508.552 24.2892L510.616 23.4137L510.618 22.6555L510.622 21.4558L509.522 19.7886L508.573 16.8387L510.64 14.7988L509.542 12.5442L508.596 8.13622L503.422 8.1222L499.319 9.09005L493.753 9.7603L490.631 9.06651L486.924 8.0775L483.307 9.73199L484.019 12.475L484.013 14.7267L482.602 17.8555L484 19.7194L486.888 21.3915L488.737 23.3544L487.563 24.2324L486.874 26.58L485.888 30.0037L483.961 33.8165L481.957 35.769L478.357 35.3677L476.601 34.7756L475.618 37.1224L472.296 38.1903L470.926 39.6551L470.336 41.1219L471.5 43.8662L471.492 46.7053L474.51 49.9441L473.433 51.018L471.481 51.0128L469.428 51.9862L467.478 51.0019L464.65 49.9173L463.278 51.9695L460.642 51.9624L458.198 53.1305L460.633 55.095L462.776 56.863L466.97 58.147L466.968 59.2239L464.625 59.2175L462.77 59.2125L464.619 61.3712L466.465 64.4111L469.39 65.9854L472.221 65.9931L475.544 64.4357L476.529 61.4035L478.273 66.0095L478.261 70.6106L479.665 73.4534L479.657 76.6298C480.383 78.0955 481.834 81.1798 481.832 81.7908L481.825 84.4638L483.817 87.2377L487.034 94.4062L488.449 99.3743L490.536 102.053L492.908 104.923L494.797 110.466L496.591 115.721L498.778 116.872L501.635 116.307L503.261 113.543L505.072 112.88L505.076 111.352Z" stroke="white" stroke-opacity="0.6" stroke-width="2"/>
</g>
<g filter="url(#filter3_b_790_285)">
<path d="M1348.5 112.889L1349.46 110.505L1351.17 111.369L1352.88 113.569L1354.96 116.916L1355.62 119.209L1356.33 120.855L1355.61 123.458L1353.66 125.375L1350.5 125.367L1349.42 123.87L1348.47 122.054L1347.81 120.047L1347.82 116.324L1348.5 112.889Z" fill="white" fill-opacity="0.2"/>
<path d="M1345.08 111.352L1347.84 108.496L1348.52 105.977L1348.52 103.791L1349.48 100.812L1350.17 98.0317L1350.18 95.5474L1349.5 93.2601L1348.56 88.9845L1349.52 86.7016L1351.66 86.3579L1353.58 84.1289L1355.72 83.3398L1356.96 81.1569L1358.15 79.8683L1364.97 73.0302L1366.77 71.0476L1370.22 68.8708L1371.76 66.7882L1372.36 63.8087L1373.69 62.3217L1376.23 62.3286L1379.1 62.3364L1381.49 61.2497L1381.49 58.6661C1381.49 57.9705 1379.71 57.1707 1379.72 56.2764C1379.72 55.5609 1380.25 54.7872 1380.51 54.4898C1379.89 54.19 1378.51 53.5901 1378.04 53.5888C1377.56 53.5875 1376.98 52.7247 1376.75 52.2935L1379.14 50.9087L1380.53 49.2232L1378.05 48.3222L1377.37 45.558L1380.53 46.9377L1381.52 46.9404L1383.31 46.9452L1383.3 48.3364L1384.39 49.8299L1386.17 49.8347L1389.44 49.8436L1392.61 50.9453L1391.91 52.8314L1389.43 53.6197L1388.84 55.0093L1389.43 56.3027L1389.42 57.197L1390.91 57.996L1391.41 56.3081L1391.91 55.0176L1393.49 55.6181L1393.49 57.208L1394.57 59.9934L1395.75 61.2884L1396.55 59.9987L1395.76 58.0092L1396.56 57.2164L1397.06 56.3234L1395.78 53.6369L1399.05 53.6457L1399.05 52.8508L1400.14 50.9657L1400.15 49.8726L1400.15 48.382L1401.14 46.9935L1401.15 45.6224L1401.65 44.1105L1402.54 43.2212L1403.24 41.3736L1406.61 39.9143L1408.5 39.9194L1407.21 38.9609L1409.3 37.3763L1407.91 36.0019L1404.94 35.9939L1405.64 34.0378L1404.45 33.0403L1403.26 33.037L1401.68 34.0271L1399.1 34.0201L1397.11 34.9937L1394.63 37.3365L1393.54 38.9238L1391.95 39.8746L1389.47 40.8009L1391.45 41.3417L1391.44 43.1911L1389.46 44.0775L1386.19 44.0686L1382.72 44.0592L1379.75 43.1594L1379.76 41.31L1379.76 39.8416L1378.67 39.8386L1377.38 40.7681L1376.78 43.1514L1378.06 44.0466L1376.77 45.5564L1373.74 45.5481L1370.29 44.0255L1366.84 44.0162L1365.05 42.3422L1362.71 42.3359L1359.4 41.2548L1354.02 39.7718L1352.51 37.2224L1352.51 35.8518L1352.52 34.8729L1355.14 33.901L1356.25 32.9097L1354.05 30.08L1350.6 28.3284L1350.6 27.6366L1349.5 27.6336L1348.55 26.6387L1346.75 25.5506L1346.75 24.2844L1348.55 24.2892L1350.62 23.4137L1350.62 22.6555L1350.62 21.4558L1349.52 19.7886L1348.57 16.8387L1350.64 14.7988L1349.54 12.5442L1348.6 8.13622L1343.42 8.1222L1339.32 9.09005L1333.75 9.7603L1330.63 9.06651L1326.92 8.0775L1323.31 9.73199L1324.02 12.475L1324.01 14.7267L1322.6 17.8555L1324 19.7194L1326.89 21.3915L1328.74 23.3544L1327.56 24.2324L1326.87 26.58L1325.89 30.0037L1323.96 33.8165L1321.96 35.769L1318.36 35.3677L1316.6 34.7756L1315.62 37.1224L1312.3 38.1903L1310.93 39.6551L1310.34 41.1219L1311.5 43.8662L1311.49 46.7053L1314.51 49.9441L1313.43 51.018L1311.48 51.0128L1309.43 51.9862L1307.48 51.0019L1304.65 49.9173L1303.28 51.9695L1300.64 51.9624L1298.2 53.1305L1300.63 55.095L1302.78 56.863L1306.97 58.147L1306.97 59.2239L1304.62 59.2175L1302.77 59.2125L1304.62 61.3712L1306.47 64.4111L1309.39 65.9854L1312.22 65.9931L1315.54 64.4357L1316.53 61.4035L1318.27 66.0095L1318.26 70.6106L1319.67 73.4534L1319.66 76.6298C1320.38 78.0955 1321.83 81.1798 1321.83 81.7908L1321.82 84.4638L1323.82 87.2377L1327.03 94.4062L1328.45 99.3743L1330.54 102.053L1332.91 104.923L1334.8 110.466L1336.59 115.721L1338.78 116.872L1341.64 116.307L1343.26 113.543L1345.07 112.88L1345.08 111.352Z" fill="white" fill-opacity="0.2"/>
<path d="M1348.5 112.889L1349.46 110.505L1351.17 111.369L1352.88 113.569L1354.96 116.916L1355.62 119.209L1356.33 120.855L1355.61 123.458L1353.66 125.375L1350.5 125.367L1349.42 123.87L1348.47 122.054L1347.81 120.047L1347.82 116.324L1348.5 112.889Z" stroke="white" stroke-opacity="0.3" stroke-width="2"/>
<path d="M1345.08 111.352L1347.84 108.496L1348.52 105.977L1348.52 103.791L1349.48 100.812L1350.17 98.0317L1350.18 95.5474L1349.5 93.2601L1348.56 88.9845L1349.52 86.7016L1351.66 86.3579L1353.58 84.1289L1355.72 83.3398L1356.96 81.1569L1358.15 79.8683L1364.97 73.0302L1366.77 71.0476L1370.22 68.8708L1371.76 66.7882L1372.36 63.8087L1373.69 62.3217L1376.23 62.3286L1379.1 62.3364L1381.49 61.2497L1381.49 58.6661C1381.49 57.9705 1379.71 57.1707 1379.72 56.2764C1379.72 55.5609 1380.25 54.7872 1380.51 54.4898C1379.89 54.19 1378.51 53.5901 1378.04 53.5888C1377.56 53.5875 1376.98 52.7247 1376.75 52.2935L1379.14 50.9087L1380.53 49.2232L1378.05 48.3222L1377.37 45.558L1380.53 46.9377L1381.52 46.9404L1383.31 46.9452L1383.3 48.3364L1384.39 49.8299L1386.17 49.8347L1389.44 49.8436L1392.61 50.9453L1391.91 52.8314L1389.43 53.6197L1388.84 55.0093L1389.43 56.3027L1389.42 57.197L1390.91 57.996L1391.41 56.3081L1391.91 55.0176L1393.49 55.6181L1393.49 57.208L1394.57 59.9934L1395.75 61.2884L1396.55 59.9987L1395.76 58.0092L1396.56 57.2164L1397.06 56.3234L1395.78 53.6369L1399.05 53.6457L1399.05 52.8508L1400.14 50.9657L1400.15 49.8726L1400.15 48.382L1401.14 46.9935L1401.15 45.6224L1401.65 44.1105L1402.54 43.2212L1403.24 41.3736L1406.61 39.9143L1408.5 39.9194L1407.21 38.9609L1409.3 37.3763L1407.91 36.0019L1404.94 35.9939L1405.64 34.0378L1404.45 33.0403L1403.26 33.037L1401.68 34.0271L1399.1 34.0201L1397.11 34.9937L1394.63 37.3365L1393.54 38.9238L1391.95 39.8746L1389.47 40.8009L1391.45 41.3417L1391.44 43.1911L1389.46 44.0775L1386.19 44.0686L1382.72 44.0592L1379.75 43.1594L1379.76 41.31L1379.76 39.8416L1378.67 39.8386L1377.38 40.7681L1376.78 43.1514L1378.06 44.0466L1376.77 45.5564L1373.74 45.5481L1370.29 44.0255L1366.84 44.0162L1365.05 42.3422L1362.71 42.3359L1359.4 41.2548L1354.02 39.7718L1352.51 37.2224L1352.51 35.8518L1352.52 34.8729L1355.14 33.901L1356.25 32.9097L1354.05 30.08L1350.6 28.3284L1350.6 27.6366L1349.5 27.6336L1348.55 26.6387L1346.75 25.5506L1346.75 24.2844L1348.55 24.2892L1350.62 23.4137L1350.62 22.6555L1350.62 21.4558L1349.52 19.7886L1348.57 16.8387L1350.64 14.7988L1349.54 12.5442L1348.6 8.13622L1343.42 8.1222L1339.32 9.09005L1333.75 9.7603L1330.63 9.06651L1326.92 8.0775L1323.31 9.73199L1324.02 12.475L1324.01 14.7267L1322.6 17.8555L1324 19.7194L1326.89 21.3915L1328.74 23.3544L1327.56 24.2324L1326.87 26.58L1325.89 30.0037L1323.96 33.8165L1321.96 35.769L1318.36 35.3677L1316.6 34.7756L1315.62 37.1224L1312.3 38.1903L1310.93 39.6551L1310.34 41.1219L1311.5 43.8662L1311.49 46.7053L1314.51 49.9441L1313.43 51.018L1311.48 51.0128L1309.43 51.9862L1307.48 51.0019L1304.65 49.9173L1303.28 51.9695L1300.64 51.9624L1298.2 53.1305L1300.63 55.095L1302.78 56.863L1306.97 58.147L1306.97 59.2239L1304.62 59.2175L1302.77 59.2125L1304.62 61.3712L1306.47 64.4111L1309.39 65.9854L1312.22 65.9931L1315.54 64.4357L1316.53 61.4035L1318.27 66.0095L1318.26 70.6106L1319.67 73.4534L1319.66 76.6298C1320.38 78.0955 1321.83 81.1798 1321.83 81.7908L1321.82 84.4638L1323.82 87.2377L1327.03 94.4062L1328.45 99.3743L1330.54 102.053L1332.91 104.923L1334.8 110.466L1336.59 115.721L1338.78 116.872L1341.64 116.307L1343.26 113.543L1345.07 112.88L1345.08 111.352Z" stroke="white" stroke-opacity="0.3" stroke-width="2"/>
</g>
<g filter="url(#filter4_b_790_285)">
<path d="M191.059 19.277L183 18L184.143 23.789L186.791 30.1182L187.721 35.2106L191.059 37.9576L192.786 40.8492L193.303 43.5239L191.728 44.9696L189.796 45.548L189.367 46.56L191.059 48.6844L197.56 53.0245L199.469 56.0385V61.9459L202.453 64.5982L206.51 68.9384L208.539 71.3496L210.21 69.5598L209.389 67.4917L206.51 61.9459L204.243 56.0385V53.0245L202.453 50.7339L198.96 44.3443L193.741 35.7187L192.786 30.1182L193.741 25.8217H196.247L198.96 28.5354L200.185 34.0967L204.243 42.2947L208.539 49.1666L212.716 53.0245L211.523 54.4713V56.6299L216.177 60.1417L216.655 61.9459L219.502 64.5982L225.367 73.2785L226.918 79.5883L225.367 83.285V85.9208L226.918 89.3826L231.095 91.8311L238.733 96.6671L250.19 102.845L258.032 106.232L263.905 107.03L267.698 105.435H271.446L276.18 108.325L279.336 112.111L283.842 115H286.266V110.317L288.606 105.435H291.448L295.017 102.845L291.448 100.852L292.367 97.8635L296.003 98.5609L300.057 95.9705L303.985 93.7731L304.654 88.1161L307.746 82.9656L309 80.0105L307.746 78.6595L304.654 78.1529L301.31 78.6595L300.057 79.5883H297.382L294.206 80.0105L292.367 81.4458L291.448 84.3166L289.86 88.1161L288.606 90.9868L286.266 92.8443H283.842L280.081 93.7731L274.23 95.0396L272.391 93.7731L269.132 91.8311L266.875 89.3826L264.535 85.9208L262.529 82.3746L261.108 76.4643L261.851 69.5598V65.5691L263.905 60.1417L265.011 56.6299V52.0007L267.54 46.2541H263.905L257.11 47.5311L255.214 43.2212L252.528 39.2305L249.051 35.7187H244.785H240.044H235.936L234.514 32.3665L228.667 28.5354L225.191 25.8217H219.502L215.078 27.0988L209.389 28.5354L203.384 25.8217L198.96 22.1503L191.059 19.277Z" fill="white" fill-opacity="0.2"/>
<path d="M191.059 19.277L183 18L184.143 23.789L186.791 30.1182L187.721 35.2106L191.059 37.9576L192.786 40.8492L193.303 43.5239L191.728 44.9696L189.796 45.548L189.367 46.56L191.059 48.6844L197.56 53.0245L199.469 56.0385V61.9459L202.453 64.5982L206.51 68.9384L208.539 71.3496L210.21 69.5598L209.389 67.4917L206.51 61.9459L204.243 56.0385V53.0245L202.453 50.7339L198.96 44.3443L193.741 35.7187L192.786 30.1182L193.741 25.8217H196.247L198.96 28.5354L200.185 34.0967L204.243 42.2947L208.539 49.1666L212.716 53.0245L211.523 54.4713V56.6299L216.177 60.1417L216.655 61.9459L219.502 64.5982L225.367 73.2785L226.918 79.5883L225.367 83.285V85.9208L226.918 89.3826L231.095 91.8311L238.733 96.6671L250.19 102.845L258.032 106.232L263.905 107.03L267.698 105.435H271.446L276.18 108.325L279.336 112.111L283.842 115H286.266V110.317L288.606 105.435H291.448L295.017 102.845L291.448 100.852L292.367 97.8635L296.003 98.5609L300.057 95.9705L303.985 93.7731L304.654 88.1161L307.746 82.9656L309 80.0105L307.746 78.6595L304.654 78.1529L301.31 78.6595L300.057 79.5883H297.382L294.206 80.0105L292.367 81.4458L291.448 84.3166L289.86 88.1161L288.606 90.9868L286.266 92.8443H283.842L280.081 93.7731L274.23 95.0396L272.391 93.7731L269.132 91.8311L266.875 89.3826L264.535 85.9208L262.529 82.3746L261.108 76.4643L261.851 69.5598V65.5691L263.905 60.1417L265.011 56.6299V52.0007L267.54 46.2541H263.905L257.11 47.5311L255.214 43.2212L252.528 39.2305L249.051 35.7187H244.785H240.044H235.936L234.514 32.3665L228.667 28.5354L225.191 25.8217H219.502L215.078 27.0988L209.389 28.5354L203.384 25.8217L198.96 22.1503L191.059 19.277Z" stroke="white" stroke-opacity="0.3" stroke-width="2"/>
</g>
<path fill-rule="evenodd" clip-rule="evenodd" d="M189 66H0V67H189V66ZM271 67H449V66H271V67ZM847 66H1011V67H847V66ZM1289 67H1093V66H1289V67ZM741 66H555V67H741V66ZM1600 67H1395V66H1600V67Z" fill="url(#paint0_linear_790_285)"/>
<defs>
<filter id="filter0_b_790_285" x="694.5" y="-30.5" width="185" height="195.746" filterUnits="userSpaceOnUse" color-interpolation-filters="sRGB">
<feFlood flood-opacity="0" result="BackgroundImageFix"/>
<feGaussianBlur in="BackgroundImageFix" stdDeviation="15.5"/>
<feComposite in2="SourceAlpha" operator="in" result="effect1_backgroundBlur_790_285"/>
<feBlend mode="normal" in="SourceGraphic" in2="effect1_backgroundBlur_790_285" result="shape"/>
</filter>
<filter id="filter1_b_790_285" x="992.742" y="5.78906" width="150.432" height="121.211" filterUnits="userSpaceOnUse" color-interpolation-filters="sRGB">
<feFlood flood-opacity="0" result="BackgroundImageFix"/>
<feGaussianBlur in="BackgroundImageFix" stdDeviation="5.5"/>
<feComposite in2="SourceAlpha" operator="in" result="effect1_backgroundBlur_790_285"/>
<feBlend mode="normal" in="SourceGraphic" in2="effect1_backgroundBlur_790_285" result="shape"/>
</filter>
<filter id="filter2_b_790_285" x="448.336" y="-0.980469" width="131.186" height="135.357" filterUnits="userSpaceOnUse" color-interpolation-filters="sRGB">
<feFlood flood-opacity="0" result="BackgroundImageFix"/>
<feGaussianBlur in="BackgroundImageFix" stdDeviation="4"/>
<feComposite in2="SourceAlpha" operator="in" result="effect1_backgroundBlur_790_285"/>
<feBlend mode="normal" in="SourceGraphic" in2="effect1_backgroundBlur_790_285" result="shape"/>
</filter>
<filter id="filter3_b_790_285" x="1288.34" y="-0.980469" width="131.186" height="135.357" filterUnits="userSpaceOnUse" color-interpolation-filters="sRGB">
<feFlood flood-opacity="0" result="BackgroundImageFix"/>
<feGaussianBlur in="BackgroundImageFix" stdDeviation="4"/>
<feComposite in2="SourceAlpha" operator="in" result="effect1_backgroundBlur_790_285"/>
<feBlend mode="normal" in="SourceGraphic" in2="effect1_backgroundBlur_790_285" result="shape"/>
</filter>
<filter id="filter4_b_790_285" x="170.742" y="5.78906" width="150.432" height="121.211" filterUnits="userSpaceOnUse" color-interpolation-filters="sRGB">
<feFlood flood-opacity="0" result="BackgroundImageFix"/>
<feGaussianBlur in="BackgroundImageFix" stdDeviation="5.5"/>
<feComposite in2="SourceAlpha" operator="in" result="effect1_backgroundBlur_790_285"/>
<feBlend mode="normal" in="SourceGraphic" in2="effect1_backgroundBlur_790_285" result="shape"/>
</filter>
<linearGradient id="paint0_linear_790_285" x1="1600" y1="66.9155" x2="0" y2="66.9155" gradientUnits="userSpaceOnUse">
<stop stop-color="white" stop-opacity="0.2"/>
<stop offset="0.497917" stop-color="white" stop-opacity="0.9"/>
<stop offset="1" stop-color="white" stop-opacity="0.2"/>
</linearGradient>
</defs>
</svg>
