<svg width="1082" height="249" viewBox="0 0 1082 249" fill="none" xmlns="http://www.w3.org/2000/svg">
<circle cx="234" cy="186" r="15" fill="white" fill-opacity="0.4"/>
<circle cx="234" cy="186" r="10" fill="white"/>
<circle cx="118" cy="233" r="15" fill="white" fill-opacity="0.4"/>
<circle cx="118" cy="233" r="10" fill="white"/>
<circle cx="864" cy="51" r="15" fill="white" fill-opacity="0.4"/>
<circle cx="864" cy="51" r="10" fill="white"/>
<circle cx="319" cy="104" r="15" fill="white" fill-opacity="0.4"/>
<circle cx="319" cy="104" r="10" fill="white"/>
<circle cx="428" cy="86" r="15" fill="white" fill-opacity="0.4"/>
<circle cx="428" cy="86" r="10" fill="white"/>
<circle cx="533" cy="145" r="15" fill="white" fill-opacity="0.4"/>
<circle cx="533" cy="145" r="10" fill="white"/>
<circle cx="645" cy="139" r="15" fill="white" fill-opacity="0.4"/>
<circle cx="645" cy="139" r="10" fill="white"/>
<circle cx="757" cy="63" r="15" fill="white" fill-opacity="0.4"/>
<circle cx="757" cy="63" r="10" fill="white"/>
<path d="M1002 155C955.6 154.6 924 115.796 914 96.4434C899.281 64.5717 862.5 47 821 47C770.948 47 717 88 684.495 116.849C656.646 141.567 596.5 165 534.5 146C467 88 434.332 85.1069 404.636 83.8113C352.5 83.8113 322 99.5 271 146C245.5 172 190.8 239.7 118 232.5" stroke="white" stroke-width="2" stroke-dasharray="4 5"/>
<path d="M1.40909 230.364H2.79545V239.523H2.90909L9.27273 230.364H10.6364V242H9.22727V232.864H9.11364L2.77273 242H1.40909V230.364ZM17.0596 242.182C16.2414 242.182 15.5369 241.989 14.946 241.602C14.3551 241.216 13.9005 240.684 13.5823 240.006C13.2641 239.328 13.1051 238.553 13.1051 237.682C13.1051 236.795 13.2679 236.013 13.5937 235.335C13.9232 234.653 14.3816 234.121 14.9687 233.739C15.5596 233.352 16.249 233.159 17.0369 233.159C17.6505 233.159 18.2035 233.273 18.696 233.5C19.1884 233.727 19.5918 234.045 19.9062 234.455C20.2206 234.864 20.4157 235.341 20.4914 235.886H19.1505C19.0482 235.489 18.821 235.136 18.4687 234.83C18.1202 234.519 17.6505 234.364 17.0596 234.364C16.5369 234.364 16.0785 234.5 15.6846 234.773C15.2945 235.042 14.9895 235.422 14.7698 235.915C14.5539 236.403 14.446 236.977 14.446 237.636C14.446 238.311 14.552 238.898 14.7641 239.398C14.9801 239.898 15.2831 240.286 15.6732 240.562C16.0672 240.839 16.5293 240.977 17.0596 240.977C17.4081 240.977 17.7244 240.917 18.0085 240.795C18.2926 240.674 18.5331 240.5 18.7301 240.273C18.927 240.045 19.0672 239.773 19.1505 239.455H20.4914C20.4157 239.97 20.2282 240.434 19.9289 240.847C19.6335 241.256 19.2414 241.581 18.7528 241.824C18.2679 242.062 17.7035 242.182 17.0596 242.182ZM21.9189 242V240.75H22.2371C22.4985 240.75 22.7163 240.699 22.8905 240.597C23.0648 240.491 23.2049 240.307 23.311 240.045C23.4208 239.78 23.5041 239.413 23.561 238.943C23.6216 238.47 23.6651 237.867 23.6916 237.136L23.8507 233.273H29.6689V242H28.328V234.523H25.1235L24.9871 237.636C24.9568 238.352 24.8924 238.983 24.7939 239.528C24.6992 240.07 24.5534 240.525 24.3564 240.892C24.1632 241.259 23.9057 241.536 23.5837 241.722C23.2617 241.907 22.8583 242 22.3735 242H21.9189ZM34.9373 242.205C34.3843 242.205 33.8824 242.1 33.4316 241.892C32.9809 241.68 32.6229 241.375 32.3578 240.977C32.0926 240.576 31.9601 240.091 31.9601 239.523C31.9601 239.023 32.0585 238.617 32.2555 238.307C32.4525 237.992 32.7157 237.746 33.0453 237.568C33.3748 237.39 33.7385 237.258 34.1362 237.17C34.5377 237.08 34.9411 237.008 35.3464 236.955C35.8767 236.886 36.3066 236.835 36.6362 236.801C36.9695 236.763 37.212 236.701 37.3635 236.614C37.5188 236.527 37.5964 236.375 37.5964 236.159V236.114C37.5964 235.553 37.443 235.117 37.1362 234.807C36.8332 234.496 36.3729 234.341 35.7555 234.341C35.1154 234.341 34.6135 234.481 34.2498 234.761C33.8862 235.042 33.6305 235.341 33.4828 235.659L32.2101 235.205C32.4373 234.674 32.7404 234.261 33.1191 233.966C33.5017 233.667 33.9184 233.458 34.3691 233.341C34.8237 233.22 35.2707 233.159 35.7101 233.159C35.9904 233.159 36.3123 233.193 36.676 233.261C37.0434 233.326 37.3976 233.46 37.7385 233.665C38.0832 233.869 38.3691 234.178 38.5964 234.591C38.8237 235.004 38.9373 235.557 38.9373 236.25V242H37.5964V240.818H37.5282C37.4373 241.008 37.2858 241.21 37.0737 241.426C36.8616 241.642 36.5794 241.826 36.2271 241.977C35.8748 242.129 35.4449 242.205 34.9373 242.205ZM35.1419 241C35.6722 241 36.1191 240.896 36.4828 240.688C36.8502 240.479 37.1267 240.21 37.3123 239.881C37.5017 239.551 37.5964 239.205 37.5964 238.841V237.614C37.5396 237.682 37.4146 237.744 37.2214 237.801C37.032 237.854 36.8123 237.902 36.5623 237.943C36.3161 237.981 36.0756 238.015 35.8407 238.045C35.6097 238.072 35.4222 238.095 35.2782 238.114C34.9298 238.159 34.604 238.233 34.301 238.335C34.0017 238.434 33.7593 238.583 33.5737 238.784C33.3919 238.981 33.301 239.25 33.301 239.591C33.301 240.057 33.4733 240.409 33.818 240.648C34.1665 240.883 34.6078 241 35.1419 241ZM46.3975 240.182L49.443 233.273H50.7157L46.943 242H45.852L42.1475 233.273H43.3975L46.3975 240.182ZM42.9657 233.273V242H41.6248V233.273H42.9657ZM49.8293 242V233.273H51.1702V242H49.8293ZM56.433 242.205C55.8799 242.205 55.378 242.1 54.9273 241.892C54.4765 241.68 54.1186 241.375 53.8534 240.977C53.5883 240.576 53.4557 240.091 53.4557 239.523C53.4557 239.023 53.5542 238.617 53.7511 238.307C53.9481 237.992 54.2114 237.746 54.5409 237.568C54.8705 237.39 55.2341 237.258 55.6318 237.17C56.0333 237.08 56.4367 237.008 56.842 236.955C57.3723 236.886 57.8023 236.835 58.1318 236.801C58.4652 236.763 58.7076 236.701 58.8591 236.614C59.0144 236.527 59.092 236.375 59.092 236.159V236.114C59.092 235.553 58.9386 235.117 58.6318 234.807C58.3288 234.496 57.8686 234.341 57.2511 234.341C56.611 234.341 56.1091 234.481 55.7455 234.761C55.3818 235.042 55.1261 235.341 54.9784 235.659L53.7057 235.205C53.933 234.674 54.236 234.261 54.6148 233.966C54.9973 233.667 55.414 233.458 55.8648 233.341C56.3193 233.22 56.7663 233.159 57.2057 233.159C57.486 233.159 57.808 233.193 58.1716 233.261C58.539 233.326 58.8932 233.46 59.2341 233.665C59.5788 233.869 59.8648 234.178 60.092 234.591C60.3193 235.004 60.433 235.557 60.433 236.25V242H59.092V240.818H59.0239C58.933 241.008 58.7814 241.21 58.5693 241.426C58.3572 241.642 58.075 241.826 57.7227 241.977C57.3705 242.129 56.9405 242.205 56.433 242.205ZM56.6375 241C57.1678 241 57.6148 240.896 57.9784 240.688C58.3458 240.479 58.6223 240.21 58.808 239.881C58.9973 239.551 59.092 239.205 59.092 238.841V237.614C59.0352 237.682 58.9102 237.744 58.717 237.801C58.5277 237.854 58.308 237.902 58.058 237.943C57.8117 237.981 57.5712 238.015 57.3364 238.045C57.1053 238.072 56.9178 238.095 56.7739 238.114C56.4254 238.159 56.0996 238.233 55.7966 238.335C55.4973 238.434 55.2549 238.583 55.0693 238.784C54.8875 238.981 54.7966 239.25 54.7966 239.591C54.7966 240.057 54.9689 240.409 55.3136 240.648C55.6621 240.883 56.1034 241 56.6375 241ZM69.5977 230L70.2795 230.818C70.0143 231.076 69.7075 231.256 69.359 231.358C69.0105 231.46 68.6166 231.523 68.1772 231.545C67.7378 231.568 67.2492 231.591 66.7113 231.614C66.1052 231.636 65.6034 231.784 65.2056 232.057C64.8079 232.33 64.5011 232.723 64.2852 233.239C64.0693 233.754 63.931 234.386 63.8704 235.136H63.984C64.2795 234.591 64.6886 234.189 65.2113 233.932C65.734 233.674 66.2946 233.545 66.8931 233.545C67.5749 233.545 68.1886 233.705 68.734 234.023C69.2795 234.341 69.7113 234.812 70.0295 235.438C70.3477 236.062 70.5068 236.833 70.5068 237.75C70.5068 238.663 70.3439 239.451 70.0181 240.114C69.6962 240.777 69.2435 241.288 68.6602 241.648C68.0806 242.004 67.4007 242.182 66.6204 242.182C65.8401 242.182 65.1564 241.998 64.5693 241.631C63.9821 241.259 63.5257 240.71 63.1999 239.983C62.8742 239.252 62.7113 238.348 62.7113 237.273V236.341C62.7113 234.398 63.0409 232.924 63.6999 231.92C64.3628 230.917 65.359 230.398 66.6886 230.364C67.1583 230.348 67.5768 230.345 67.9443 230.352C68.3117 230.36 68.6318 230.343 68.9045 230.301C69.1772 230.259 69.4083 230.159 69.5977 230ZM66.6204 240.977C67.1469 240.977 67.5996 240.845 67.9784 240.58C68.3609 240.314 68.6545 239.941 68.859 239.46C69.0636 238.975 69.1659 238.405 69.1659 237.75C69.1659 237.114 69.0617 236.572 68.8534 236.125C68.6488 235.678 68.3552 235.337 67.9727 235.102C67.5901 234.867 67.1318 234.75 66.5977 234.75C66.2075 234.75 65.8571 234.816 65.5465 234.949C65.2359 235.081 64.9708 235.277 64.7511 235.534C64.5314 235.792 64.3609 236.106 64.2397 236.477C64.1223 236.848 64.0598 237.273 64.0522 237.75C64.0522 238.727 64.2814 239.509 64.7397 240.097C65.198 240.684 65.8249 240.977 66.6204 240.977ZM75.3661 242.205C74.813 242.205 74.3112 242.1 73.8604 241.892C73.4096 241.68 73.0517 241.375 72.7865 240.977C72.5214 240.576 72.3888 240.091 72.3888 239.523C72.3888 239.023 72.4873 238.617 72.6843 238.307C72.8812 237.992 73.1445 237.746 73.474 237.568C73.8036 237.39 74.1672 237.258 74.5649 237.17C74.9665 237.08 75.3699 237.008 75.7752 236.955C76.3055 236.886 76.7354 236.835 77.0649 236.801C77.3983 236.763 77.6407 236.701 77.7922 236.614C77.9475 236.527 78.0252 236.375 78.0252 236.159V236.114C78.0252 235.553 77.8718 235.117 77.5649 234.807C77.2619 234.496 76.8017 234.341 76.1843 234.341C75.5441 234.341 75.0422 234.481 74.6786 234.761C74.3149 235.042 74.0593 235.341 73.9115 235.659L72.6388 235.205C72.8661 234.674 73.1691 234.261 73.5479 233.966C73.9305 233.667 74.3471 233.458 74.7979 233.341C75.2524 233.22 75.6994 233.159 76.1388 233.159C76.4191 233.159 76.7411 233.193 77.1047 233.261C77.4721 233.326 77.8263 233.46 78.1672 233.665C78.5119 233.869 78.7979 234.178 79.0252 234.591C79.2524 235.004 79.3661 235.557 79.3661 236.25V242H78.0252V240.818H77.957C77.8661 241.008 77.7146 241.21 77.5024 241.426C77.2903 241.642 77.0081 241.826 76.6559 241.977C76.3036 242.129 75.8737 242.205 75.3661 242.205ZM75.5706 241C76.1009 241 76.5479 240.896 76.9115 240.688C77.279 240.479 77.5555 240.21 77.7411 239.881C77.9305 239.551 78.0252 239.205 78.0252 238.841V237.614C77.9684 237.682 77.8434 237.744 77.6502 237.801C77.4608 237.854 77.2411 237.902 76.9911 237.943C76.7449 237.981 76.5043 238.015 76.2695 238.045C76.0384 238.072 75.8509 238.095 75.707 238.114C75.3585 238.159 75.0327 238.233 74.7297 238.335C74.4305 238.434 74.188 238.583 74.0024 238.784C73.8206 238.981 73.7297 239.25 73.7297 239.591C73.7297 240.057 73.9021 240.409 74.2468 240.648C74.5952 240.883 75.0365 241 75.5706 241ZM81.1217 244.5V240.75H81.849C82.027 240.564 82.1804 240.364 82.3092 240.148C82.438 239.932 82.5497 239.676 82.6444 239.381C82.7429 239.081 82.8262 238.718 82.8944 238.29C82.9626 237.858 83.0232 237.337 83.0762 236.727L83.3717 233.273H88.9172V240.75H90.2581V244.5H88.9172V242H82.4626V244.5H81.1217ZM83.3717 240.75H87.5762V234.523H84.6217L84.3944 236.727C84.2997 237.64 84.1823 238.437 84.0422 239.119C83.902 239.801 83.6785 240.345 83.3717 240.75Z" fill="white"/>
<path d="M170.432 179.364V180.614H164.818V191H163.409V179.364H170.432ZM173.105 189.023L177.31 182.273H178.855V191H177.514V184.25L173.332 191H171.764V182.273H173.105V189.023ZM180.778 191V189.75H181.096C181.358 189.75 181.576 189.699 181.75 189.597C181.924 189.491 182.064 189.307 182.17 189.045C182.28 188.78 182.364 188.413 182.42 187.943C182.481 187.47 182.525 186.867 182.551 186.136L182.71 182.273H188.528V191H187.187V183.523H183.983L183.846 186.636C183.816 187.352 183.752 187.983 183.653 188.528C183.559 189.07 183.413 189.525 183.216 189.892C183.023 190.259 182.765 190.536 182.443 190.722C182.121 190.907 181.718 191 181.233 191H180.778ZM196.615 182.273V183.523H192.569V191H191.229V182.273H196.615ZM200.153 189.023L204.358 182.273H205.903V191H204.562V184.25L200.38 191H198.812V182.273H200.153V189.023ZM207.412 183.523V182.273H214.503V183.523H211.639V191H210.298V183.523H207.412Z" fill="white"/>
<path d="M310.409 129.75H312.25C313.114 129.75 313.881 129.943 314.551 130.33C315.222 130.716 315.748 131.254 316.131 131.943C316.513 132.633 316.705 133.432 316.705 134.341C316.705 135.25 316.513 136.051 316.131 136.744C315.748 137.437 315.222 137.979 314.551 138.369C313.881 138.759 313.114 138.955 312.25 138.955H310.409C309.545 138.955 308.778 138.761 308.108 138.375C307.438 137.989 306.911 137.451 306.528 136.761C306.146 136.072 305.955 135.273 305.955 134.364C305.955 133.455 306.146 132.653 306.528 131.96C306.911 131.267 307.438 130.725 308.108 130.335C308.778 129.945 309.545 129.75 310.409 129.75ZM310.409 131C309.75 131 309.193 131.138 308.739 131.415C308.288 131.691 307.945 132.081 307.71 132.585C307.479 133.089 307.364 133.682 307.364 134.364C307.364 135.038 307.479 135.625 307.71 136.125C307.945 136.625 308.288 137.013 308.739 137.29C309.193 137.566 309.75 137.705 310.409 137.705H312.25C312.909 137.705 313.464 137.566 313.915 137.29C314.369 137.013 314.712 136.623 314.943 136.119C315.178 135.616 315.295 135.023 315.295 134.341C315.295 133.667 315.178 133.08 314.943 132.58C314.712 132.08 314.369 131.691 313.915 131.415C313.464 131.138 312.909 131 312.25 131H310.409ZM312.045 128.159V140.477H310.636V128.159H312.045ZM321.692 140.205C321.139 140.205 320.637 140.1 320.186 139.892C319.735 139.68 319.377 139.375 319.112 138.977C318.847 138.576 318.714 138.091 318.714 137.523C318.714 137.023 318.813 136.617 319.01 136.307C319.207 135.992 319.47 135.746 319.8 135.568C320.129 135.39 320.493 135.258 320.891 135.17C321.292 135.08 321.695 135.008 322.101 134.955C322.631 134.886 323.061 134.835 323.391 134.801C323.724 134.763 323.966 134.701 324.118 134.614C324.273 134.527 324.351 134.375 324.351 134.159V134.114C324.351 133.553 324.197 133.117 323.891 132.807C323.588 132.496 323.127 132.341 322.51 132.341C321.87 132.341 321.368 132.481 321.004 132.761C320.641 133.042 320.385 133.341 320.237 133.659L318.964 133.205C319.192 132.674 319.495 132.261 319.874 131.966C320.256 131.667 320.673 131.458 321.124 131.341C321.578 131.22 322.025 131.159 322.464 131.159C322.745 131.159 323.067 131.193 323.43 131.261C323.798 131.326 324.152 131.46 324.493 131.665C324.838 131.869 325.124 132.178 325.351 132.591C325.578 133.004 325.692 133.557 325.692 134.25V140H324.351V138.818H324.283C324.192 139.008 324.04 139.21 323.828 139.426C323.616 139.642 323.334 139.826 322.981 139.977C322.629 140.129 322.199 140.205 321.692 140.205ZM321.896 139C322.427 139 322.874 138.896 323.237 138.688C323.605 138.479 323.881 138.21 324.067 137.881C324.256 137.551 324.351 137.205 324.351 136.841V135.614C324.294 135.682 324.169 135.744 323.976 135.801C323.786 135.854 323.567 135.902 323.317 135.943C323.07 135.981 322.83 136.015 322.595 136.045C322.364 136.072 322.177 136.095 322.033 136.114C321.684 136.159 321.358 136.233 321.055 136.335C320.756 136.434 320.514 136.583 320.328 136.784C320.146 136.981 320.055 137.25 320.055 137.591C320.055 138.057 320.228 138.409 320.572 138.648C320.921 138.883 321.362 139 321.896 139ZM334.22 135.023V136.273H329.402V135.023H334.22ZM329.72 131.273V140H328.379V131.273H329.72ZM335.243 131.273V140H333.902V131.273H335.243ZM337 142.5V138.75H337.727C337.905 138.564 338.059 138.364 338.187 138.148C338.316 137.932 338.428 137.676 338.523 137.381C338.621 137.081 338.704 136.718 338.773 136.29C338.841 135.858 338.901 135.337 338.954 134.727L339.25 131.273H344.795V138.75H346.136V142.5H344.795V140H338.341V142.5H337ZM339.25 138.75H343.454V132.523H340.5L340.273 134.727C340.178 135.64 340.06 136.437 339.92 137.119C339.78 137.801 339.557 138.345 339.25 138.75ZM351.815 140.182C350.974 140.182 350.249 139.996 349.639 139.625C349.033 139.25 348.565 138.727 348.236 138.057C347.91 137.383 347.747 136.598 347.747 135.705C347.747 134.811 347.91 134.023 348.236 133.341C348.565 132.655 349.023 132.121 349.611 131.739C350.201 131.352 350.891 131.159 351.679 131.159C352.133 131.159 352.582 131.235 353.025 131.386C353.469 131.538 353.872 131.784 354.236 132.125C354.599 132.462 354.889 132.909 355.105 133.466C355.321 134.023 355.429 134.708 355.429 135.523V136.091H348.701V134.932H354.065C354.065 134.439 353.967 134 353.77 133.614C353.576 133.227 353.3 132.922 352.94 132.699C352.584 132.475 352.164 132.364 351.679 132.364C351.145 132.364 350.683 132.496 350.292 132.761C349.906 133.023 349.609 133.364 349.4 133.784C349.192 134.205 349.088 134.655 349.088 135.136V135.909C349.088 136.568 349.201 137.127 349.429 137.585C349.66 138.04 349.98 138.386 350.389 138.625C350.798 138.86 351.273 138.977 351.815 138.977C352.167 138.977 352.486 138.928 352.77 138.83C353.058 138.727 353.306 138.576 353.514 138.375C353.722 138.17 353.883 137.917 353.997 137.614L355.292 137.977C355.156 138.417 354.927 138.803 354.605 139.136C354.283 139.466 353.885 139.723 353.412 139.909C352.938 140.091 352.406 140.182 351.815 140.182ZM357.709 143.273V131.273H359.004V132.659H359.163C359.262 132.508 359.398 132.314 359.572 132.08C359.75 131.841 360.004 131.629 360.334 131.443C360.667 131.254 361.118 131.159 361.686 131.159C362.421 131.159 363.068 131.343 363.629 131.71C364.19 132.078 364.627 132.598 364.941 133.273C365.256 133.947 365.413 134.742 365.413 135.659C365.413 136.583 365.256 137.384 364.941 138.062C364.627 138.737 364.191 139.259 363.635 139.631C363.078 139.998 362.436 140.182 361.709 140.182C361.148 140.182 360.699 140.089 360.362 139.903C360.025 139.714 359.765 139.5 359.584 139.261C359.402 139.019 359.262 138.818 359.163 138.659H359.049V143.273H357.709ZM359.027 135.636C359.027 136.295 359.123 136.877 359.316 137.381C359.51 137.881 359.792 138.273 360.163 138.557C360.534 138.837 360.989 138.977 361.527 138.977C362.087 138.977 362.555 138.83 362.93 138.534C363.309 138.235 363.593 137.833 363.782 137.33C363.976 136.822 364.072 136.258 364.072 135.636C364.072 135.023 363.977 134.47 363.788 133.977C363.602 133.481 363.32 133.089 362.941 132.801C362.566 132.509 362.095 132.364 361.527 132.364C360.981 132.364 360.523 132.502 360.152 132.778C359.78 133.051 359.5 133.434 359.311 133.926C359.121 134.415 359.027 134.985 359.027 135.636Z" fill="white"/>
<path d="M419.409 47.3636H420.818V57.7045H424.909V47.3636H426.318V57.7045H430.409V47.3636H431.818V59H419.409V47.3636ZM437.27 59.2045C436.717 59.2045 436.215 59.1004 435.764 58.892C435.313 58.6799 434.955 58.375 434.69 57.9773C434.425 57.5758 434.293 57.0909 434.293 56.5227C434.293 56.0227 434.391 55.6174 434.588 55.3068C434.785 54.9924 435.048 54.7462 435.378 54.5682C435.707 54.3902 436.071 54.2576 436.469 54.1705C436.87 54.0795 437.274 54.0076 437.679 53.9545C438.209 53.8864 438.639 53.8352 438.969 53.8011C439.302 53.7633 439.544 53.7008 439.696 53.6136C439.851 53.5265 439.929 53.375 439.929 53.1591V53.1136C439.929 52.553 439.776 52.1174 439.469 51.8068C439.166 51.4962 438.705 51.3409 438.088 51.3409C437.448 51.3409 436.946 51.4811 436.582 51.7614C436.219 52.0417 435.963 52.3409 435.815 52.6591L434.543 52.2045C434.77 51.6742 435.073 51.2614 435.452 50.9659C435.834 50.6667 436.251 50.4583 436.702 50.3409C437.156 50.2197 437.603 50.1591 438.043 50.1591C438.323 50.1591 438.645 50.1932 439.008 50.2614C439.376 50.3258 439.73 50.4602 440.071 50.6648C440.416 50.8693 440.702 51.178 440.929 51.5909C441.156 52.0038 441.27 52.5568 441.27 53.25V59H439.929V57.8182H439.861C439.77 58.0076 439.618 58.2102 439.406 58.4261C439.194 58.642 438.912 58.8258 438.56 58.9773C438.207 59.1288 437.777 59.2045 437.27 59.2045ZM437.474 58C438.005 58 438.452 57.8958 438.815 57.6875C439.183 57.4792 439.459 57.2102 439.645 56.8807C439.834 56.5511 439.929 56.2045 439.929 55.8409V54.6136C439.872 54.6818 439.747 54.7443 439.554 54.8011C439.365 54.8542 439.145 54.9015 438.895 54.9432C438.649 54.9811 438.408 55.0152 438.173 55.0455C437.942 55.072 437.755 55.0947 437.611 55.1136C437.262 55.1591 436.936 55.233 436.633 55.3352C436.334 55.4337 436.092 55.5833 435.906 55.7841C435.724 55.9811 435.633 56.25 435.633 56.5909C435.633 57.0568 435.806 57.4091 436.151 57.6477C436.499 57.8826 436.94 58 437.474 58ZM449.798 54.0227V55.2727H444.98V54.0227H449.798ZM445.298 50.2727V59H443.957V50.2727H445.298ZM450.821 50.2727V59H449.48V50.2727H450.821ZM452.578 61.5V57.75H453.305C453.483 57.5644 453.637 57.3636 453.765 57.1477C453.894 56.9318 454.006 56.6761 454.101 56.3807C454.199 56.0814 454.283 55.7178 454.351 55.2898C454.419 54.858 454.479 54.3371 454.533 53.7273L454.828 50.2727H460.373V57.75H461.714V61.5H460.373V59H453.919V61.5H452.578ZM454.828 57.75H459.033V51.5227H456.078L455.851 53.7273C455.756 54.6402 455.639 55.4375 455.498 56.1193C455.358 56.8011 455.135 57.3447 454.828 57.75ZM464.598 62.2727C464.371 62.2727 464.168 62.2538 463.99 62.2159C463.812 62.1818 463.689 62.1477 463.621 62.1136L463.961 60.9318C464.287 61.0152 464.575 61.0455 464.825 61.0227C465.075 61 465.297 60.8883 465.49 60.6875C465.687 60.4905 465.867 60.1705 466.03 59.7273L466.28 59.0455L463.052 50.2727H464.507L466.916 57.2273H467.007L469.416 50.2727H470.871L467.166 60.2727C466.999 60.7235 466.793 61.0966 466.547 61.392C466.3 61.6913 466.014 61.9129 465.689 62.0568C465.367 62.2008 465.003 62.2727 464.598 62.2727ZM472.88 62.2727V50.2727H474.176V51.6591H474.335C474.433 51.5076 474.57 51.3144 474.744 51.0795C474.922 50.8409 475.176 50.6288 475.505 50.4432C475.839 50.2538 476.289 50.1591 476.858 50.1591C477.593 50.1591 478.24 50.3428 478.801 50.7102C479.361 51.0777 479.799 51.5985 480.113 52.2727C480.428 52.947 480.585 53.7424 480.585 54.6591C480.585 55.5833 480.428 56.3845 480.113 57.0625C479.799 57.7367 479.363 58.2595 478.807 58.6307C478.25 58.9981 477.608 59.1818 476.88 59.1818C476.32 59.1818 475.871 59.089 475.534 58.9034C475.197 58.714 474.937 58.5 474.755 58.2614C474.574 58.0189 474.433 57.8182 474.335 57.6591H474.221V62.2727H472.88ZM474.199 54.6364C474.199 55.2955 474.295 55.8769 474.488 56.3807C474.682 56.8807 474.964 57.2727 475.335 57.5568C475.706 57.8371 476.161 57.9773 476.699 57.9773C477.259 57.9773 477.727 57.8295 478.102 57.5341C478.481 57.2348 478.765 56.8333 478.954 56.3295C479.147 55.822 479.244 55.2576 479.244 54.6364C479.244 54.0227 479.149 53.4697 478.96 52.9773C478.774 52.4811 478.492 52.089 478.113 51.8011C477.738 51.5095 477.267 51.3636 476.699 51.3636C476.153 51.3636 475.695 51.5019 475.324 51.7784C474.952 52.0511 474.672 52.4337 474.483 52.9261C474.293 53.4148 474.199 53.9848 474.199 54.6364Z" fill="white"/>
<path d="M511.091 172.364L514.091 177.205H514.182L517.182 172.364H518.841L515.182 178.182L518.841 184H517.182L514.182 179.25H514.091L511.091 184H509.432L513.182 178.182L509.432 172.364H511.091ZM521.597 187.273C521.369 187.273 521.167 187.254 520.989 187.216C520.811 187.182 520.687 187.148 520.619 187.114L520.96 185.932C521.286 186.015 521.574 186.045 521.824 186.023C522.074 186 522.295 185.888 522.489 185.688C522.686 185.491 522.865 185.17 523.028 184.727L523.278 184.045L520.051 175.273H521.506L523.915 182.227H524.006L526.415 175.273H527.869L524.165 185.273C523.998 185.723 523.792 186.097 523.545 186.392C523.299 186.691 523.013 186.913 522.687 187.057C522.365 187.201 522.002 187.273 521.597 187.273ZM535.72 179.023V180.273H530.902V179.023H535.72ZM531.22 175.273V184H529.879V175.273H531.22ZM536.743 175.273V184H535.402V175.273H536.743ZM538.886 181.773H540.318C540.348 182.167 540.526 182.466 540.852 182.67C541.182 182.875 541.61 182.977 542.136 182.977C542.674 182.977 543.134 182.867 543.517 182.648C543.899 182.424 544.091 182.064 544.091 181.568C544.091 181.277 544.019 181.023 543.875 180.807C543.731 180.587 543.528 180.417 543.267 180.295C543.006 180.174 542.697 180.114 542.341 180.114H540.841V178.909H542.341C542.875 178.909 543.269 178.788 543.523 178.545C543.78 178.303 543.909 178 543.909 177.636C543.909 177.246 543.771 176.934 543.494 176.699C543.218 176.46 542.826 176.341 542.318 176.341C541.807 176.341 541.381 176.456 541.04 176.688C540.699 176.915 540.519 177.208 540.5 177.568H539.091C539.106 177.098 539.25 176.684 539.523 176.324C539.795 175.96 540.166 175.676 540.636 175.472C541.106 175.263 541.644 175.159 542.25 175.159C542.863 175.159 543.396 175.267 543.846 175.483C544.301 175.695 544.651 175.985 544.898 176.352C545.148 176.716 545.273 177.129 545.273 177.591C545.273 178.083 545.134 178.481 544.858 178.784C544.581 179.087 544.235 179.303 543.818 179.432V179.523C544.148 179.545 544.434 179.652 544.676 179.841C544.922 180.027 545.113 180.271 545.25 180.574C545.386 180.873 545.454 181.205 545.454 181.568C545.454 182.098 545.312 182.561 545.028 182.955C544.744 183.345 544.354 183.648 543.858 183.864C543.362 184.076 542.795 184.182 542.159 184.182C541.541 184.182 540.988 184.081 540.5 183.881C540.011 183.676 539.623 183.394 539.335 183.034C539.051 182.67 538.901 182.25 538.886 181.773ZM550.146 184.205C549.593 184.205 549.091 184.1 548.64 183.892C548.19 183.68 547.832 183.375 547.567 182.977C547.301 182.576 547.169 182.091 547.169 181.523C547.169 181.023 547.267 180.617 547.464 180.307C547.661 179.992 547.924 179.746 548.254 179.568C548.584 179.39 548.947 179.258 549.345 179.17C549.746 179.08 550.15 179.008 550.555 178.955C551.085 178.886 551.515 178.835 551.845 178.801C552.178 178.763 552.421 178.701 552.572 178.614C552.728 178.527 552.805 178.375 552.805 178.159V178.114C552.805 177.553 552.652 177.117 552.345 176.807C552.042 176.496 551.582 176.341 550.964 176.341C550.324 176.341 549.822 176.481 549.459 176.761C549.095 177.042 548.839 177.341 548.692 177.659L547.419 177.205C547.646 176.674 547.949 176.261 548.328 175.966C548.71 175.667 549.127 175.458 549.578 175.341C550.032 175.22 550.479 175.159 550.919 175.159C551.199 175.159 551.521 175.193 551.885 175.261C552.252 175.326 552.606 175.46 552.947 175.665C553.292 175.869 553.578 176.178 553.805 176.591C554.032 177.004 554.146 177.557 554.146 178.25V184H552.805V182.818H552.737C552.646 183.008 552.495 183.21 552.282 183.426C552.07 183.642 551.788 183.826 551.436 183.977C551.084 184.129 550.654 184.205 550.146 184.205ZM550.351 183C550.881 183 551.328 182.896 551.692 182.688C552.059 182.479 552.335 182.21 552.521 181.881C552.71 181.551 552.805 181.205 552.805 180.841V179.614C552.748 179.682 552.623 179.744 552.43 179.801C552.241 179.854 552.021 179.902 551.771 179.943C551.525 179.981 551.284 180.015 551.049 180.045C550.818 180.072 550.631 180.095 550.487 180.114C550.139 180.159 549.813 180.233 549.51 180.335C549.21 180.434 548.968 180.583 548.782 180.784C548.601 180.981 548.51 181.25 548.51 181.591C548.51 182.057 548.682 182.409 549.027 182.648C549.375 182.883 549.817 183 550.351 183Z" fill="white"/>
<path d="M739.886 107H738.409L742.682 95.3636H744.136L748.409 107H746.932L743.455 97.2045H743.364L739.886 107ZM740.432 102.455H746.386V103.705H740.432V102.455ZM753.825 107.182C753.007 107.182 752.302 106.989 751.712 106.602C751.121 106.216 750.666 105.684 750.348 105.006C750.03 104.328 749.871 103.553 749.871 102.682C749.871 101.795 750.034 101.013 750.359 100.335C750.689 99.6534 751.147 99.1212 751.734 98.7386C752.325 98.3523 753.015 98.1591 753.802 98.1591C754.416 98.1591 754.969 98.2727 755.462 98.5C755.954 98.7273 756.357 99.0455 756.672 99.4545C756.986 99.8636 757.181 100.341 757.257 100.886H755.916C755.814 100.489 755.587 100.136 755.234 99.8295C754.886 99.5189 754.416 99.3636 753.825 99.3636C753.302 99.3636 752.844 99.5 752.45 99.7727C752.06 100.042 751.755 100.422 751.535 100.915C751.32 101.403 751.212 101.977 751.212 102.636C751.212 103.311 751.318 103.898 751.53 104.398C751.746 104.898 752.049 105.286 752.439 105.562C752.833 105.839 753.295 105.977 753.825 105.977C754.174 105.977 754.49 105.917 754.774 105.795C755.058 105.674 755.299 105.5 755.496 105.273C755.693 105.045 755.833 104.773 755.916 104.455H757.257C757.181 104.97 756.994 105.434 756.695 105.847C756.399 106.256 756.007 106.581 755.518 106.824C755.034 107.062 754.469 107.182 753.825 107.182ZM758.77 99.5227V98.2727H765.861V99.5227H762.997V107H761.656V99.5227H758.77ZM771.149 107.182C770.361 107.182 769.67 106.994 769.075 106.619C768.484 106.244 768.022 105.72 767.689 105.045C767.359 104.371 767.194 103.583 767.194 102.682C767.194 101.773 767.359 100.979 767.689 100.301C768.022 99.6231 768.484 99.0966 769.075 98.7216C769.67 98.3466 770.361 98.1591 771.149 98.1591C771.937 98.1591 772.626 98.3466 773.217 98.7216C773.812 99.0966 774.274 99.6231 774.604 100.301C774.937 100.979 775.104 101.773 775.104 102.682C775.104 103.583 774.937 104.371 774.604 105.045C774.274 105.72 773.812 106.244 773.217 106.619C772.626 106.994 771.937 107.182 771.149 107.182ZM771.149 105.977C771.747 105.977 772.24 105.824 772.626 105.517C773.013 105.21 773.299 104.807 773.484 104.307C773.67 103.807 773.763 103.265 773.763 102.682C773.763 102.098 773.67 101.555 773.484 101.051C773.299 100.547 773.013 100.14 772.626 99.8295C772.24 99.5189 771.747 99.3636 771.149 99.3636C770.55 99.3636 770.058 99.5189 769.672 99.8295C769.285 100.14 768.999 100.547 768.814 101.051C768.628 101.555 768.535 102.098 768.535 102.682C768.535 103.265 768.628 103.807 768.814 104.307C768.999 104.807 769.285 105.21 769.672 105.517C770.058 105.824 770.55 105.977 771.149 105.977ZM777.39 110.273V98.2727H778.686V99.6591H778.845C778.943 99.5076 779.08 99.3144 779.254 99.0795C779.432 98.8409 779.686 98.6288 780.015 98.4432C780.349 98.2538 780.799 98.1591 781.368 98.1591C782.103 98.1591 782.75 98.3428 783.311 98.7102C783.871 99.0777 784.309 99.5985 784.623 100.273C784.938 100.947 785.095 101.742 785.095 102.659C785.095 103.583 784.938 104.384 784.623 105.062C784.309 105.737 783.873 106.259 783.317 106.631C782.76 106.998 782.118 107.182 781.39 107.182C780.83 107.182 780.381 107.089 780.044 106.903C779.707 106.714 779.447 106.5 779.265 106.261C779.084 106.019 778.943 105.818 778.845 105.659H778.731V110.273H777.39ZM778.709 102.636C778.709 103.295 778.805 103.877 778.998 104.381C779.192 104.881 779.474 105.273 779.845 105.557C780.216 105.837 780.671 105.977 781.209 105.977C781.769 105.977 782.237 105.83 782.612 105.534C782.991 105.235 783.275 104.833 783.464 104.33C783.657 103.822 783.754 103.258 783.754 102.636C783.754 102.023 783.659 101.47 783.47 100.977C783.284 100.481 783.002 100.089 782.623 99.8011C782.248 99.5095 781.777 99.3636 781.209 99.3636C780.663 99.3636 780.205 99.5019 779.834 99.7784C779.462 100.051 779.182 100.434 778.993 100.926C778.803 101.415 778.709 101.985 778.709 102.636Z" fill="white"/>
<path d="M829.227 19V10.2727H836.091V19H834.75V11.5227H830.568V19H829.227ZM838.007 19V17.75H838.325C838.587 17.75 838.804 17.6989 838.979 17.5966C839.153 17.4905 839.293 17.3068 839.399 17.0455C839.509 16.7803 839.592 16.4129 839.649 15.9432C839.71 15.4697 839.753 14.8674 839.78 14.1364L839.939 10.2727H845.757V19H844.416V11.5227H841.212L841.075 14.6364C841.045 15.3523 840.981 15.983 840.882 16.5284C840.787 17.0701 840.642 17.5246 840.445 17.892C840.251 18.2595 839.994 18.536 839.672 18.7216C839.35 18.9072 838.946 19 838.462 19H838.007ZM851.025 19.2045C850.472 19.2045 849.971 19.1004 849.52 18.892C849.069 18.6799 848.711 18.375 848.446 17.9773C848.181 17.5758 848.048 17.0909 848.048 16.5227C848.048 16.0227 848.147 15.6174 848.344 15.3068C848.541 14.9924 848.804 14.7462 849.133 14.5682C849.463 14.3902 849.827 14.2576 850.224 14.1705C850.626 14.0795 851.029 14.0076 851.435 13.9545C851.965 13.8864 852.395 13.8352 852.724 13.8011C853.058 13.7633 853.3 13.7008 853.452 13.6136C853.607 13.5265 853.685 13.375 853.685 13.1591V13.1136C853.685 12.553 853.531 12.1174 853.224 11.8068C852.921 11.4962 852.461 11.3409 851.844 11.3409C851.203 11.3409 850.702 11.4811 850.338 11.7614C849.974 12.0417 849.719 12.3409 849.571 12.6591L848.298 12.2045C848.525 11.6742 848.828 11.2614 849.207 10.9659C849.59 10.6667 850.007 10.4583 850.457 10.3409C850.912 10.2197 851.359 10.1591 851.798 10.1591C852.078 10.1591 852.4 10.1932 852.764 10.2614C853.132 10.3258 853.486 10.4602 853.827 10.6648C854.171 10.8693 854.457 11.178 854.685 11.5909C854.912 12.0038 855.025 12.5568 855.025 13.25V19H853.685V17.8182H853.616C853.525 18.0076 853.374 18.2102 853.162 18.4261C852.95 18.642 852.667 18.8258 852.315 18.9773C851.963 19.1288 851.533 19.2045 851.025 19.2045ZM851.23 18C851.76 18 852.207 17.8958 852.571 17.6875C852.938 17.4792 853.215 17.2102 853.4 16.8807C853.59 16.5511 853.685 16.2045 853.685 15.8409V14.6136C853.628 14.6818 853.503 14.7443 853.31 14.8011C853.12 14.8542 852.9 14.9015 852.65 14.9432C852.404 14.9811 852.164 15.0152 851.929 15.0455C851.698 15.072 851.51 15.0947 851.366 15.1136C851.018 15.1591 850.692 15.233 850.389 15.3352C850.09 15.4337 849.847 15.5833 849.662 15.7841C849.48 15.9811 849.389 16.25 849.389 16.5909C849.389 17.0568 849.561 17.4091 849.906 17.6477C850.255 17.8826 850.696 18 851.23 18ZM856.525 11.5227V10.2727H863.616V11.5227H860.753V19H859.412V11.5227H856.525ZM868.905 19.1818C868.117 19.1818 867.425 18.9943 866.831 18.6193C866.24 18.2443 865.778 17.7197 865.444 17.0455C865.115 16.3712 864.95 15.5833 864.95 14.6818C864.95 13.7727 865.115 12.9792 865.444 12.3011C865.778 11.6231 866.24 11.0966 866.831 10.7216C867.425 10.3466 868.117 10.1591 868.905 10.1591C869.692 10.1591 870.382 10.3466 870.973 10.7216C871.567 11.0966 872.03 11.6231 872.359 12.3011C872.692 12.9792 872.859 13.7727 872.859 14.6818C872.859 15.5833 872.692 16.3712 872.359 17.0455C872.03 17.7197 871.567 18.2443 870.973 18.6193C870.382 18.9943 869.692 19.1818 868.905 19.1818ZM868.905 17.9773C869.503 17.9773 869.996 17.8239 870.382 17.517C870.768 17.2102 871.054 16.8068 871.24 16.3068C871.425 15.8068 871.518 15.2652 871.518 14.6818C871.518 14.0985 871.425 13.5549 871.24 13.0511C871.054 12.5473 870.768 12.1402 870.382 11.8295C869.996 11.5189 869.503 11.3636 868.905 11.3636C868.306 11.3636 867.814 11.5189 867.427 11.8295C867.041 12.1402 866.755 12.5473 866.569 13.0511C866.384 13.5549 866.291 14.0985 866.291 14.6818C866.291 15.2652 866.384 15.8068 866.569 16.3068C866.755 16.8068 867.041 17.2102 867.427 17.517C867.814 17.8239 868.306 17.9773 868.905 17.9773ZM879.068 21.8182V17.75H879.818C880.075 17.5152 880.318 17.1837 880.545 16.7557C880.776 16.3239 880.971 15.7481 881.13 15.0284C881.293 14.3049 881.401 13.3864 881.454 12.2727L881.704 7.36364H888.613V17.75H889.954V21.7955H888.613V19H880.409V21.8182H879.068ZM881.5 17.75H887.272V8.61364H882.977L882.795 12.2727C882.75 13.1212 882.67 13.8902 882.556 14.5795C882.443 15.2652 882.297 15.8731 882.119 16.4034C881.941 16.9299 881.735 17.3788 881.5 17.75ZM895.801 19.1818C894.96 19.1818 894.234 18.9962 893.625 18.625C893.019 18.25 892.551 17.7273 892.221 17.0568C891.895 16.3826 891.733 15.5985 891.733 14.7045C891.733 13.8106 891.895 13.0227 892.221 12.3409C892.551 11.6553 893.009 11.1212 893.596 10.7386C894.187 10.3523 894.876 10.1591 895.664 10.1591C896.119 10.1591 896.568 10.2348 897.011 10.3864C897.454 10.5379 897.858 10.7841 898.221 11.125C898.585 11.4621 898.875 11.9091 899.091 12.4659C899.306 13.0227 899.414 13.7083 899.414 14.5227V15.0909H892.687V13.9318H898.051C898.051 13.4394 897.952 13 897.755 12.6136C897.562 12.2273 897.286 11.9223 896.926 11.6989C896.57 11.4754 896.149 11.3636 895.664 11.3636C895.13 11.3636 894.668 11.4962 894.278 11.7614C893.892 12.0227 893.594 12.3636 893.386 12.7841C893.178 13.2045 893.073 13.6553 893.073 14.1364V14.9091C893.073 15.5682 893.187 16.1269 893.414 16.5852C893.645 17.0398 893.966 17.3864 894.375 17.625C894.784 17.8598 895.259 17.9773 895.801 17.9773C896.153 17.9773 896.471 17.928 896.755 17.8295C897.043 17.7273 897.291 17.5758 897.5 17.375C897.708 17.1705 897.869 16.9167 897.983 16.6136L899.278 16.9773C899.142 17.4167 898.912 17.803 898.591 18.1364C898.269 18.4659 897.871 18.7235 897.397 18.9091C896.924 19.0909 896.392 19.1818 895.801 19.1818ZM905.24 19.1818C904.452 19.1818 903.76 18.9943 903.166 18.6193C902.575 18.2443 902.113 17.7197 901.779 17.0455C901.45 16.3712 901.285 15.5833 901.285 14.6818C901.285 13.7727 901.45 12.9792 901.779 12.3011C902.113 11.6231 902.575 11.0966 903.166 10.7216C903.76 10.3466 904.452 10.1591 905.24 10.1591C906.027 10.1591 906.717 10.3466 907.308 10.7216C907.902 11.0966 908.365 11.6231 908.694 12.3011C909.027 12.9792 909.194 13.7727 909.194 14.6818C909.194 15.5833 909.027 16.3712 908.694 17.0455C908.365 17.7197 907.902 18.2443 907.308 18.6193C906.717 18.9943 906.027 19.1818 905.24 19.1818ZM905.24 17.9773C905.838 17.9773 906.331 17.8239 906.717 17.517C907.103 17.2102 907.389 16.8068 907.575 16.3068C907.76 15.8068 907.853 15.2652 907.853 14.6818C907.853 14.0985 907.76 13.5549 907.575 13.0511C907.389 12.5473 907.103 12.1402 906.717 11.8295C906.331 11.5189 905.838 11.3636 905.24 11.3636C904.641 11.3636 904.149 11.5189 903.762 11.8295C903.376 12.1402 903.09 12.5473 902.904 13.0511C902.719 13.5549 902.626 14.0985 902.626 14.6818C902.626 15.2652 902.719 15.8068 902.904 16.3068C903.09 16.8068 903.376 17.2102 903.762 17.517C904.149 17.8239 904.641 17.9773 905.24 17.9773ZM915.026 19.1818C914.208 19.1818 913.504 18.9886 912.913 18.6023C912.322 18.2159 911.867 17.6837 911.549 17.0057C911.231 16.3277 911.072 15.553 911.072 14.6818C911.072 13.7955 911.235 13.0133 911.561 12.3352C911.89 11.6534 912.348 11.1212 912.936 10.7386C913.526 10.3523 914.216 10.1591 915.004 10.1591C915.617 10.1591 916.17 10.2727 916.663 10.5C917.155 10.7273 917.559 11.0455 917.873 11.4545C918.187 11.8636 918.383 12.3409 918.458 12.8864H917.117C917.015 12.4886 916.788 12.1364 916.436 11.8295C916.087 11.5189 915.617 11.3636 915.026 11.3636C914.504 11.3636 914.045 11.5 913.651 11.7727C913.261 12.0417 912.956 12.4223 912.737 12.9148C912.521 13.4034 912.413 13.9773 912.413 14.6364C912.413 15.3106 912.519 15.8977 912.731 16.3977C912.947 16.8977 913.25 17.286 913.64 17.5625C914.034 17.839 914.496 17.9773 915.026 17.9773C915.375 17.9773 915.691 17.9167 915.975 17.7955C916.259 17.6742 916.5 17.5 916.697 17.2727C916.894 17.0455 917.034 16.7727 917.117 16.4545H918.458C918.383 16.9697 918.195 17.4337 917.896 17.8466C917.6 18.2557 917.208 18.5814 916.72 18.8239C916.235 19.0625 915.67 19.1818 915.026 19.1818ZM923.227 19.2045C922.674 19.2045 922.172 19.1004 921.721 18.892C921.27 18.6799 920.912 18.375 920.647 17.9773C920.382 17.5758 920.249 17.0909 920.249 16.5227C920.249 16.0227 920.348 15.6174 920.545 15.3068C920.742 14.9924 921.005 14.7462 921.335 14.5682C921.664 14.3902 922.028 14.2576 922.426 14.1705C922.827 14.0795 923.23 14.0076 923.636 13.9545C924.166 13.8864 924.596 13.8352 924.926 13.8011C925.259 13.7633 925.501 13.7008 925.653 13.6136C925.808 13.5265 925.886 13.375 925.886 13.1591V13.1136C925.886 12.553 925.732 12.1174 925.426 11.8068C925.123 11.4962 924.662 11.3409 924.045 11.3409C923.405 11.3409 922.903 11.4811 922.539 11.7614C922.176 12.0417 921.92 12.3409 921.772 12.6591L920.499 12.2045C920.727 11.6742 921.03 11.2614 921.409 10.9659C921.791 10.6667 922.208 10.4583 922.659 10.3409C923.113 10.2197 923.56 10.1591 923.999 10.1591C924.28 10.1591 924.602 10.1932 924.965 10.2614C925.333 10.3258 925.687 10.4602 926.028 10.6648C926.373 10.8693 926.659 11.178 926.886 11.5909C927.113 12.0038 927.227 12.5568 927.227 13.25V19H925.886V17.8182H925.818C925.727 18.0076 925.575 18.2102 925.363 18.4261C925.151 18.642 924.869 18.8258 924.516 18.9773C924.164 19.1288 923.734 19.2045 923.227 19.2045ZM923.431 18C923.962 18 924.409 17.8958 924.772 17.6875C925.14 17.4792 925.416 17.2102 925.602 16.8807C925.791 16.5511 925.886 16.2045 925.886 15.8409V14.6136C925.829 14.6818 925.704 14.7443 925.511 14.8011C925.321 14.8542 925.102 14.9015 924.852 14.9432C924.605 14.9811 924.365 15.0152 924.13 15.0455C923.899 15.072 923.712 15.0947 923.568 15.1136C923.219 15.1591 922.893 15.233 922.59 15.3352C922.291 15.4337 922.049 15.5833 921.863 15.7841C921.681 15.9811 921.59 16.25 921.59 16.5909C921.59 17.0568 921.763 17.4091 922.107 17.6477C922.456 17.8826 922.897 18 923.431 18ZM931.255 17.0227L935.46 10.2727H937.005V19H935.664V12.25L931.482 19H929.914V10.2727H931.255V17.0227ZM934.573 7.36364H935.823C935.823 7.97727 935.611 8.47917 935.187 8.86932C934.763 9.25947 934.187 9.45455 933.46 9.45455C932.744 9.45455 932.174 9.25947 931.749 8.86932C931.329 8.47917 931.119 7.97727 931.119 7.36364H932.369C932.369 7.65909 932.45 7.91856 932.613 8.14205C932.78 8.36553 933.062 8.47727 933.46 8.47727C933.857 8.47727 934.141 8.36553 934.312 8.14205C934.486 7.91856 934.573 7.65909 934.573 7.36364Z" fill="white"/>
<path d="M930.773 100H929.364C929.28 99.5947 929.134 99.2386 928.926 98.9318C928.722 98.625 928.472 98.3674 928.176 98.1591C927.884 97.947 927.561 97.7879 927.205 97.6818C926.848 97.5758 926.477 97.5227 926.091 97.5227C925.386 97.5227 924.748 97.7008 924.176 98.0568C923.608 98.4129 923.155 98.9375 922.818 99.6307C922.485 100.324 922.318 101.174 922.318 102.182C922.318 103.189 922.485 104.04 922.818 104.733C923.155 105.426 923.608 105.951 924.176 106.307C924.748 106.663 925.386 106.841 926.091 106.841C926.477 106.841 926.848 106.788 927.205 106.682C927.561 106.576 927.884 106.419 928.176 106.21C928.472 105.998 928.722 105.739 928.926 105.432C929.134 105.121 929.28 104.765 929.364 104.364H930.773C930.667 104.958 930.473 105.491 930.193 105.96C929.913 106.43 929.564 106.83 929.148 107.159C928.731 107.485 928.263 107.733 927.744 107.903C927.229 108.074 926.678 108.159 926.091 108.159C925.098 108.159 924.216 107.917 923.443 107.432C922.67 106.947 922.063 106.258 921.619 105.364C921.176 104.47 920.955 103.409 920.955 102.182C920.955 100.955 921.176 99.8939 921.619 99C922.063 98.1061 922.67 97.4167 923.443 96.9318C924.216 96.447 925.098 96.2045 926.091 96.2045C926.678 96.2045 927.229 96.2898 927.744 96.4602C928.263 96.6307 928.731 96.8807 929.148 97.2102C929.564 97.536 929.913 97.9337 930.193 98.4034C930.473 98.8693 930.667 99.4015 930.773 100ZM933.108 108V99.2727H934.449V103.068H935.335L938.472 99.2727H940.199L936.676 103.477L940.244 108H938.517L935.653 104.318H934.449V108H933.108ZM944.51 108.205C943.957 108.205 943.455 108.1 943.004 107.892C942.553 107.68 942.195 107.375 941.93 106.977C941.665 106.576 941.533 106.091 941.533 105.523C941.533 105.023 941.631 104.617 941.828 104.307C942.025 103.992 942.288 103.746 942.618 103.568C942.947 103.39 943.311 103.258 943.709 103.17C944.11 103.08 944.514 103.008 944.919 102.955C945.449 102.886 945.879 102.835 946.209 102.801C946.542 102.763 946.784 102.701 946.936 102.614C947.091 102.527 947.169 102.375 947.169 102.159V102.114C947.169 101.553 947.016 101.117 946.709 100.807C946.406 100.496 945.945 100.341 945.328 100.341C944.688 100.341 944.186 100.481 943.822 100.761C943.459 101.042 943.203 101.341 943.055 101.659L941.783 101.205C942.01 100.674 942.313 100.261 942.692 99.9659C943.074 99.6667 943.491 99.4583 943.942 99.3409C944.396 99.2197 944.843 99.1591 945.283 99.1591C945.563 99.1591 945.885 99.1932 946.248 99.2614C946.616 99.3258 946.97 99.4602 947.311 99.6648C947.656 99.8693 947.942 100.178 948.169 100.591C948.396 101.004 948.51 101.557 948.51 102.25V108H947.169V106.818H947.101C947.01 107.008 946.858 107.21 946.646 107.426C946.434 107.642 946.152 107.826 945.8 107.977C945.447 108.129 945.017 108.205 944.51 108.205ZM944.714 107C945.245 107 945.692 106.896 946.055 106.688C946.423 106.479 946.699 106.21 946.885 105.881C947.074 105.551 947.169 105.205 947.169 104.841V103.614C947.112 103.682 946.987 103.744 946.794 103.801C946.605 103.854 946.385 103.902 946.135 103.943C945.889 103.981 945.648 104.015 945.413 104.045C945.182 104.072 944.995 104.095 944.851 104.114C944.502 104.159 944.176 104.233 943.873 104.335C943.574 104.434 943.332 104.583 943.146 104.784C942.964 104.981 942.873 105.25 942.873 105.591C942.873 106.057 943.046 106.409 943.391 106.648C943.739 106.883 944.18 107 944.714 107ZM951.197 111.273V99.2727H952.493V100.659H952.652C952.75 100.508 952.887 100.314 953.061 100.08C953.239 99.8409 953.493 99.6288 953.822 99.4432C954.156 99.2538 954.606 99.1591 955.175 99.1591C955.909 99.1591 956.557 99.3428 957.118 99.7102C957.678 100.078 958.116 100.598 958.43 101.273C958.745 101.947 958.902 102.742 958.902 103.659C958.902 104.583 958.745 105.384 958.43 106.062C958.116 106.737 957.68 107.259 957.123 107.631C956.567 107.998 955.925 108.182 955.197 108.182C954.637 108.182 954.188 108.089 953.851 107.903C953.514 107.714 953.254 107.5 953.072 107.261C952.89 107.019 952.75 106.818 952.652 106.659H952.538V111.273H951.197ZM952.515 103.636C952.515 104.295 952.612 104.877 952.805 105.381C952.998 105.881 953.281 106.273 953.652 106.557C954.023 106.837 954.478 106.977 955.015 106.977C955.576 106.977 956.044 106.83 956.419 106.534C956.798 106.235 957.082 105.833 957.271 105.33C957.464 104.822 957.561 104.258 957.561 103.636C957.561 103.023 957.466 102.47 957.277 101.977C957.091 101.481 956.809 101.089 956.43 100.801C956.055 100.509 955.584 100.364 955.015 100.364C954.47 100.364 954.012 100.502 953.64 100.778C953.269 101.051 952.989 101.434 952.8 101.926C952.61 102.415 952.515 102.985 952.515 103.636ZM960.255 110.5V106.75H960.983C961.161 106.564 961.314 106.364 961.443 106.148C961.572 105.932 961.683 105.676 961.778 105.381C961.877 105.081 961.96 104.718 962.028 104.29C962.096 103.858 962.157 103.337 962.21 102.727L962.505 99.2727H968.051V106.75H969.392V110.5H968.051V108H961.596V110.5H960.255ZM962.505 106.75H966.71V100.523H963.755L963.528 102.727C963.433 103.64 963.316 104.437 963.176 105.119C963.036 105.801 962.812 106.345 962.505 106.75ZM972.275 111.273C972.048 111.273 971.845 111.254 971.667 111.216C971.489 111.182 971.366 111.148 971.298 111.114L971.639 109.932C971.965 110.015 972.253 110.045 972.503 110.023C972.753 110 972.974 109.888 973.167 109.688C973.364 109.491 973.544 109.17 973.707 108.727L973.957 108.045L970.73 99.2727H972.184L974.593 106.227H974.684L977.093 99.2727H978.548L974.843 109.273C974.677 109.723 974.47 110.097 974.224 110.392C973.978 110.691 973.692 110.913 973.366 111.057C973.044 111.201 972.681 111.273 972.275 111.273Z" fill="white"/>
<path d="M992.409 179.364H993.795V188.523H993.909L1000.27 179.364H1001.64V191H1000.23V181.864H1000.11L993.773 191H992.409V179.364ZM1008.06 191.182C1007.24 191.182 1006.54 190.989 1005.95 190.602C1005.36 190.216 1004.9 189.684 1004.58 189.006C1004.26 188.328 1004.11 187.553 1004.11 186.682C1004.11 185.795 1004.27 185.013 1004.59 184.335C1004.92 183.653 1005.38 183.121 1005.97 182.739C1006.56 182.352 1007.25 182.159 1008.04 182.159C1008.65 182.159 1009.2 182.273 1009.7 182.5C1010.19 182.727 1010.59 183.045 1010.91 183.455C1011.22 183.864 1011.42 184.341 1011.49 184.886H1010.15C1010.05 184.489 1009.82 184.136 1009.47 183.83C1009.12 183.519 1008.65 183.364 1008.06 183.364C1007.54 183.364 1007.08 183.5 1006.68 183.773C1006.29 184.042 1005.99 184.422 1005.77 184.915C1005.55 185.403 1005.45 185.977 1005.45 186.636C1005.45 187.311 1005.55 187.898 1005.76 188.398C1005.98 188.898 1006.28 189.286 1006.67 189.562C1007.07 189.839 1007.53 189.977 1008.06 189.977C1008.41 189.977 1008.72 189.917 1009.01 189.795C1009.29 189.674 1009.53 189.5 1009.73 189.273C1009.93 189.045 1010.07 188.773 1010.15 188.455H1011.49C1011.42 188.97 1011.23 189.434 1010.93 189.847C1010.63 190.256 1010.24 190.581 1009.75 190.824C1009.27 191.062 1008.7 191.182 1008.06 191.182ZM1012.92 191V189.75H1013.24C1013.5 189.75 1013.72 189.699 1013.89 189.597C1014.06 189.491 1014.2 189.307 1014.31 189.045C1014.42 188.78 1014.5 188.413 1014.56 187.943C1014.62 187.47 1014.67 186.867 1014.69 186.136L1014.85 182.273H1020.67V191H1019.33V183.523H1016.12L1015.99 186.636C1015.96 187.352 1015.89 187.983 1015.79 188.528C1015.7 189.07 1015.55 189.525 1015.36 189.892C1015.16 190.259 1014.91 190.536 1014.58 190.722C1014.26 190.907 1013.86 191 1013.37 191H1012.92ZM1025.94 191.205C1025.38 191.205 1024.88 191.1 1024.43 190.892C1023.98 190.68 1023.62 190.375 1023.36 189.977C1023.09 189.576 1022.96 189.091 1022.96 188.523C1022.96 188.023 1023.06 187.617 1023.26 187.307C1023.45 186.992 1023.72 186.746 1024.05 186.568C1024.37 186.39 1024.74 186.258 1025.14 186.17C1025.54 186.08 1025.94 186.008 1026.35 185.955C1026.88 185.886 1027.31 185.835 1027.64 185.801C1027.97 185.763 1028.21 185.701 1028.36 185.614C1028.52 185.527 1028.6 185.375 1028.6 185.159V185.114C1028.6 184.553 1028.44 184.117 1028.14 183.807C1027.83 183.496 1027.37 183.341 1026.76 183.341C1026.12 183.341 1025.61 183.481 1025.25 183.761C1024.89 184.042 1024.63 184.341 1024.48 184.659L1023.21 184.205C1023.44 183.674 1023.74 183.261 1024.12 182.966C1024.5 182.667 1024.92 182.458 1025.37 182.341C1025.82 182.22 1026.27 182.159 1026.71 182.159C1026.99 182.159 1027.31 182.193 1027.68 182.261C1028.04 182.326 1028.4 182.46 1028.74 182.665C1029.08 182.869 1029.37 183.178 1029.6 183.591C1029.82 184.004 1029.94 184.557 1029.94 185.25V191H1028.6V189.818H1028.53C1028.44 190.008 1028.29 190.21 1028.07 190.426C1027.86 190.642 1027.58 190.826 1027.23 190.977C1026.87 191.129 1026.44 191.205 1025.94 191.205ZM1026.14 190C1026.67 190 1027.12 189.896 1027.48 189.688C1027.85 189.479 1028.13 189.21 1028.31 188.881C1028.5 188.551 1028.6 188.205 1028.6 187.841V186.614C1028.54 186.682 1028.41 186.744 1028.22 186.801C1028.03 186.854 1027.81 186.902 1027.56 186.943C1027.32 186.981 1027.08 187.015 1026.84 187.045C1026.61 187.072 1026.42 187.095 1026.28 187.114C1025.93 187.159 1025.6 187.233 1025.3 187.335C1025 187.434 1024.76 187.583 1024.57 187.784C1024.39 187.981 1024.3 188.25 1024.3 188.591C1024.3 189.057 1024.47 189.409 1024.82 189.648C1025.17 189.883 1025.61 190 1026.14 190ZM1037.4 189.182L1040.44 182.273H1041.72L1037.94 191H1036.85L1033.15 182.273H1034.4L1037.4 189.182ZM1033.97 182.273V191H1032.62V182.273H1033.97ZM1040.83 191V182.273H1042.17V191H1040.83ZM1047.43 191.205C1046.88 191.205 1046.38 191.1 1045.93 190.892C1045.48 190.68 1045.12 190.375 1044.85 189.977C1044.59 189.576 1044.46 189.091 1044.46 188.523C1044.46 188.023 1044.55 187.617 1044.75 187.307C1044.95 186.992 1045.21 186.746 1045.54 186.568C1045.87 186.39 1046.23 186.258 1046.63 186.17C1047.03 186.08 1047.44 186.008 1047.84 185.955C1048.37 185.886 1048.8 185.835 1049.13 185.801C1049.47 185.763 1049.71 185.701 1049.86 185.614C1050.01 185.527 1050.09 185.375 1050.09 185.159V185.114C1050.09 184.553 1049.94 184.117 1049.63 183.807C1049.33 183.496 1048.87 183.341 1048.25 183.341C1047.61 183.341 1047.11 183.481 1046.75 183.761C1046.38 184.042 1046.13 184.341 1045.98 184.659L1044.71 184.205C1044.93 183.674 1045.24 183.261 1045.61 182.966C1046 182.667 1046.41 182.458 1046.86 182.341C1047.32 182.22 1047.77 182.159 1048.21 182.159C1048.49 182.159 1048.81 182.193 1049.17 182.261C1049.54 182.326 1049.89 182.46 1050.23 182.665C1050.58 182.869 1050.86 183.178 1051.09 183.591C1051.32 184.004 1051.43 184.557 1051.43 185.25V191H1050.09V189.818H1050.02C1049.93 190.008 1049.78 190.21 1049.57 190.426C1049.36 190.642 1049.08 190.826 1048.72 190.977C1048.37 191.129 1047.94 191.205 1047.43 191.205ZM1047.64 190C1048.17 190 1048.61 189.896 1048.98 189.688C1049.35 189.479 1049.62 189.21 1049.81 188.881C1050 188.551 1050.09 188.205 1050.09 187.841V186.614C1050.04 186.682 1049.91 186.744 1049.72 186.801C1049.53 186.854 1049.31 186.902 1049.06 186.943C1048.81 186.981 1048.57 187.015 1048.34 187.045C1048.11 187.072 1047.92 187.095 1047.77 187.114C1047.43 187.159 1047.1 187.233 1046.8 187.335C1046.5 187.434 1046.25 187.583 1046.07 187.784C1045.89 187.981 1045.8 188.25 1045.8 188.591C1045.8 189.057 1045.97 189.409 1046.31 189.648C1046.66 189.883 1047.1 190 1047.64 190ZM1060.6 179L1061.28 179.818C1061.01 180.076 1060.71 180.256 1060.36 180.358C1060.01 180.46 1059.62 180.523 1059.18 180.545C1058.74 180.568 1058.25 180.591 1057.71 180.614C1057.11 180.636 1056.6 180.784 1056.21 181.057C1055.81 181.33 1055.5 181.723 1055.29 182.239C1055.07 182.754 1054.93 183.386 1054.87 184.136H1054.98C1055.28 183.591 1055.69 183.189 1056.21 182.932C1056.73 182.674 1057.29 182.545 1057.89 182.545C1058.57 182.545 1059.19 182.705 1059.73 183.023C1060.28 183.341 1060.71 183.812 1061.03 184.438C1061.35 185.062 1061.51 185.833 1061.51 186.75C1061.51 187.663 1061.34 188.451 1061.02 189.114C1060.7 189.777 1060.24 190.288 1059.66 190.648C1059.08 191.004 1058.4 191.182 1057.62 191.182C1056.84 191.182 1056.16 190.998 1055.57 190.631C1054.98 190.259 1054.53 189.71 1054.2 188.983C1053.87 188.252 1053.71 187.348 1053.71 186.273V185.341C1053.71 183.398 1054.04 181.924 1054.7 180.92C1055.36 179.917 1056.36 179.398 1057.69 179.364C1058.16 179.348 1058.58 179.345 1058.94 179.352C1059.31 179.36 1059.63 179.343 1059.9 179.301C1060.18 179.259 1060.41 179.159 1060.6 179ZM1057.62 189.977C1058.15 189.977 1058.6 189.845 1058.98 189.58C1059.36 189.314 1059.65 188.941 1059.86 188.46C1060.06 187.975 1060.17 187.405 1060.17 186.75C1060.17 186.114 1060.06 185.572 1059.85 185.125C1059.65 184.678 1059.36 184.337 1058.97 184.102C1058.59 183.867 1058.13 183.75 1057.6 183.75C1057.21 183.75 1056.86 183.816 1056.55 183.949C1056.24 184.081 1055.97 184.277 1055.75 184.534C1055.53 184.792 1055.36 185.106 1055.24 185.477C1055.12 185.848 1055.06 186.273 1055.05 186.75C1055.05 187.727 1055.28 188.509 1055.74 189.097C1056.2 189.684 1056.82 189.977 1057.62 189.977ZM1066.37 191.205C1065.81 191.205 1065.31 191.1 1064.86 190.892C1064.41 190.68 1064.05 190.375 1063.79 189.977C1063.52 189.576 1063.39 189.091 1063.39 188.523C1063.39 188.023 1063.49 187.617 1063.68 187.307C1063.88 186.992 1064.14 186.746 1064.47 186.568C1064.8 186.39 1065.17 186.258 1065.56 186.17C1065.97 186.08 1066.37 186.008 1066.78 185.955C1067.31 185.886 1067.74 185.835 1068.06 185.801C1068.4 185.763 1068.64 185.701 1068.79 185.614C1068.95 185.527 1069.03 185.375 1069.03 185.159V185.114C1069.03 184.553 1068.87 184.117 1068.56 183.807C1068.26 183.496 1067.8 183.341 1067.18 183.341C1066.54 183.341 1066.04 183.481 1065.68 183.761C1065.31 184.042 1065.06 184.341 1064.91 184.659L1063.64 184.205C1063.87 183.674 1064.17 183.261 1064.55 182.966C1064.93 182.667 1065.35 182.458 1065.8 182.341C1066.25 182.22 1066.7 182.159 1067.14 182.159C1067.42 182.159 1067.74 182.193 1068.1 182.261C1068.47 182.326 1068.83 182.46 1069.17 182.665C1069.51 182.869 1069.8 183.178 1070.03 183.591C1070.25 184.004 1070.37 184.557 1070.37 185.25V191H1069.03V189.818H1068.96C1068.87 190.008 1068.71 190.21 1068.5 190.426C1068.29 190.642 1068.01 190.826 1067.66 190.977C1067.3 191.129 1066.87 191.205 1066.37 191.205ZM1066.57 190C1067.1 190 1067.55 189.896 1067.91 189.688C1068.28 189.479 1068.56 189.21 1068.74 188.881C1068.93 188.551 1069.03 188.205 1069.03 187.841V186.614C1068.97 186.682 1068.84 186.744 1068.65 186.801C1068.46 186.854 1068.24 186.902 1067.99 186.943C1067.74 186.981 1067.5 187.015 1067.27 187.045C1067.04 187.072 1066.85 187.095 1066.71 187.114C1066.36 187.159 1066.03 187.233 1065.73 187.335C1065.43 187.434 1065.19 187.583 1065 187.784C1064.82 187.981 1064.73 188.25 1064.73 188.591C1064.73 189.057 1064.9 189.409 1065.25 189.648C1065.6 189.883 1066.04 190 1066.57 190ZM1072.12 193.5V189.75H1072.85C1073.03 189.564 1073.18 189.364 1073.31 189.148C1073.44 188.932 1073.55 188.676 1073.64 188.381C1073.74 188.081 1073.83 187.718 1073.89 187.29C1073.96 186.858 1074.02 186.337 1074.08 185.727L1074.37 182.273H1079.92V189.75H1081.26V193.5H1079.92V191H1073.46V193.5H1072.12ZM1074.37 189.75H1078.58V183.523H1075.62L1075.39 185.727C1075.3 186.64 1075.18 187.437 1075.04 188.119C1074.9 188.801 1074.68 189.345 1074.37 189.75Z" fill="white"/>
<path d="M583.409 85V73.3636H590.432V74.6136H584.818V78.25H587.773C588.606 78.25 589.309 78.3864 589.881 78.6591C590.456 78.9318 590.892 79.3163 591.188 79.8125C591.487 80.3087 591.636 80.8939 591.636 81.5682C591.636 82.2424 591.487 82.8371 591.188 83.3523C590.892 83.8674 590.456 84.2708 589.881 84.5625C589.309 84.8542 588.606 85 587.773 85H583.409ZM584.818 83.7727H587.773C588.303 83.7727 588.752 83.6667 589.119 83.4545C589.491 83.2386 589.771 82.9621 589.96 82.625C590.153 82.2841 590.25 81.9242 590.25 81.5455C590.25 80.9886 590.036 80.5095 589.608 80.108C589.18 79.7027 588.568 79.5 587.773 79.5H584.818V83.7727ZM596.582 85.2045C596.029 85.2045 595.527 85.1004 595.077 84.892C594.626 84.6799 594.268 84.375 594.003 83.9773C593.738 83.5758 593.605 83.0909 593.605 82.5227C593.605 82.0227 593.704 81.6174 593.901 81.3068C594.097 80.9924 594.361 80.7462 594.69 80.5682C595.02 80.3902 595.383 80.2576 595.781 80.1705C596.183 80.0795 596.586 80.0076 596.991 79.9545C597.522 79.8864 597.952 79.8352 598.281 79.8011C598.615 79.7633 598.857 79.7008 599.008 79.6136C599.164 79.5265 599.241 79.375 599.241 79.1591V79.1136C599.241 78.553 599.088 78.1174 598.781 77.8068C598.478 77.4962 598.018 77.3409 597.401 77.3409C596.76 77.3409 596.258 77.4811 595.895 77.7614C595.531 78.0417 595.276 78.3409 595.128 78.6591L593.855 78.2045C594.082 77.6742 594.385 77.2614 594.764 76.9659C595.147 76.6667 595.563 76.4583 596.014 76.3409C596.469 76.2197 596.916 76.1591 597.355 76.1591C597.635 76.1591 597.957 76.1932 598.321 76.2614C598.688 76.3258 599.043 76.4602 599.383 76.6648C599.728 76.8693 600.014 77.178 600.241 77.5909C600.469 78.0038 600.582 78.5568 600.582 79.25V85H599.241V83.8182H599.173C599.082 84.0076 598.931 84.2102 598.719 84.4261C598.507 84.642 598.224 84.8258 597.872 84.9773C597.52 85.1288 597.09 85.2045 596.582 85.2045ZM596.787 84C597.317 84 597.764 83.8958 598.128 83.6875C598.495 83.4792 598.772 83.2102 598.957 82.8807C599.147 82.5511 599.241 82.2045 599.241 81.8409V80.6136C599.185 80.6818 599.06 80.7443 598.866 80.8011C598.677 80.8542 598.457 80.9015 598.207 80.9432C597.961 80.9811 597.721 81.0152 597.486 81.0455C597.255 81.072 597.067 81.0947 596.923 81.1136C596.575 81.1591 596.249 81.233 595.946 81.3352C595.647 81.4337 595.404 81.5833 595.219 81.7841C595.037 81.9811 594.946 82.25 594.946 82.5909C594.946 83.0568 595.118 83.4091 595.463 83.6477C595.811 83.8826 596.253 84 596.787 84ZM602.724 82.7727H604.156C604.186 83.1667 604.364 83.4659 604.69 83.6705C605.02 83.875 605.448 83.9773 605.974 83.9773C606.512 83.9773 606.972 83.8674 607.355 83.6477C607.738 83.4242 607.929 83.0644 607.929 82.5682C607.929 82.2765 607.857 82.0227 607.713 81.8068C607.569 81.5871 607.366 81.4167 607.105 81.2955C606.844 81.1742 606.535 81.1136 606.179 81.1136H604.679V79.9091H606.179C606.713 79.9091 607.107 79.7879 607.361 79.5455C607.618 79.303 607.747 79 607.747 78.6364C607.747 78.2462 607.609 77.9337 607.332 77.6989C607.056 77.4602 606.664 77.3409 606.156 77.3409C605.645 77.3409 605.219 77.4564 604.878 77.6875C604.537 77.9148 604.357 78.2083 604.338 78.5682H602.929C602.944 78.0985 603.088 77.6837 603.361 77.3239C603.633 76.9602 604.005 76.6761 604.474 76.4716C604.944 76.2633 605.482 76.1591 606.088 76.1591C606.702 76.1591 607.234 76.267 607.685 76.483C608.139 76.6951 608.489 76.9848 608.736 77.3523C608.986 77.7159 609.111 78.1288 609.111 78.5909C609.111 79.0833 608.972 79.4811 608.696 79.7841C608.419 80.0871 608.073 80.303 607.656 80.4318V80.5227C607.986 80.5455 608.272 80.6515 608.514 80.8409C608.76 81.0265 608.952 81.2708 609.088 81.5739C609.224 81.8731 609.292 82.2045 609.292 82.5682C609.292 83.0985 609.15 83.5606 608.866 83.9545C608.582 84.3447 608.192 84.6477 607.696 84.8636C607.2 85.0758 606.633 85.1818 605.997 85.1818C605.38 85.1818 604.827 85.0814 604.338 84.8807C603.849 84.6761 603.461 84.3939 603.173 84.0341C602.889 83.6705 602.739 83.25 602.724 82.7727ZM614.961 85.1818C614.174 85.1818 613.482 84.9943 612.888 84.6193C612.297 84.2443 611.835 83.7197 611.501 83.0455C611.172 82.3712 611.007 81.5833 611.007 80.6818C611.007 79.7727 611.172 78.9792 611.501 78.3011C611.835 77.6231 612.297 77.0966 612.888 76.7216C613.482 76.3466 614.174 76.1591 614.961 76.1591C615.749 76.1591 616.439 76.3466 617.03 76.7216C617.624 77.0966 618.086 77.6231 618.416 78.3011C618.749 78.9792 618.916 79.7727 618.916 80.6818C618.916 81.5833 618.749 82.3712 618.416 83.0455C618.086 83.7197 617.624 84.2443 617.03 84.6193C616.439 84.9943 615.749 85.1818 614.961 85.1818ZM614.961 83.9773C615.56 83.9773 616.052 83.8239 616.439 83.517C616.825 83.2102 617.111 82.8068 617.297 82.3068C617.482 81.8068 617.575 81.2652 617.575 80.6818C617.575 80.0985 617.482 79.5549 617.297 79.0511C617.111 78.5473 616.825 78.1402 616.439 77.8295C616.052 77.5189 615.56 77.3636 614.961 77.3636C614.363 77.3636 613.871 77.5189 613.484 77.8295C613.098 78.1402 612.812 78.5473 612.626 79.0511C612.441 79.5549 612.348 80.0985 612.348 80.6818C612.348 81.2652 612.441 81.8068 612.626 82.3068C612.812 82.8068 613.098 83.2102 613.484 83.517C613.871 83.8239 614.363 83.9773 614.961 83.9773ZM621.203 85V76.2727H624.771C625.71 76.2727 626.457 76.4848 627.01 76.9091C627.563 77.3333 627.839 77.8939 627.839 78.5909C627.839 79.1212 627.682 79.5322 627.368 79.8239C627.053 80.1117 626.65 80.3068 626.157 80.4091C626.479 80.4545 626.792 80.5682 627.095 80.75C627.402 80.9318 627.656 81.1818 627.856 81.5C628.057 81.8144 628.157 82.2008 628.157 82.6591C628.157 83.1061 628.044 83.5057 627.817 83.858C627.589 84.2102 627.264 84.4886 626.839 84.6932C626.415 84.8977 625.907 85 625.317 85H621.203ZM622.476 83.7727H625.317C625.779 83.7727 626.14 83.6629 626.402 83.4432C626.663 83.2235 626.794 82.9242 626.794 82.5455C626.794 82.0947 626.663 81.7405 626.402 81.483C626.14 81.2216 625.779 81.0909 625.317 81.0909H622.476V83.7727ZM622.476 79.9318H624.771C625.131 79.9318 625.44 79.8826 625.697 79.7841C625.955 79.6818 626.152 79.5379 626.288 79.3523C626.428 79.1629 626.498 78.9394 626.498 78.6818C626.498 78.3144 626.345 78.0265 626.038 77.8182C625.731 77.6061 625.309 77.5 624.771 77.5H622.476V79.9318ZM631.586 79.4318H634.086C635.109 79.4318 635.891 79.6913 636.433 80.2102C636.975 80.7292 637.245 81.3864 637.245 82.1818C637.245 82.7045 637.124 83.1799 636.882 83.608C636.639 84.0322 636.283 84.3712 635.814 84.625C635.344 84.875 634.768 85 634.086 85H630.427V76.2727H631.768V83.75H634.086C634.617 83.75 635.052 83.6098 635.393 83.3295C635.734 83.0492 635.905 82.6894 635.905 82.25C635.905 81.7879 635.734 81.411 635.393 81.1193C635.052 80.8277 634.617 80.6818 634.086 80.6818H631.586V79.4318ZM638.632 85V76.2727H639.973V85H638.632ZM644.008 83.0227L648.213 76.2727H649.758V85H648.417V78.25L644.235 85H642.667V76.2727H644.008V83.0227ZM647.326 73.3636H648.576C648.576 73.9773 648.364 74.4792 647.94 74.8693C647.516 75.2595 646.94 75.4545 646.213 75.4545C645.497 75.4545 644.927 75.2595 644.502 74.8693C644.082 74.4792 643.872 73.9773 643.872 73.3636H645.122C645.122 73.6591 645.203 73.9186 645.366 74.142C645.533 74.3655 645.815 74.4773 646.213 74.4773C646.61 74.4773 646.895 74.3655 647.065 74.142C647.239 73.9186 647.326 73.6591 647.326 73.3636ZM656.421 85V83.75H656.74C657.001 83.75 657.219 83.6989 657.393 83.5966C657.567 83.4905 657.707 83.3068 657.813 83.0455C657.923 82.7803 658.007 82.4129 658.063 81.9432C658.124 81.4697 658.168 80.8674 658.194 80.1364L658.353 76.2727H664.171V85H662.831V77.5227H659.626L659.49 80.6364C659.459 81.3523 659.395 81.983 659.296 82.5284C659.202 83.0701 659.056 83.5246 658.859 83.892C658.666 84.2595 658.408 84.536 658.086 84.7216C657.764 84.9072 657.361 85 656.876 85H656.421ZM669.44 85.2045C668.887 85.2045 668.385 85.1004 667.934 84.892C667.483 84.6799 667.125 84.375 666.86 83.9773C666.595 83.5758 666.463 83.0909 666.463 82.5227C666.463 82.0227 666.561 81.6174 666.758 81.3068C666.955 80.9924 667.218 80.7462 667.548 80.5682C667.877 80.3902 668.241 80.2576 668.639 80.1705C669.04 80.0795 669.444 80.0076 669.849 79.9545C670.379 79.8864 670.809 79.8352 671.139 79.8011C671.472 79.7633 671.714 79.7008 671.866 79.6136C672.021 79.5265 672.099 79.375 672.099 79.1591V79.1136C672.099 78.553 671.946 78.1174 671.639 77.8068C671.336 77.4962 670.875 77.3409 670.258 77.3409C669.618 77.3409 669.116 77.4811 668.752 77.7614C668.389 78.0417 668.133 78.3409 667.985 78.6591L666.713 78.2045C666.94 77.6742 667.243 77.2614 667.622 76.9659C668.004 76.6667 668.421 76.4583 668.872 76.3409C669.326 76.2197 669.773 76.1591 670.213 76.1591C670.493 76.1591 670.815 76.1932 671.178 76.2614C671.546 76.3258 671.9 76.4602 672.241 76.6648C672.586 76.8693 672.872 77.178 673.099 77.5909C673.326 78.0038 673.44 78.5568 673.44 79.25V85H672.099V83.8182H672.031C671.94 84.0076 671.788 84.2102 671.576 84.4261C671.364 84.642 671.082 84.8258 670.73 84.9773C670.377 85.1288 669.947 85.2045 669.44 85.2045ZM669.644 84C670.175 84 670.622 83.8958 670.985 83.6875C671.353 83.4792 671.629 83.2102 671.815 82.8807C672.004 82.5511 672.099 82.2045 672.099 81.8409V80.6136C672.042 80.6818 671.917 80.7443 671.724 80.8011C671.535 80.8542 671.315 80.9015 671.065 80.9432C670.819 80.9811 670.578 81.0152 670.343 81.0455C670.112 81.072 669.925 81.0947 669.781 81.1136C669.432 81.1591 669.106 81.233 668.803 81.3352C668.504 81.4337 668.262 81.5833 668.076 81.7841C667.894 81.9811 667.803 82.25 667.803 82.5909C667.803 83.0568 667.976 83.4091 668.321 83.6477C668.669 83.8826 669.11 84 669.644 84ZM681.514 76.2727V77.5227H677.468V85H676.127V76.2727H681.514ZM686.917 85.1818C686.076 85.1818 685.351 84.9962 684.741 84.625C684.135 84.25 683.667 83.7273 683.337 83.0568C683.012 82.3826 682.849 81.5985 682.849 80.7045C682.849 79.8106 683.012 79.0227 683.337 78.3409C683.667 77.6553 684.125 77.1212 684.712 76.7386C685.303 76.3523 685.993 76.1591 686.781 76.1591C687.235 76.1591 687.684 76.2348 688.127 76.3864C688.57 76.5379 688.974 76.7841 689.337 77.125C689.701 77.4621 689.991 77.9091 690.207 78.4659C690.423 79.0227 690.531 79.7083 690.531 80.5227V81.0909H683.803V79.9318H689.167C689.167 79.4394 689.069 79 688.872 78.6136C688.678 78.2273 688.402 77.9223 688.042 77.6989C687.686 77.4754 687.265 77.3636 686.781 77.3636C686.247 77.3636 685.784 77.4962 685.394 77.7614C685.008 78.0227 684.711 78.3636 684.502 78.7841C684.294 79.2045 684.19 79.6553 684.19 80.1364V80.9091C684.19 81.5682 684.303 82.1269 684.531 82.5852C684.762 83.0398 685.082 83.3864 685.491 83.625C685.9 83.8598 686.375 83.9773 686.917 83.9773C687.269 83.9773 687.587 83.928 687.872 83.8295C688.159 83.7273 688.408 83.5758 688.616 83.375C688.824 83.1705 688.985 82.9167 689.099 82.6136L690.394 82.9773C690.258 83.4167 690.029 83.803 689.707 84.1364C689.385 84.4659 688.987 84.7235 688.514 84.9091C688.04 85.0909 687.508 85.1818 686.917 85.1818ZM692.81 88.2727V76.2727H694.106V77.6591H694.265C694.363 77.5076 694.5 77.3144 694.674 77.0795C694.852 76.8409 695.106 76.6288 695.435 76.4432C695.769 76.2538 696.219 76.1591 696.788 76.1591C697.523 76.1591 698.17 76.3428 698.731 76.7102C699.291 77.0777 699.729 77.5985 700.043 78.2727C700.358 78.947 700.515 79.7424 700.515 80.6591C700.515 81.5833 700.358 82.3845 700.043 83.0625C699.729 83.7367 699.293 84.2595 698.737 84.6307C698.18 84.9981 697.538 85.1818 696.81 85.1818C696.25 85.1818 695.801 85.089 695.464 84.9034C695.127 84.714 694.867 84.5 694.685 84.2614C694.504 84.0189 694.363 83.8182 694.265 83.6591H694.151V88.2727H692.81ZM694.129 80.6364C694.129 81.2955 694.225 81.8769 694.418 82.3807C694.612 82.8807 694.894 83.2727 695.265 83.5568C695.636 83.8371 696.091 83.9773 696.629 83.9773C697.189 83.9773 697.657 83.8295 698.032 83.5341C698.411 83.2348 698.695 82.8333 698.884 82.3295C699.077 81.822 699.174 81.2576 699.174 80.6364C699.174 80.0227 699.079 79.4697 698.89 78.9773C698.704 78.4811 698.422 78.089 698.043 77.8011C697.668 77.5095 697.197 77.3636 696.629 77.3636C696.083 77.3636 695.625 77.5019 695.254 77.7784C694.882 78.0511 694.602 78.4337 694.413 78.9261C694.223 79.4148 694.129 79.9848 694.129 80.6364ZM703.959 79.4318H706.459C707.482 79.4318 708.264 79.6913 708.806 80.2102C709.348 80.7292 709.619 81.3864 709.619 82.1818C709.619 82.7045 709.497 83.1799 709.255 83.608C709.013 84.0322 708.656 84.3712 708.187 84.625C707.717 84.875 707.141 85 706.459 85H702.8V76.2727H704.141V83.75H706.459C706.99 83.75 707.425 83.6098 707.766 83.3295C708.107 83.0492 708.278 82.6894 708.278 82.25C708.278 81.7879 708.107 81.411 707.766 81.1193C707.425 80.8277 706.99 80.6818 706.459 80.6818H703.959V79.4318ZM583.409 111V99.3636H584.818V104.545H591.023V99.3636H592.432V111H591.023V105.795H584.818V111H583.409ZM597.879 111.205C597.326 111.205 596.824 111.1 596.374 110.892C595.923 110.68 595.565 110.375 595.3 109.977C595.035 109.576 594.902 109.091 594.902 108.523C594.902 108.023 595 107.617 595.197 107.307C595.394 106.992 595.658 106.746 595.987 106.568C596.317 106.39 596.68 106.258 597.078 106.17C597.48 106.08 597.883 106.008 598.288 105.955C598.819 105.886 599.249 105.835 599.578 105.801C599.911 105.763 600.154 105.701 600.305 105.614C600.461 105.527 600.538 105.375 600.538 105.159V105.114C600.538 104.553 600.385 104.117 600.078 103.807C599.775 103.496 599.315 103.341 598.697 103.341C598.057 103.341 597.555 103.481 597.192 103.761C596.828 104.042 596.572 104.341 596.425 104.659L595.152 104.205C595.379 103.674 595.682 103.261 596.061 102.966C596.444 102.667 596.86 102.458 597.311 102.341C597.766 102.22 598.213 102.159 598.652 102.159C598.932 102.159 599.254 102.193 599.618 102.261C599.985 102.326 600.339 102.46 600.68 102.665C601.025 102.869 601.311 103.178 601.538 103.591C601.766 104.004 601.879 104.557 601.879 105.25V111H600.538V109.818H600.47C600.379 110.008 600.228 110.21 600.016 110.426C599.803 110.642 599.521 110.826 599.169 110.977C598.817 111.129 598.387 111.205 597.879 111.205ZM598.084 110C598.614 110 599.061 109.896 599.425 109.688C599.792 109.479 600.069 109.21 600.254 108.881C600.444 108.551 600.538 108.205 600.538 107.841V106.614C600.481 106.682 600.356 106.744 600.163 106.801C599.974 106.854 599.754 106.902 599.504 106.943C599.258 106.981 599.017 107.015 598.783 107.045C598.552 107.072 598.364 107.095 598.22 107.114C597.872 107.159 597.546 107.233 597.243 107.335C596.944 107.434 596.701 107.583 596.516 107.784C596.334 107.981 596.243 108.25 596.243 108.591C596.243 109.057 596.415 109.409 596.76 109.648C597.108 109.883 597.55 110 598.084 110ZM610.408 106.023V107.273H605.589V106.023H610.408ZM605.908 102.273V111H604.567V102.273H605.908ZM611.43 102.273V111H610.089V102.273H611.43ZM619.506 102.273V103.523H615.46V111H614.119V102.273H619.506ZM623.818 111.205C623.265 111.205 622.763 111.1 622.312 110.892C621.862 110.68 621.504 110.375 621.238 109.977C620.973 109.576 620.841 109.091 620.841 108.523C620.841 108.023 620.939 107.617 621.136 107.307C621.333 106.992 621.596 106.746 621.926 106.568C622.255 106.39 622.619 106.258 623.017 106.17C623.418 106.08 623.822 106.008 624.227 105.955C624.757 105.886 625.187 105.835 625.517 105.801C625.85 105.763 626.093 105.701 626.244 105.614C626.399 105.527 626.477 105.375 626.477 105.159V105.114C626.477 104.553 626.324 104.117 626.017 103.807C625.714 103.496 625.254 103.341 624.636 103.341C623.996 103.341 623.494 103.481 623.13 103.761C622.767 104.042 622.511 104.341 622.363 104.659L621.091 104.205C621.318 103.674 621.621 103.261 622 102.966C622.382 102.667 622.799 102.458 623.25 102.341C623.704 102.22 624.151 102.159 624.591 102.159C624.871 102.159 625.193 102.193 625.557 102.261C625.924 102.326 626.278 102.46 626.619 102.665C626.964 102.869 627.25 103.178 627.477 103.591C627.704 104.004 627.818 104.557 627.818 105.25V111H626.477V109.818H626.409C626.318 110.008 626.166 110.21 625.954 110.426C625.742 110.642 625.46 110.826 625.108 110.977C624.755 111.129 624.326 111.205 623.818 111.205ZM624.022 110C624.553 110 625 109.896 625.363 109.688C625.731 109.479 626.007 109.21 626.193 108.881C626.382 108.551 626.477 108.205 626.477 107.841V106.614C626.42 106.682 626.295 106.744 626.102 106.801C625.913 106.854 625.693 106.902 625.443 106.943C625.197 106.981 624.956 107.015 624.721 107.045C624.49 107.072 624.303 107.095 624.159 107.114C623.81 107.159 623.485 107.233 623.182 107.335C622.882 107.434 622.64 107.583 622.454 107.784C622.272 107.981 622.182 108.25 622.182 108.591C622.182 109.057 622.354 109.409 622.699 109.648C623.047 109.883 623.488 110 624.022 110ZM644.132 99.3636V111H642.723V100.614H636.859V111H635.45V99.3636H644.132ZM649.6 111.205C649.047 111.205 648.546 111.1 648.095 110.892C647.644 110.68 647.286 110.375 647.021 109.977C646.756 109.576 646.623 109.091 646.623 108.523C646.623 108.023 646.722 107.617 646.919 107.307C647.116 106.992 647.379 106.746 647.708 106.568C648.038 106.39 648.402 106.258 648.799 106.17C649.201 106.08 649.604 106.008 650.01 105.955C650.54 105.886 650.97 105.835 651.299 105.801C651.633 105.763 651.875 105.701 652.027 105.614C652.182 105.527 652.26 105.375 652.26 105.159V105.114C652.26 104.553 652.106 104.117 651.799 103.807C651.496 103.496 651.036 103.341 650.419 103.341C649.778 103.341 649.277 103.481 648.913 103.761C648.549 104.042 648.294 104.341 648.146 104.659L646.873 104.205C647.1 103.674 647.403 103.261 647.782 102.966C648.165 102.667 648.582 102.458 649.032 102.341C649.487 102.22 649.934 102.159 650.373 102.159C650.653 102.159 650.975 102.193 651.339 102.261C651.707 102.326 652.061 102.46 652.402 102.665C652.746 102.869 653.032 103.178 653.26 103.591C653.487 104.004 653.6 104.557 653.6 105.25V111H652.26V109.818H652.191C652.1 110.008 651.949 110.21 651.737 110.426C651.525 110.642 651.243 110.826 650.89 110.977C650.538 111.129 650.108 111.205 649.6 111.205ZM649.805 110C650.335 110 650.782 109.896 651.146 109.688C651.513 109.479 651.79 109.21 651.975 108.881C652.165 108.551 652.26 108.205 652.26 107.841V106.614C652.203 106.682 652.078 106.744 651.885 106.801C651.695 106.854 651.475 106.902 651.225 106.943C650.979 106.981 650.739 107.015 650.504 107.045C650.273 107.072 650.085 107.095 649.941 107.114C649.593 107.159 649.267 107.233 648.964 107.335C648.665 107.434 648.422 107.583 648.237 107.784C648.055 107.981 647.964 108.25 647.964 108.591C647.964 109.057 648.136 109.409 648.481 109.648C648.83 109.883 649.271 110 649.805 110ZM656.288 114.273V102.273H657.583V103.659H657.742C657.841 103.508 657.977 103.314 658.152 103.08C658.33 102.841 658.583 102.629 658.913 102.443C659.246 102.254 659.697 102.159 660.265 102.159C661 102.159 661.648 102.343 662.208 102.71C662.769 103.078 663.206 103.598 663.521 104.273C663.835 104.947 663.992 105.742 663.992 106.659C663.992 107.583 663.835 108.384 663.521 109.062C663.206 109.737 662.771 110.259 662.214 110.631C661.657 110.998 661.015 111.182 660.288 111.182C659.727 111.182 659.278 111.089 658.941 110.903C658.604 110.714 658.345 110.5 658.163 110.261C657.981 110.019 657.841 109.818 657.742 109.659H657.629V114.273H656.288ZM657.606 106.636C657.606 107.295 657.703 107.877 657.896 108.381C658.089 108.881 658.371 109.273 658.742 109.557C659.114 109.837 659.568 109.977 660.106 109.977C660.667 109.977 661.134 109.83 661.509 109.534C661.888 109.235 662.172 108.833 662.362 108.33C662.555 107.822 662.652 107.258 662.652 106.636C662.652 106.023 662.557 105.47 662.367 104.977C662.182 104.481 661.9 104.089 661.521 103.801C661.146 103.509 660.674 103.364 660.106 103.364C659.561 103.364 659.102 103.502 658.731 103.778C658.36 104.051 658.08 104.434 657.89 104.926C657.701 105.415 657.606 105.985 657.606 106.636ZM672.755 99L673.437 99.8182C673.172 100.076 672.865 100.256 672.517 100.358C672.168 100.46 671.774 100.523 671.335 100.545C670.895 100.568 670.407 100.591 669.869 100.614C669.263 100.636 668.761 100.784 668.363 101.057C667.965 101.33 667.659 101.723 667.443 102.239C667.227 102.754 667.089 103.386 667.028 104.136H667.142C667.437 103.591 667.846 103.189 668.369 102.932C668.892 102.674 669.452 102.545 670.051 102.545C670.732 102.545 671.346 102.705 671.892 103.023C672.437 103.341 672.869 103.812 673.187 104.438C673.505 105.062 673.664 105.833 673.664 106.75C673.664 107.663 673.501 108.451 673.176 109.114C672.854 109.777 672.401 110.288 671.818 110.648C671.238 111.004 670.558 111.182 669.778 111.182C668.998 111.182 668.314 110.998 667.727 110.631C667.14 110.259 666.683 109.71 666.357 108.983C666.032 108.252 665.869 107.348 665.869 106.273V105.341C665.869 103.398 666.198 101.924 666.857 100.92C667.52 99.9167 668.517 99.3977 669.846 99.3636C670.316 99.3485 670.734 99.3447 671.102 99.3523C671.469 99.3598 671.789 99.3428 672.062 99.3011C672.335 99.2595 672.566 99.1591 672.755 99ZM669.778 109.977C670.304 109.977 670.757 109.845 671.136 109.58C671.518 109.314 671.812 108.941 672.017 108.46C672.221 107.975 672.323 107.405 672.323 106.75C672.323 106.114 672.219 105.572 672.011 105.125C671.806 104.678 671.513 104.337 671.13 104.102C670.748 103.867 670.289 103.75 669.755 103.75C669.365 103.75 669.015 103.816 668.704 103.949C668.393 104.081 668.128 104.277 667.909 104.534C667.689 104.792 667.518 105.106 667.397 105.477C667.28 105.848 667.217 106.273 667.21 106.75C667.21 107.727 667.439 108.509 667.897 109.097C668.356 109.684 668.982 109.977 669.778 109.977ZM678.524 111.205C677.971 111.205 677.469 111.1 677.018 110.892C676.567 110.68 676.209 110.375 675.944 109.977C675.679 109.576 675.546 109.091 675.546 108.523C675.546 108.023 675.645 107.617 675.842 107.307C676.039 106.992 676.302 106.746 676.632 106.568C676.961 106.39 677.325 106.258 677.722 106.17C678.124 106.08 678.527 106.008 678.933 105.955C679.463 105.886 679.893 105.835 680.222 105.801C680.556 105.763 680.798 105.701 680.95 105.614C681.105 105.527 681.183 105.375 681.183 105.159V105.114C681.183 104.553 681.029 104.117 680.722 103.807C680.419 103.496 679.959 103.341 679.342 103.341C678.702 103.341 678.2 103.481 677.836 103.761C677.472 104.042 677.217 104.341 677.069 104.659L675.796 104.205C676.024 103.674 676.327 103.261 676.705 102.966C677.088 102.667 677.505 102.458 677.955 102.341C678.41 102.22 678.857 102.159 679.296 102.159C679.577 102.159 679.899 102.193 680.262 102.261C680.63 102.326 680.984 102.46 681.325 102.665C681.669 102.869 681.955 103.178 682.183 103.591C682.41 104.004 682.524 104.557 682.524 105.25V111H681.183V109.818H681.114C681.024 110.008 680.872 110.21 680.66 110.426C680.448 110.642 680.166 110.826 679.813 110.977C679.461 111.129 679.031 111.205 678.524 111.205ZM678.728 110C679.258 110 679.705 109.896 680.069 109.688C680.436 109.479 680.713 109.21 680.899 108.881C681.088 108.551 681.183 108.205 681.183 107.841V106.614C681.126 106.682 681.001 106.744 680.808 106.801C680.618 106.854 680.399 106.902 680.149 106.943C679.902 106.981 679.662 107.015 679.427 107.045C679.196 107.072 679.008 107.095 678.864 107.114C678.516 107.159 678.19 107.233 677.887 107.335C677.588 107.434 677.346 107.583 677.16 107.784C676.978 107.981 676.887 108.25 676.887 108.591C676.887 109.057 677.06 109.409 677.404 109.648C677.753 109.883 678.194 110 678.728 110ZM684.024 103.523V102.273H691.114V103.523H688.251V111H686.91V103.523H684.024Z" fill="white"/>
<circle cx="940" cy="131" r="15" fill="white" fill-opacity="0.4"/>
<circle cx="940" cy="131" r="10" fill="white"/>
<circle cx="1022" cy="156" r="15" fill="white" fill-opacity="0.4"/>
<circle cx="1022" cy="156" r="10" fill="white"/>
</svg>
