<svg width="517" height="124" viewBox="0 0 517 124" fill="none" xmlns="http://www.w3.org/2000/svg">
<path d="M76.2188 27.8594C77.375 27.1094 78.2031 27.5937 78.7031 29.3125L78.2344 30.8125C77.6094 32.3125 76 35.0625 73.4062 39.0625L75.2344 38.7344C81.0469 38.7344 89.3281 37.4375 100.078 34.8438C101.641 34.9062 102.406 35.2969 102.375 36.0156C102.344 36.7344 102.125 37.3125 101.719 37.75C101.312 38.1875 99.6875 38.8125 96.8438 39.625C94.875 40.5 93.2031 40.9375 91.8281 40.9375L88.7812 41.3125C89.4062 41.5312 83.75 42.1562 71.8125 43.1875C70.5938 44 69.25 45.3594 67.7812 47.2656C64.0625 51.5781 60.1875 56.0469 56.1562 60.6719L54.375 62.4531C52.5938 65.2031 46.125 70.4844 34.9688 78.2969C25.75 82.7656 19.75 85.2344 16.9688 85.7031C13.9688 86.1719 11.4062 86.2969 9.28125 86.0781C3.6875 85.8906 0.59375 83.0312 0 77.5C0.40625 74.4688 2.625 71.9844 6.65625 70.0469C8.0625 69.3594 9.32812 69.0781 10.4531 69.2031C12.6094 69.2344 14.1875 70.7031 15.1875 73.6094C15.4062 75.8906 15 77.4062 13.9688 78.1562C12.9375 78.9062 12.0156 79.0781 11.2031 78.6719C10.3906 78.2656 10.75 77.5625 12.2812 76.5625C11.5312 74.3438 10.4219 73.2812 8.95312 73.375C6.67188 74.5312 5.28125 75.5781 4.78125 76.5156C4.3125 77.4531 4.17188 78.25 4.35938 78.9062C4.54688 79.5625 5.03125 80.3125 5.8125 81.1562C6.59375 81.9688 8.51562 82.5469 11.5781 82.8906L14.7188 82.5156C16.7812 82.4531 21.4375 80.7812 28.6875 77.5C39.625 70.875 45.0156 67.1094 44.8594 66.2031C46.2656 65.5156 48.3438 63.5625 51.0938 60.3438C56.5938 54.1875 60.2656 49.2031 62.1094 45.3906H61.4531L60.2344 45.25L58.4531 45.625L56.1094 45.9531C52.9219 46.8281 50.5625 47.3438 49.0312 47.5L46.7344 48.3906L43.4531 49.2344C38.5156 50.6719 35.8125 51.625 35.3438 52.0938C34.9062 52.5625 34.4219 53.0156 33.8906 53.4531C33.3906 53.8906 33.0469 54.5781 32.8594 55.5156C32.7031 56.4219 33.0312 58.0312 33.8438 60.3438C32.9062 61.0625 31.75 61.0156 30.375 60.2031C29 59.3594 28.3125 58.1094 28.3125 56.4531V55.8906C28.3125 52.9531 30.75 50.1719 35.625 47.5469C40.5938 45.1406 51.0312 42.5781 66.9375 39.8594L71.1094 33.7656C73.3906 30.5469 75.0938 28.5781 76.2188 27.8594ZM93.3281 62.125C100.266 61.0312 103.906 62.3125 104.25 65.9688C105.188 69.125 100.109 73.3594 89.0156 78.6719C77.9219 83.9844 71.2656 86.625 69.0469 86.5938C66.8281 86.5625 65.3906 86.1719 64.7344 85.4219C64.1094 84.6406 63.9688 83.2344 64.3125 81.2031C64.6562 79.1719 67.8438 75.7656 73.875 70.9844C79.9062 66.1719 86.3906 63.2188 93.3281 62.125ZM69.8906 78.5781C67.1719 81.8594 67.9375 83.1406 72.1875 82.4219C76.4688 81.7031 85.1719 77.4219 98.2969 69.5781L99.2812 68.6875C100.562 66.6875 99.5469 65.4688 96.2344 65.0312C92.9219 64.5938 88.375 65.9219 82.5938 69.0156C76.8438 72.0781 72.6094 75.2656 69.8906 78.5781ZM189.75 1.9375C191.594 0.78125 193.719 1.82812 196.125 5.07812C196.812 6.73438 196.453 7.4375 195.047 7.1875L190.828 5.07812L151.5 46.1406L132.375 66.1562C138.031 66.1562 140.906 67 141 68.6875C141.344 69.75 140.984 70.8906 139.922 72.1094C138.859 73.3281 137.766 74.4375 136.641 75.4375C135.516 76.4375 134.797 77.2031 134.484 77.7344C146.297 73.5469 150.906 72.8438 148.312 75.625C137.406 80.375 131.172 83 129.609 83.5C128.078 84 126.625 84.2812 125.25 84.3438C123.906 84.4062 123.438 83.6094 123.844 81.9531C134.531 73.6094 137.719 69.75 133.406 70.375C126.188 70.375 119.25 74 112.594 81.25C105.938 88.5 101.531 93.0781 99.375 94.9844C97.2188 96.8594 89.9375 102.297 77.5312 111.297C72.0312 114.953 66.4219 117.688 60.7031 119.5C54.9531 121.344 50.7812 122.469 48.1875 122.875C45.5625 123.312 43.4375 123.156 41.8125 122.406C40.1562 121.688 39.375 120.047 39.4688 117.484C39.5625 114.922 40.5 112.344 42.2812 109.75C44.0312 107.156 47.3594 103.859 52.2656 99.8594C61.6406 92.4531 75.9375 84.7344 95.1562 76.7031L99.8438 75.0156C118.656 70.6719 129.766 65.4375 133.172 59.3125L134.203 58.0469C146.797 45.7969 161.25 31 177.562 13.6562L189.75 1.9375ZM44.2031 118.188C44.7969 118.812 46.2344 119.047 48.5156 118.891L57.6094 116.5C70.5156 112.312 83.0781 104.625 95.2969 93.4375C107.484 82.25 113.359 76.4531 112.922 76.0469C112.484 75.6094 111.875 75.4688 111.094 75.625C98.625 77.0938 82.3281 84.4688 62.2031 97.75C53.7969 102.656 47.7969 108.312 44.2031 114.719C43.5781 116.406 43.5781 117.562 44.2031 118.188ZM171.328 62.125C173.047 61.5312 174.016 62.0469 174.234 63.6719C169.516 67.0781 167 69.2969 166.688 70.3281L166.547 70.6094L169.828 69.2031C177.172 66.6719 183.547 65.5938 188.953 65.9688C190.047 66 190.453 66.75 190.172 68.2188C187.109 71.0938 184.547 73.2656 182.484 74.7344C172.891 80.2969 169.047 83.0469 170.953 82.9844L175.641 82.375L187.594 80.3594C191.25 79.9531 192.156 80.3125 190.312 81.4375C188.469 82.5312 185.562 83.4219 181.594 84.1094C177.656 84.7656 173.969 85.3281 170.531 85.7969C168.188 85.9844 166.828 85.8125 166.453 85.2812C166.078 84.75 166.203 83.9531 166.828 82.8906C167.453 81.7969 170.703 79.0625 176.578 74.6875C179.047 73.25 180.75 72.2188 181.688 71.5938C182.625 70.9375 183.891 69.9844 185.484 68.7344L182.812 69.0625C169.656 71.125 163.125 73.7812 163.219 77.0312C163.75 81.8438 160.047 84.4531 152.109 84.8594C149.891 84.7031 148.609 84.1875 148.266 83.3125C147.922 82.4375 148.031 81.5312 148.594 80.5938C155.406 74 162.984 67.8438 171.328 62.125ZM152.859 79.5625C151.453 80.9688 150.922 81.875 151.266 82.2812C151.641 82.6562 152.844 82.6562 154.875 82.2812C159.5 81.6562 161.328 79.4688 160.359 75.7188C159.734 75 158.672 75.1094 157.172 76.0469C155.703 76.9844 154.266 78.1562 152.859 79.5625Z" fill="#FFBD4E"/>
<path d="M257.906 26.3125C266.719 26.125 271.719 28.0781 272.906 32.1719C278.344 29.7969 282.109 28.5469 284.203 28.4219C293.859 28.1094 298.75 31.3125 298.875 38.0312C296.75 48.5 283.922 55.8438 260.391 60.0625C255.109 60.6562 251.875 60.3438 250.688 59.125C249.531 57.875 250.562 57.3906 253.781 57.6719C257.031 57.9531 264.562 56.1875 276.375 52.375C288.188 48.5312 294.078 43.3281 294.047 36.7656C294.234 34.7656 293 33.3594 290.344 32.5469C287.688 31.7031 285.469 31.5469 283.688 32.0781C281.906 32.5781 280.156 33.25 278.438 34.0938C276.75 34.9375 275.312 35.6406 274.125 36.2031C272.969 36.7344 268.781 40.0781 261.562 46.2344C249 57.1719 237.094 67.5 225.844 77.2188C218.812 83.5 214.375 86.4375 212.531 86.0312C210.969 86.1875 210.406 85.6719 210.844 84.4844C241.062 57.1406 259.766 41.0312 266.953 36.1562C268.641 34.7188 269.094 33.4688 268.312 32.4062C268.312 31.2812 266.547 30.5781 263.016 30.2969C259.484 29.9844 255.891 30.3125 252.234 31.2812C248.578 32.2188 245.625 33.1562 243.375 34.0938C241.156 35.0312 238.281 36.3906 234.75 38.1719C231.219 39.9219 227.844 41.8125 224.625 43.8438C221.406 45.8438 219.469 48.1719 218.812 50.8281C218.312 52.1406 218.234 53.0938 218.578 53.6875C218.922 54.2812 220 54.4531 221.812 54.2031C223.344 54.2344 229.922 52.3438 241.547 48.5312L241.594 50.5C235.781 53.9688 228.484 56.2812 219.703 57.4375C217.297 57.625 215.703 56.4375 214.922 53.875C214.172 51.3125 215.641 47.9062 219.328 43.6562C223.016 39.375 233.344 34.1562 250.312 28L257.906 26.3125ZM241.781 48.3438C243.719 47.7188 244.312 47.8906 243.562 48.8594L241.781 50.1719H240.938V49.5156L241.781 48.3438ZM285.75 62.0781C288.719 61.7969 290.75 63.4688 291.844 67.0938C291.031 69.4062 289.609 71.4062 287.578 73.0938H288.375C291.938 70.375 294.016 69.9844 294.609 71.9219C287.641 75.8281 283.953 78.8281 283.547 80.9219C283.141 82.9844 284.25 83.5938 286.875 82.75L298.734 77.9688C299.891 78.3125 300.156 78.9688 299.531 79.9375C292.406 83.8438 287.094 85.7969 283.594 85.7969C280.344 85.4219 279.812 83.1406 282 78.9531C271.844 83.5156 265.203 85.7969 262.078 85.7969C259.922 85.0156 259.125 83.0625 259.688 79.9375C266.875 68.2188 275.562 62.2656 285.75 62.0781ZM269.062 73.375C264.062 78.0938 261.984 81.0312 262.828 82.1875C263.672 83.3438 267.125 82.6094 273.188 79.9844C279.281 77.3281 283.531 73.8906 285.938 69.6719C288.188 66.8906 287.438 65.4219 283.688 65.2656C278.938 65.9219 274.062 68.625 269.062 73.375ZM337.359 62.5469C339.172 61.8594 340.266 62.0312 340.641 63.0625C341.016 64.0625 335.547 69.9844 324.234 80.8281C323.797 82.1406 324.5 82.5469 326.344 82.0469C334.156 79.4219 338.938 77.9375 340.688 77.5938C342.438 77.2188 343.312 77.4531 343.312 78.2969C342.875 79.7656 339.391 81.6094 332.859 83.8281C326.328 86.0156 322.25 86.7188 320.625 85.9375C319 85.125 318.781 83.4219 319.969 80.8281L323.156 75.7656L311.062 74.4062C308.125 75.9375 305.766 77.7656 303.984 79.8906C302.203 82.0156 300.828 83.1562 299.859 83.3125C298.922 83.4688 298.562 82.6406 298.781 80.8281C301.594 77.0781 305.703 73.0156 311.109 68.6406C316.547 64.2344 320.375 61.8438 322.594 61.4688C324.844 61.0938 324.875 62.2344 322.688 64.8906C321.469 65.8594 320.047 66.875 318.422 67.9375L315.094 70.6094L319.969 72.0625C324.906 72.6875 330.703 69.5156 337.359 62.5469ZM360.844 26.9688L365.062 27.2031L368.625 27.625L372.234 28.1406C374.297 28.5156 376.922 29.1094 380.109 29.9219C386.891 32.1406 391.656 35.3281 394.406 39.4844C397.188 43.6094 398.547 46.5781 398.484 48.3906C398.484 60.5469 386.297 71.2031 361.922 80.3594C354.453 83.6719 348.922 85.3281 345.328 85.3281C343.078 85.1094 342.422 83.6562 343.359 80.9688C352.891 67.9375 362.234 61.4219 371.391 61.4219C374.641 61.4219 376.266 63.9531 376.266 69.0156H378.188C389.156 63.2969 394.641 57.1406 394.641 50.5469C395.578 49.0156 394.203 45.6406 390.516 40.4219C386.859 35.1719 378.688 32.0938 366 31.1875C353.344 30.25 341.469 30.2969 330.375 31.3281C315.25 34.5469 307.688 38.0625 307.688 41.875C305.688 43.6875 304.703 43.3125 304.734 40.75C308.953 32.0625 322.172 27.5 344.391 27.0625L353.766 26.7344L360.844 26.9688ZM352.312 74.5C345.562 81.0312 347.375 82.5312 357.75 79C368.156 75.4375 373.359 71.75 373.359 67.9375V66.8594C372.297 64.5469 370.359 63.8125 367.547 64.6562C364.172 64.6562 359.094 67.9375 352.312 74.5ZM404.297 63.3906C406.953 62.2344 409.562 61.875 412.125 62.3125C414.688 62.7188 415.984 64.4375 416.016 67.4688C416.016 71.75 407.672 74.7969 390.984 76.6094C387.484 77.6094 385.766 78.8281 385.828 80.2656C385.922 81.7031 386.562 82.5781 387.75 82.8906C388.969 83.1719 390.25 83.375 391.594 83.5C392.969 83.5938 398.109 82.7656 407.016 81.0156C415.922 79.2344 420.312 78.625 420.188 79.1875C420.094 79.7188 415.875 81.0625 407.531 83.2188C399.219 85.3438 392.406 86.2031 387.094 85.7969C383.531 84.7969 382.109 82.7812 382.828 79.75L383.203 77.6406H380.062C379.812 76.8906 380.344 76.2031 381.656 75.5781C383 74.9219 390.547 70.8594 404.297 63.3906ZM398.812 69.4844C389.094 73.6406 389.562 74.7031 400.219 72.6719C408.812 70.5469 413.109 68.7188 413.109 67.1875C413.109 65.6562 411.234 65.0938 407.484 65.5L398.812 69.4844ZM509.344 1.9375C511.188 0.78125 513.312 1.82812 515.719 5.07812C516.406 6.73438 516.047 7.4375 514.641 7.1875L510.422 5.07812L471.094 46.1406L451.969 66.1562C457.625 66.1562 460.5 67 460.594 68.6875C460.938 69.75 460.578 70.8906 459.516 72.1094C458.453 73.3281 457.359 74.4375 456.234 75.4375C455.109 76.4375 454.391 77.2031 454.078 77.7344C465.891 73.5469 470.5 72.8438 467.906 75.625C457 80.375 450.766 83 449.203 83.5C447.672 84 446.219 84.2812 444.844 84.3438C443.5 84.4062 443.031 83.6094 443.438 81.9531C454.125 73.6094 457.312 69.75 453 70.375C445.781 70.375 438.844 74 432.188 81.25C425.531 88.5 421.125 93.0781 418.969 94.9844C416.812 96.8594 409.531 102.297 397.125 111.297C391.625 114.953 386.016 117.688 380.297 119.5C374.547 121.344 370.375 122.469 367.781 122.875C365.156 123.312 363.031 123.156 361.406 122.406C359.75 121.688 358.969 120.047 359.062 117.484C359.156 114.922 360.094 112.344 361.875 109.75C363.625 107.156 366.953 103.859 371.859 99.8594C381.234 92.4531 395.531 84.7344 414.75 76.7031L419.438 75.0156C438.25 70.6719 449.359 65.4375 452.766 59.3125L453.797 58.0469C466.391 45.7969 480.844 31 497.156 13.6562L509.344 1.9375ZM363.797 118.188C364.391 118.812 365.828 119.047 368.109 118.891L377.203 116.5C390.109 112.312 402.672 104.625 414.891 93.4375C427.078 82.25 432.953 76.4531 432.516 76.0469C432.078 75.6094 431.469 75.4688 430.688 75.625C418.219 77.0938 401.922 84.4688 381.797 97.75C373.391 102.656 367.391 108.312 363.797 114.719C363.172 116.406 363.172 117.562 363.797 118.188Z" fill="white"/>
</svg>
