<svg width="331" height="58" viewBox="0 0 331 58" fill="none" xmlns="http://www.w3.org/2000/svg">
<path d="M37.167 34.0752C38.8662 33.4307 39.8916 33.5918 40.2432 34.5586C40.5947 35.4961 35.4678 41.0479 24.8623 51.2139C24.4521 52.4443 25.1113 52.8252 26.8398 52.3564C34.1641 49.8955 38.6465 48.5039 40.2871 48.1816C41.9277 47.8301 42.748 48.0498 42.748 48.8408C42.3379 50.2178 39.0713 51.9463 32.9482 54.0264C26.8252 56.0771 23.002 56.7363 21.4785 56.0039C19.9551 55.2422 19.75 53.6455 20.8633 51.2139L23.8516 46.4678L12.5137 45.1934C9.75977 46.6289 7.54785 48.3428 5.87793 50.335C4.20801 52.3271 2.91895 53.3965 2.01074 53.543C1.13184 53.6895 0.794922 52.9131 1 51.2139C3.63672 47.6982 7.48926 43.8896 12.5576 39.7881C17.6553 35.6572 21.2441 33.416 23.3242 33.0645C25.4336 32.7129 25.4629 33.7822 23.4121 36.2725C22.2695 37.1807 20.9365 38.1328 19.4131 39.1289L16.293 41.6338L20.8633 42.9961C25.4922 43.582 30.9268 40.6084 37.167 34.0752ZM65.0301 33.6357C67.8133 33.3721 69.7176 34.9395 70.743 38.3379C69.9813 40.5059 68.6482 42.3809 66.7439 43.9629H67.491C70.8309 41.4141 72.7791 41.0479 73.3357 42.8643C66.8025 46.5264 63.3455 49.3389 62.9646 51.3018C62.5838 53.2354 63.6238 53.8066 66.0848 53.0156L77.2029 48.5332C78.2869 48.8555 78.5359 49.4707 77.95 50.3789C71.2703 54.041 66.2898 55.8721 63.0086 55.8721C59.9617 55.5205 59.4637 53.3818 61.5145 49.4561C51.993 53.7334 45.7674 55.8721 42.8377 55.8721C40.8162 55.1396 40.0691 53.3086 40.5965 50.3789C47.3348 39.3926 55.4793 33.8115 65.0301 33.6357ZM49.3855 44.2266C44.698 48.6504 42.7498 51.4043 43.5408 52.4883C44.3318 53.5723 47.5691 52.8838 53.2527 50.4229C58.9656 47.9326 62.95 44.71 65.2059 40.7549C67.3152 38.1475 66.6121 36.7705 63.0965 36.624C58.6434 37.2393 54.073 39.7734 49.3855 44.2266ZM111 0.720703L114.955 0.94043L118.295 1.33594L121.679 1.81934C123.613 2.1709 126.074 2.72754 129.062 3.48926C135.419 5.56934 139.887 8.55762 142.465 12.4541C145.073 16.3213 146.347 19.1045 146.288 20.8037C146.288 32.2002 134.863 42.1904 112.011 50.7744C105.009 53.8799 99.8236 55.4326 96.4545 55.4326C94.3451 55.2275 93.7299 53.8652 94.6088 51.3457C103.544 39.1289 112.304 33.0205 120.888 33.0205C123.935 33.0205 125.458 35.3936 125.458 40.1396H127.26C137.543 34.7783 142.685 29.0068 142.685 22.8252C143.564 21.3896 142.275 18.2256 138.818 13.333C135.39 8.41113 127.729 5.52539 115.834 4.67578C103.969 3.79688 92.8363 3.84082 82.4359 4.80762C68.2562 7.8252 61.1664 11.1211 61.1664 14.6953C59.2914 16.3945 58.3686 16.043 58.3979 13.6406C62.3529 5.49609 74.7455 1.21875 95.5756 0.808594L104.365 0.500977L111 0.720703ZM103.002 45.2812C96.6742 51.4043 98.3734 52.8105 108.1 49.5C117.856 46.1602 122.734 42.7031 122.734 39.1289V38.1182C121.738 35.9502 119.921 35.2617 117.285 36.0527C114.121 36.0527 109.36 39.1289 103.002 45.2812ZM147.916 33.7676C149.879 33.2109 151.637 33.0498 153.19 33.2842C154.742 33.4893 155.885 33.9287 156.617 34.6025C157.35 35.2764 157.394 37.0928 156.749 40.0518L160.353 38.2061L163.077 36.2285C164.191 35.6719 164.777 35.7158 164.835 36.3604C164.923 36.9756 162.638 39.5537 157.98 44.0947C157.189 45.1494 157.599 45.3252 159.21 44.6221C160.792 44.6221 166.739 41.3994 177.052 34.9541C179.073 34.0752 180.026 34.0312 179.908 34.8223C179.791 35.6133 177.887 37.1807 174.196 39.5244C170.504 41.8682 167.882 43.8457 166.329 45.457C162.521 49.4707 163.868 50.5547 170.372 48.709L189.357 43.5674C190.441 43.5381 190.646 44.0654 189.972 45.1494C186.075 46.9365 177.989 49.251 165.714 52.0928C163.517 52.4443 162.096 52.1953 161.451 51.3457C160.865 49.9395 161.173 48.123 162.374 45.8965L159.518 46.9512L157.672 47.3906L156.398 47.6982L151.212 49.4561C150.392 49.4561 151.168 47.9326 153.541 44.8857L148.751 46.7754C147.462 47.5664 146.232 48.2695 145.06 48.8848C137.091 53.543 132.169 55.8721 130.294 55.8721H129.064C127.071 55.4619 126.705 54.2021 127.965 52.0928C129.225 49.9541 131.276 49.3975 134.117 50.4229C143.375 47.7568 150.304 43.6846 154.904 38.2061C154.904 36.7705 154.259 35.8623 152.97 35.4814C151.681 35.1006 149.864 35.4668 147.521 36.5801C147.931 38.3672 147.535 39.7588 146.334 40.7549C145.162 41.7217 144.049 42.1758 142.994 42.1172C141.969 42.0293 141.442 41.5898 141.412 40.7988C141.412 39.9785 142.013 38.7334 143.214 37.0635C144.415 35.3936 145.983 34.2949 147.916 33.7676ZM218.626 33.8994C220.735 33.2256 221.629 34.0459 221.307 36.3604C211.873 43.5967 207.317 47.6543 207.64 48.5332C206.79 50.1152 207.2 51.082 208.87 51.4336C211.976 51.0234 215.682 49.7637 219.988 47.6543C224.324 45.5156 226.302 45.0029 225.921 46.1162C224.896 48.2842 221.321 50.5986 215.198 53.0596C209.104 55.4912 205.574 56.1211 204.607 54.9492C203.641 53.7773 203.421 51.2432 203.948 47.3467L188.348 54.6416C186.414 55.1689 184.773 55.2275 183.426 54.8174C182.107 54.3779 181.624 53.1035 181.976 50.9941C188.04 41.7363 192.332 36.6826 194.852 35.833C197.371 34.9541 197.972 35.5254 196.653 37.5469C188.86 45.5156 185.198 50.0713 185.667 51.2139C186.165 52.3564 190.164 50.9355 197.664 46.9512C205.164 42.9375 212.151 38.5869 218.626 33.8994ZM243.457 33.8994C244.746 33.46 245.566 34.2217 245.918 36.1846C252.334 34.3389 256.318 33.6357 257.871 34.0752C259.424 34.5146 260.303 35.2471 260.508 36.2725C260.742 37.2979 259.277 39.3193 256.113 42.3369C252.978 45.3545 249.858 47.6543 246.753 49.2363C243.647 50.8184 241.992 52.0195 241.787 52.8398L260.024 46.0283C260.962 45.6768 261.24 45.9258 260.859 46.7754C260.215 48.416 256.553 50.3936 249.873 52.708C243.222 55.0225 239.429 56.0771 238.491 55.8721C236.499 55.4033 235.942 54.3047 236.821 52.5762C249.536 44.3145 255.893 39.5977 255.893 38.4258C256.509 37.3125 256.216 36.8145 255.014 36.9316C253.813 37.0195 251.279 37.6494 247.412 38.8213C243.545 39.9639 234.756 44.8857 221.045 53.5869C218.672 54.0557 217.295 53.5576 216.914 52.0928C228.838 45.6768 237.685 39.6123 243.457 33.8994ZM283.361 33.6357C286.144 33.3721 288.048 34.9395 289.074 38.3379C288.312 40.5059 286.979 42.3809 285.075 43.9629H285.822C289.162 41.4141 291.11 41.0479 291.667 42.8643C285.133 46.5264 281.676 49.3389 281.296 51.3018C280.915 53.2354 281.955 53.8066 284.416 53.0156L295.534 48.5332C296.618 48.8555 296.867 49.4707 296.281 50.3789C289.601 54.041 284.621 55.8721 281.339 55.8721C278.293 55.5205 277.795 53.3818 279.845 49.4561C270.324 53.7334 264.098 55.8721 261.169 55.8721C259.147 55.1396 258.4 53.3086 258.927 50.3789C265.666 39.3926 273.81 33.8115 283.361 33.6357ZM267.716 44.2266C263.029 48.6504 261.081 51.4043 261.872 52.4883C262.663 53.5723 265.9 52.8838 271.584 50.4229C277.296 47.9326 281.281 44.71 283.537 40.7549C285.646 38.1475 284.943 36.7705 281.427 36.624C276.974 37.2393 272.404 39.7734 267.716 44.2266ZM313.114 34.6025C316.073 33.958 317.874 34.7783 318.519 37.0635L324.891 34.5146C326.971 33.9287 328.436 34.002 329.286 34.7344C330.135 35.4668 330.516 36.4629 330.428 37.7227C330.34 38.9824 329.666 40.5205 328.407 42.3369C327.147 44.124 325.477 45.208 323.397 45.5889C321.815 45.6182 320.672 45.5156 319.969 45.2812C319.266 45.0469 318.797 44.666 318.563 44.1387C318.358 43.582 318.563 43.3184 319.178 43.3477C319.823 43.377 320.423 43.4502 320.98 43.5674C321.537 43.6846 322.342 43.6699 323.397 43.5234C324.481 43.377 325.609 42.542 326.781 41.0186C327.953 39.4658 328.143 38.1768 327.352 37.1514C326.561 36.126 324.129 36.7998 320.057 39.1729L317.948 40.667C316.366 41.8682 314.901 43.3184 313.553 45.0176L311.883 46.7314L310.872 47.918C310.345 48.9434 310.169 49.9395 310.345 50.9062C310.521 51.8438 311.956 52.166 314.652 51.873C318.958 50.9941 322.591 50.1445 325.55 49.3242L327.264 48.8408C328.348 48.8408 328.744 49.1191 328.451 49.6758C328.158 50.2324 327.396 50.7158 326.165 51.126C324.935 51.5361 323.06 52.1221 320.54 52.8838C316.41 54.0264 313.48 54.627 311.751 54.6855C310.023 54.7441 308.88 54.334 308.324 53.4551C307.767 52.5762 307.489 51.5947 307.489 50.5107L305.687 51.6973C303.812 52.9863 301.454 54.0557 298.612 54.9053C295.77 55.7256 294.129 55.9453 293.69 55.5645C293.221 55.1543 293.412 54.4805 294.261 53.543C295.931 53.2793 297.323 52.9277 298.436 52.4883C299.579 52.0488 301.073 51.2139 302.918 49.9834L305.511 48.3135C312.074 43.1572 315.34 39.8613 315.311 38.4258C315.282 36.9609 314.124 36.6387 311.839 37.459C309.203 38.7773 307.401 40.4033 306.434 42.3369C305.467 44.2412 304.764 44.6953 304.325 43.6992C303.885 42.6738 304.5 41.0625 306.17 38.8652C307.87 36.6387 310.184 35.2178 313.114 34.6025Z" fill="#FFBD4E"/>
</svg>
